%FSLAX25Y25*%
%MOIN*%
G70*
G01*
G75*
G04 Layer_Color=32896*
%ADD10R,0.06000X0.04000*%
%ADD11R,0.02953X0.11024*%
%ADD12R,0.04000X0.06000*%
%ADD13R,0.03201X0.02799*%
%ADD14R,0.02799X0.03201*%
%ADD15R,0.03543X0.04724*%
%ADD16O,0.10236X0.02756*%
%ADD17R,0.20472X0.34449*%
%ADD18O,0.01772X0.07874*%
%ADD19R,0.01201X0.07098*%
%ADD20R,0.01200X0.07100*%
%ADD21R,0.07100X0.01200*%
%ADD22R,0.07100X0.01200*%
%ADD23R,0.07098X0.01201*%
%ADD24R,0.02559X0.04134*%
%ADD25R,0.06000X0.02500*%
%ADD26O,0.06000X0.02500*%
%ADD27R,0.06299X0.01969*%
%ADD28R,0.01969X0.06299*%
%ADD29R,0.04724X0.02362*%
%ADD30R,0.07874X0.21654*%
%ADD31R,0.04000X0.04000*%
%ADD32R,0.04000X0.08000*%
%ADD33R,0.03937X0.09055*%
%ADD34R,0.03937X0.05118*%
%ADD35R,0.05118X0.03937*%
%ADD36R,0.05906X0.03937*%
%ADD37R,0.11024X0.03937*%
%ADD38C,0.01181*%
%ADD39C,0.01969*%
%ADD40C,0.00591*%
%ADD41C,0.00787*%
%ADD42C,0.06299*%
%ADD43R,0.06299X0.06299*%
%ADD44R,0.06300X0.06200*%
%ADD45O,0.06300X0.06200*%
%ADD46C,0.25590*%
%ADD47R,0.09843X0.09843*%
%ADD48C,0.09843*%
%ADD49C,0.03937*%
%ADD50R,0.09843X0.09843*%
%ADD51C,0.02362*%
%ADD52C,0.05000*%
%ADD53C,0.04000*%
%ADD54C,0.05906*%
G04:AMPARAMS|DCode=55|XSize=74.803mil|YSize=74.803mil|CornerRadius=0mil|HoleSize=0mil|Usage=FLASHONLY|Rotation=0.000|XOffset=0mil|YOffset=0mil|HoleType=Round|Shape=Relief|Width=10mil|Gap=7.87mil|Entries=4|*
%AMTHD55*
7,0,0,0.07480,0.05906,0.01000,45*
%
%ADD55THD55*%
%ADD56C,0.05512*%
G04:AMPARAMS|DCode=57|XSize=70.866mil|YSize=70.866mil|CornerRadius=0mil|HoleSize=0mil|Usage=FLASHONLY|Rotation=0.000|XOffset=0mil|YOffset=0mil|HoleType=Round|Shape=Relief|Width=10mil|Gap=7.87mil|Entries=4|*
%AMTHD57*
7,0,0,0.07087,0.05512,0.01000,45*
%
%ADD57THD57*%
G04:AMPARAMS|DCode=58|XSize=161.417mil|YSize=161.417mil|CornerRadius=0mil|HoleSize=0mil|Usage=FLASHONLY|Rotation=0.000|XOffset=0mil|YOffset=0mil|HoleType=Round|Shape=Relief|Width=10mil|Gap=7.87mil|Entries=4|*
%AMTHD58*
7,0,0,0.16142,0.14567,0.01000,45*
%
%ADD58THD58*%
%ADD59C,0.08268*%
G04:AMPARAMS|DCode=60|XSize=98.425mil|YSize=98.425mil|CornerRadius=0mil|HoleSize=0mil|Usage=FLASHONLY|Rotation=0.000|XOffset=0mil|YOffset=0mil|HoleType=Round|Shape=Relief|Width=10mil|Gap=7.87mil|Entries=4|*
%AMTHD60*
7,0,0,0.09843,0.08268,0.01000,45*
%
%ADD60THD60*%
%ADD61C,0.05118*%
G04:AMPARAMS|DCode=62|XSize=66.929mil|YSize=66.929mil|CornerRadius=0mil|HoleSize=0mil|Usage=FLASHONLY|Rotation=0.000|XOffset=0mil|YOffset=0mil|HoleType=Round|Shape=Relief|Width=10mil|Gap=7.87mil|Entries=4|*
%AMTHD62*
7,0,0,0.06693,0.05118,0.01000,45*
%
%ADD62THD62*%
%ADD63C,0.03543*%
G04:AMPARAMS|DCode=64|XSize=51.181mil|YSize=51.181mil|CornerRadius=0mil|HoleSize=0mil|Usage=FLASHONLY|Rotation=0.000|XOffset=0mil|YOffset=0mil|HoleType=Round|Shape=Relief|Width=10mil|Gap=7.87mil|Entries=4|*
%AMTHD64*
7,0,0,0.05118,0.03543,0.01000,45*
%
%ADD64THD64*%
G04:AMPARAMS|DCode=65|XSize=67.37mil|YSize=67.37mil|CornerRadius=0mil|HoleSize=0mil|Usage=FLASHONLY|Rotation=0.000|XOffset=0mil|YOffset=0mil|HoleType=Round|Shape=Relief|Width=10mil|Gap=7.87mil|Entries=4|*
%AMTHD65*
7,0,0,0.06737,0.05162,0.01000,45*
%
%ADD65THD65*%
%ADD66C,0.05162*%
%ADD67C,0.14567*%
%ADD68R,0.01181X0.03150*%
%ADD69R,0.03150X0.01181*%
%ADD70R,0.19685X0.19685*%
%ADD71R,0.12598X0.12598*%
%ADD72C,0.00984*%
%ADD73C,0.02362*%
%ADD74C,0.01000*%
%ADD75C,0.00800*%
%ADD76C,0.00394*%
%ADD77C,0.00197*%
%ADD78C,0.00500*%
%ADD79C,0.01200*%
%ADD80R,0.06800X0.04800*%
%ADD81R,0.04800X0.06800*%
%ADD82R,0.04001X0.03599*%
%ADD83R,0.03599X0.04001*%
%ADD84R,0.04343X0.05524*%
%ADD85O,0.11036X0.03556*%
%ADD86R,0.21272X0.35249*%
%ADD87O,0.02572X0.08674*%
%ADD88R,0.02001X0.07898*%
%ADD89R,0.02000X0.07900*%
%ADD90R,0.07900X0.02000*%
%ADD91R,0.07900X0.02000*%
%ADD92R,0.07898X0.02001*%
%ADD93R,0.03359X0.04934*%
%ADD94R,0.06800X0.03300*%
%ADD95O,0.06800X0.03300*%
%ADD96R,0.07099X0.02769*%
%ADD97R,0.02769X0.07099*%
%ADD98R,0.05524X0.03162*%
%ADD99R,0.08674X0.22453*%
%ADD100R,0.04800X0.04800*%
%ADD101R,0.04800X0.08800*%
%ADD102R,0.04737X0.09855*%
%ADD103R,0.04737X0.05918*%
%ADD104R,0.05918X0.04737*%
%ADD105R,0.06706X0.04737*%
%ADD106R,0.11824X0.04737*%
%ADD107C,0.07099*%
%ADD108R,0.07099X0.07099*%
%ADD109R,0.07100X0.07000*%
%ADD110O,0.07100X0.07000*%
%ADD111C,0.26391*%
%ADD112R,0.10642X0.10642*%
%ADD113C,0.10642*%
%ADD114C,0.04737*%
%ADD115R,0.10642X0.10642*%
%ADD116C,0.03162*%
%ADD117C,0.05800*%
%ADD118R,0.01981X0.03950*%
%ADD119R,0.03950X0.01981*%
%ADD120R,0.20485X0.20485*%
%ADD121R,0.13398X0.13398*%
D41*
X193713Y217457D02*
Y225457D01*
X179713D02*
X184713D01*
X179713Y217457D02*
Y225457D01*
X188713Y217457D02*
X193713D01*
X188713Y225457D02*
X193713D01*
X179713Y217457D02*
X184713D01*
X203480Y230327D02*
X211480D01*
X203480Y216327D02*
Y221327D01*
Y216327D02*
X211480D01*
Y225327D02*
Y230327D01*
X203480Y225327D02*
Y230327D01*
X211480Y216327D02*
Y221327D01*
X215094Y216425D02*
X223095D01*
Y225425D02*
Y230425D01*
X215094D02*
X223095D01*
X215094Y216425D02*
Y221425D01*
X223095Y216425D02*
Y221425D01*
X215094Y225425D02*
Y230425D01*
X222772Y191819D02*
X230772D01*
Y200819D02*
Y205819D01*
X222772D02*
X230772D01*
X222772Y191819D02*
Y196819D01*
X230772Y191819D02*
Y196819D01*
X222772Y200819D02*
Y205819D01*
X233008Y191622D02*
X241008D01*
Y200622D02*
Y205622D01*
X233008D02*
X241008D01*
X233008Y191622D02*
Y196622D01*
X241008Y191622D02*
Y196622D01*
X233008Y200622D02*
Y205622D01*
X172343Y84449D02*
X178248Y78543D01*
Y66732D02*
Y78543D01*
X172343Y60827D02*
X178248Y66732D01*
X172343Y46654D02*
Y60827D01*
Y84449D02*
Y98622D01*
Y46654D02*
X190059D01*
X172343Y98622D02*
X190059D01*
X224311Y56496D02*
Y64764D01*
X213681Y45866D02*
X224311Y56496D01*
X205807Y45866D02*
X213681D01*
X224311Y80512D02*
Y87992D01*
X213681Y98622D02*
X224311Y87992D01*
X205807Y98622D02*
X213681D01*
X224311Y64764D02*
Y80512D01*
X213681Y72638D02*
X221555D01*
X217618Y68701D02*
Y76575D01*
X0Y0D02*
Y393701D01*
X393701D01*
Y0D02*
Y393701D01*
X0Y0D02*
X393701D01*
D74*
X208847Y207087D02*
G03*
X208847Y207087I-1761J0D01*
G01*
X204724Y202362D02*
Y204724D01*
X202362D02*
X204724D01*
X188976D02*
X191339D01*
X188976Y202362D02*
Y204724D01*
X204724Y188976D02*
Y191339D01*
X202362Y188976D02*
X204724D01*
X188976D02*
Y191339D01*
Y188976D02*
X191339D01*
X231398Y108852D02*
Y102854D01*
X228399D01*
X227399Y103854D01*
Y104854D01*
X228399Y105853D01*
X231398D01*
X228399D01*
X227399Y106853D01*
Y107853D01*
X228399Y108852D01*
X231398D01*
X225400D02*
X221401D01*
X223400D01*
Y102854D01*
X219402D02*
X217402D01*
X218402D01*
Y108852D01*
X219402Y107853D01*
X230687Y234806D02*
X231687Y233806D01*
Y231807D01*
X230687Y230807D01*
X226689D01*
X225689Y231807D01*
Y233806D01*
X226689Y234806D01*
Y236805D02*
X225689Y237805D01*
Y239804D01*
X226689Y240804D01*
X230687D01*
X231687Y239804D01*
Y237805D01*
X230687Y236805D01*
X229688D01*
X228688Y237805D01*
Y240804D01*
X221042Y240711D02*
X222041Y239712D01*
Y237712D01*
X221042Y236713D01*
X217043D01*
X216043Y237712D01*
Y239712D01*
X217043Y240711D01*
X216043Y242711D02*
Y244710D01*
Y243710D01*
X222041D01*
X221042Y242711D01*
Y247709D02*
X222041Y248709D01*
Y250708D01*
X221042Y251708D01*
X217043D01*
X216043Y250708D01*
Y248709D01*
X217043Y247709D01*
X221042D01*
X172773Y223798D02*
X173773Y224797D01*
X175772D01*
X176772Y223798D01*
Y219799D01*
X175772Y218799D01*
X173773D01*
X172773Y219799D01*
X170774Y218799D02*
X168774D01*
X169774D01*
Y224797D01*
X170774Y223798D01*
X165775Y218799D02*
X163776D01*
X164776D01*
Y224797D01*
X165775Y223798D01*
X199979Y243664D02*
X200978Y242664D01*
Y240665D01*
X199979Y239665D01*
X195980D01*
X194980Y240665D01*
Y242664D01*
X195980Y243664D01*
X194980Y245663D02*
Y247663D01*
Y246663D01*
X200978D01*
X199979Y245663D01*
Y250662D02*
X200978Y251661D01*
Y253661D01*
X199979Y254661D01*
X198979D01*
X197979Y253661D01*
Y252661D01*
Y253661D01*
X196980Y254661D01*
X195980D01*
X194980Y253661D01*
Y251661D01*
X195980Y250662D01*
X240453Y189075D02*
X234455D01*
Y186076D01*
X235454Y185076D01*
X237454D01*
X238453Y186076D01*
Y189075D01*
Y187075D02*
X240453Y185076D01*
Y180078D02*
X234455D01*
X237454Y183077D01*
Y179078D01*
X229921Y189764D02*
X223923D01*
Y186765D01*
X224923Y185765D01*
X226922D01*
X227922Y186765D01*
Y189764D01*
Y187764D02*
X229921Y185765D01*
X223923Y179767D02*
Y183766D01*
X226922D01*
X225923Y181766D01*
Y180767D01*
X226922Y179767D01*
X228922D01*
X229921Y180767D01*
Y182766D01*
X228922Y183766D01*
X204528Y232382D02*
X210526D01*
Y235381D01*
X209526Y236381D01*
X207527D01*
X206527Y235381D01*
Y232382D01*
Y234381D02*
X204528Y236381D01*
X210526Y242379D02*
X209526Y240379D01*
X207527Y238380D01*
X205527D01*
X204528Y239380D01*
Y241379D01*
X205527Y242379D01*
X206527D01*
X207527Y241379D01*
Y238380D01*
X220965Y212494D02*
Y207496D01*
X219965Y206496D01*
X217966D01*
X216966Y207496D01*
Y212494D01*
X211967Y206496D02*
Y212494D01*
X214967Y209495D01*
X210968D01*
D78*
X191358Y232938D02*
Y237338D01*
X201358Y232938D02*
Y237338D01*
X197958Y232938D02*
X201358D01*
X197958Y237338D02*
X201358D01*
X191358D02*
X194758D01*
X191358Y232938D02*
X194758D01*
X231039Y218425D02*
Y221825D01*
X226639Y218425D02*
Y221825D01*
Y225025D02*
Y228425D01*
X231039Y225025D02*
Y228425D01*
X226639D02*
X231039D01*
X226639Y218425D02*
X231039D01*
M02*
