%FSLAX25Y25*%
%MOIN*%
G70*
G01*
G75*
G04 Layer_Color=65535*
%ADD10R,0.06000X0.04000*%
%ADD11R,0.04000X0.06000*%
%ADD12R,0.08701X0.09252*%
%ADD13R,0.09252X0.10906*%
%ADD14R,0.05000X0.08000*%
%ADD15R,0.02799X0.03201*%
%ADD16R,0.04900X0.02200*%
%ADD17R,0.05118X0.03347*%
%ADD18R,0.02756X0.02362*%
%ADD19R,0.09449X0.07087*%
%ADD20R,0.07874X0.01969*%
%ADD21R,0.08661X0.09843*%
%ADD22R,0.04000X0.02000*%
%ADD23R,0.04700X0.04100*%
%ADD24R,0.11024X0.02953*%
%ADD25R,0.18701X0.55118*%
%ADD26R,0.01181X0.01772*%
%ADD27R,0.01772X0.01181*%
%ADD28R,0.01378X0.03150*%
%ADD29R,0.03150X0.01378*%
%ADD30R,0.04331X0.02362*%
%ADD31R,0.03201X0.02799*%
G04:AMPARAMS|DCode=32|XSize=60mil|YSize=85mil|CornerRadius=0mil|HoleSize=0mil|Usage=FLASHONLY|Rotation=90.000|XOffset=0mil|YOffset=0mil|HoleType=Round|Shape=Octagon|*
%AMOCTAGOND32*
4,1,8,-0.04250,-0.01500,-0.04250,0.01500,-0.02750,0.03000,0.02750,0.03000,0.04250,0.01500,0.04250,-0.01500,0.02750,-0.03000,-0.02750,-0.03000,-0.04250,-0.01500,0.0*
%
%ADD32OCTAGOND32*%

%ADD33R,0.08500X0.06000*%
%ADD34R,0.03937X0.05512*%
%ADD35R,0.01142X0.02756*%
%ADD36R,0.11811X0.11811*%
%ADD37R,0.02756X0.01142*%
%ADD38R,0.01772X0.01772*%
%ADD39R,0.03543X0.08268*%
%ADD40R,0.12992X0.08268*%
%ADD41R,0.04213X0.08504*%
%ADD42R,0.01181X0.06496*%
%ADD43R,0.07480X0.05118*%
%ADD44R,0.07480X0.09449*%
%ADD45O,0.01181X0.06496*%
%ADD46O,0.06496X0.01181*%
%ADD47C,0.00787*%
%ADD48C,0.03937*%
%ADD49R,0.23622X0.07874*%
%ADD50R,0.25591X0.07874*%
%ADD51R,0.06299X0.01181*%
%ADD52R,0.18504X0.00394*%
%ADD53R,0.03150X0.03150*%
%ADD54R,0.21654X0.00787*%
%ADD55R,0.11811X0.03937*%
%ADD56R,0.15748X0.09843*%
%ADD57R,0.03937X0.12205*%
%ADD58R,0.12992X0.16535*%
%ADD59R,0.14961X0.24803*%
%ADD60R,0.29528X0.12598*%
%ADD61R,0.00787X0.07874*%
%ADD62R,0.06299X0.13779*%
%ADD63R,0.17717X0.07874*%
%ADD64R,0.08268X0.18898*%
%ADD65R,0.24803X0.18898*%
%ADD66R,0.24803X0.00787*%
%ADD67R,0.06299X0.07087*%
%ADD68R,0.05512X0.07480*%
%ADD69R,0.52362X0.07480*%
%ADD70R,0.19685X0.07874*%
%ADD71R,0.11417X0.11417*%
%ADD72R,0.08268X0.07480*%
%ADD73R,0.01575X0.00394*%
%ADD74R,0.30315X0.16929*%
%ADD75R,0.09843X0.13779*%
%ADD76R,0.06299X0.15748*%
%ADD77R,0.20079X0.08661*%
%ADD78R,0.14173X0.44488*%
%ADD79R,0.12992X0.43307*%
%ADD80R,0.27559X0.29528*%
%ADD81R,0.16929X0.29528*%
%ADD82R,0.16535X0.05512*%
%ADD83R,0.09449X0.09843*%
%ADD84R,0.12205X0.18898*%
%ADD85R,0.01969X0.11024*%
%ADD86R,0.00787X0.11024*%
%ADD87R,0.05906X0.21654*%
%ADD88R,0.07874X0.03937*%
%ADD89R,0.42520X0.07520*%
%ADD90R,0.32795X0.20000*%
%ADD91C,0.06500*%
%ADD92R,0.06500X0.06500*%
%ADD93C,0.06000*%
%ADD94R,0.06500X0.06500*%
%ADD95R,0.07874X0.07874*%
%ADD96C,0.07874*%
%ADD97C,0.02362*%
%ADD98C,0.23622*%
%ADD99C,0.04724*%
%ADD100C,0.04000*%
%ADD101C,0.08000*%
%ADD102C,0.07000*%
G04:AMPARAMS|DCode=103|XSize=90mil|YSize=90mil|CornerRadius=0mil|HoleSize=0mil|Usage=FLASHONLY|Rotation=0.000|XOffset=0mil|YOffset=0mil|HoleType=Round|Shape=Relief|Width=10mil|Gap=10mil|Entries=4|*
%AMTHD103*
7,0,0,0.09000,0.07000,0.01000,45*
%
%ADD103THD103*%
G04:AMPARAMS|DCode=104|XSize=100mil|YSize=100mil|CornerRadius=0mil|HoleSize=0mil|Usage=FLASHONLY|Rotation=0.000|XOffset=0mil|YOffset=0mil|HoleType=Round|Shape=Relief|Width=10mil|Gap=10mil|Entries=4|*
%AMTHD104*
7,0,0,0.10000,0.08000,0.01000,45*
%
%ADD104THD104*%
%ADD105C,0.09118*%
G04:AMPARAMS|DCode=106|XSize=111.181mil|YSize=111.181mil|CornerRadius=0mil|HoleSize=0mil|Usage=FLASHONLY|Rotation=0.000|XOffset=0mil|YOffset=0mil|HoleType=Round|Shape=Relief|Width=10mil|Gap=10mil|Entries=4|*
%AMTHD106*
7,0,0,0.11118,0.09118,0.01000,45*
%
%ADD106THD106*%
G04:AMPARAMS|DCode=107|XSize=99.37mil|YSize=99.37mil|CornerRadius=0mil|HoleSize=0mil|Usage=FLASHONLY|Rotation=0.000|XOffset=0mil|YOffset=0mil|HoleType=Round|Shape=Relief|Width=10mil|Gap=10mil|Entries=4|*
%AMTHD107*
7,0,0,0.09937,0.07937,0.01000,45*
%
%ADD107THD107*%
%ADD108C,0.07937*%
%ADD109C,0.04984*%
G04:AMPARAMS|DCode=110|XSize=69.843mil|YSize=69.843mil|CornerRadius=0mil|HoleSize=0mil|Usage=FLASHONLY|Rotation=0.000|XOffset=0mil|YOffset=0mil|HoleType=Round|Shape=Relief|Width=10mil|Gap=10mil|Entries=4|*
%AMTHD110*
7,0,0,0.06984,0.04984,0.01000,45*
%
%ADD110THD110*%
G04:AMPARAMS|DCode=111|XSize=178.11mil|YSize=178.11mil|CornerRadius=0mil|HoleSize=0mil|Usage=FLASHONLY|Rotation=0.000|XOffset=0mil|YOffset=0mil|HoleType=Round|Shape=Relief|Width=10mil|Gap=10mil|Entries=4|*
%AMTHD111*
7,0,0,0.17811,0.15811,0.01000,45*
%
%ADD111THD111*%
%ADD112C,0.07543*%
%ADD113C,0.15811*%
%ADD114C,0.01000*%
%ADD115C,0.00984*%
%ADD116C,0.02362*%
%ADD117C,0.00500*%
%ADD118C,0.00600*%
%ADD119C,0.00394*%
%ADD120C,0.01181*%
%ADD121C,0.00200*%
%ADD122C,0.00591*%
%ADD123R,0.01968X0.02953*%
D47*
X28313Y180315D02*
G03*
X28313Y180315I-557J0D01*
G01*
X102362Y170275D02*
G03*
X102362Y170275I-984J0D01*
G01*
X317126Y223163D02*
G03*
X317126Y227231I0J2034D01*
G01*
X316732Y175131D02*
G03*
X316732Y179199I0J2034D01*
G01*
X317520Y121982D02*
G03*
X317520Y126050I0J2034D01*
G01*
X37402Y7874D02*
Y17717D01*
Y7874D02*
X47244D01*
X45276Y9843D02*
X47244Y7874D01*
X45276Y5906D02*
X47244Y7874D01*
X37402Y17717D02*
X39370Y15748D01*
X35433D02*
X37402Y17717D01*
X45213Y159535D02*
X53213D01*
X45213Y168535D02*
Y173535D01*
X53213D01*
Y159535D02*
Y164535D01*
X45213Y159535D02*
Y164535D01*
X53213Y168535D02*
Y173535D01*
X55055Y159535D02*
X63055D01*
X55055Y168535D02*
Y173535D01*
X63055D01*
Y159535D02*
Y164535D01*
X55055Y159535D02*
Y164535D01*
X63055Y168535D02*
Y173535D01*
X340488Y274717D02*
X348488D01*
Y260717D02*
Y265717D01*
X340488Y260717D02*
X348488D01*
X340488Y269717D02*
Y274717D01*
X348488Y269717D02*
Y274717D01*
X340488Y260717D02*
Y265717D01*
X41276Y201882D02*
X49276D01*
Y187882D02*
Y192882D01*
X41276Y187882D02*
X49276D01*
X41276Y196882D02*
Y201882D01*
X49276Y196882D02*
Y201882D01*
X41276Y187882D02*
Y192882D01*
X53087Y187882D02*
X61087D01*
X53087Y196882D02*
Y201882D01*
X61087D01*
Y187882D02*
Y192882D01*
X53087Y187882D02*
Y192882D01*
X61087Y196882D02*
Y201882D01*
X339701Y86858D02*
X347701D01*
Y72858D02*
Y77858D01*
X339701Y72858D02*
X347701D01*
X339701Y81858D02*
Y86858D01*
X347701Y81858D02*
Y86858D01*
X339701Y72858D02*
Y77858D01*
X216472Y337709D02*
X224472D01*
Y323709D02*
Y328709D01*
X216472Y323709D02*
X224472D01*
X216472Y332709D02*
Y337709D01*
X224472Y332709D02*
Y337709D01*
X216472Y323709D02*
Y328709D01*
X232220Y337709D02*
X240220D01*
Y323709D02*
Y328709D01*
X232220Y323709D02*
X240220D01*
X232220Y332709D02*
Y337709D01*
X240220Y332709D02*
Y337709D01*
X232220Y323709D02*
Y328709D01*
X216472Y341425D02*
X224472D01*
X216472Y350425D02*
Y355425D01*
X224472D01*
Y341425D02*
Y346425D01*
X216472Y341425D02*
Y346425D01*
X224472Y350425D02*
Y355425D01*
X232220Y341425D02*
X240220D01*
X232220Y350425D02*
Y355425D01*
X240220D01*
Y341425D02*
Y346425D01*
X232220Y341425D02*
Y346425D01*
X240220Y350425D02*
Y355425D01*
X247969Y337709D02*
X255969D01*
Y323709D02*
Y328709D01*
X247969Y323709D02*
X255969D01*
X247969Y332709D02*
Y337709D01*
X255969Y332709D02*
Y337709D01*
X247969Y323709D02*
Y328709D01*
X263717Y337709D02*
X271717D01*
Y323709D02*
Y328709D01*
X263717Y323709D02*
X271717D01*
X263717Y332709D02*
Y337709D01*
X271717Y332709D02*
Y337709D01*
X263717Y323709D02*
Y328709D01*
X247969Y341425D02*
X255969D01*
X247969Y350425D02*
Y355425D01*
X255969D01*
Y341425D02*
Y346425D01*
X247969Y341425D02*
Y346425D01*
X255969Y350425D02*
Y355425D01*
X263717Y341488D02*
X271717D01*
X263717Y350488D02*
Y355488D01*
X271717D01*
Y341488D02*
Y346488D01*
X263717Y341488D02*
Y346488D01*
X271717Y350488D02*
Y355488D01*
X35520Y227496D02*
Y235496D01*
X44520D02*
X49520D01*
Y227496D02*
Y235496D01*
X35520Y227496D02*
X40520D01*
X35520Y235496D02*
X40520D01*
X44520Y227496D02*
X49520D01*
X279465Y337709D02*
X287465D01*
Y323709D02*
Y328709D01*
X279465Y323709D02*
X287465D01*
X279465Y332709D02*
Y337709D01*
X287465Y332709D02*
Y337709D01*
X279465Y323709D02*
Y328709D01*
X295213Y337709D02*
X303213D01*
Y323709D02*
Y328709D01*
X295213Y323709D02*
X303213D01*
X295213Y332709D02*
Y337709D01*
X303213Y332709D02*
Y337709D01*
X295213Y323709D02*
Y328709D01*
X279465Y341425D02*
X287465D01*
X279465Y350425D02*
Y355425D01*
X287465D01*
Y341425D02*
Y346425D01*
X279465Y341425D02*
Y346425D01*
X287465Y350425D02*
Y355425D01*
X295213Y341425D02*
X303213D01*
X295213Y350425D02*
Y355425D01*
X303213D01*
Y341425D02*
Y346425D01*
X295213Y341425D02*
Y346425D01*
X303213Y350425D02*
Y355425D01*
X13717Y248906D02*
X21717D01*
X13717Y257906D02*
Y262906D01*
X21717D01*
Y248906D02*
Y253906D01*
X13717Y248906D02*
Y253906D01*
X21717Y257906D02*
Y262906D01*
X37339Y300307D02*
X45339D01*
Y286307D02*
Y291307D01*
X37339Y286307D02*
X45339D01*
X37339Y295307D02*
Y300307D01*
X45339Y295307D02*
Y300307D01*
X37339Y286307D02*
Y291307D01*
X1906Y262906D02*
X9906D01*
Y248906D02*
Y253906D01*
X1906Y248906D02*
X9906D01*
X1906Y257906D02*
Y262906D01*
X9906Y257906D02*
Y262906D01*
X1906Y248906D02*
Y253906D01*
X4417Y340488D02*
Y348488D01*
X13417D02*
X18417D01*
Y340488D02*
Y348488D01*
X4417Y340488D02*
X9417D01*
X4417Y348488D02*
X9417D01*
X13417Y340488D02*
X18417D01*
X70803Y305992D02*
X78803D01*
X70803Y314992D02*
Y319992D01*
X78803D01*
Y305992D02*
Y310992D01*
X70803Y305992D02*
Y310992D01*
X78803Y314992D02*
Y319992D01*
X140488Y313866D02*
X148488D01*
X140488Y322866D02*
Y327866D01*
X148488D01*
Y313866D02*
Y318866D01*
X140488Y313866D02*
Y318866D01*
X148488Y322866D02*
Y327866D01*
X188071Y389843D02*
Y391811D01*
X187165Y390787D02*
X189134D01*
X190315Y385827D02*
Y393701D01*
X215197D01*
Y377953D02*
Y393701D01*
X190315Y377953D02*
X215197D01*
X190315D02*
Y385827D01*
X203850Y368047D02*
Y376047D01*
X189850Y368047D02*
X194850D01*
X189850D02*
Y376047D01*
X198850D02*
X203850D01*
X198850Y368047D02*
X203850D01*
X189850Y376047D02*
X194850D01*
X51969Y339764D02*
Y342520D01*
X50394Y341339D02*
X53150D01*
X36417Y338583D02*
X44173D01*
X36417Y303150D02*
Y338583D01*
Y303150D02*
X54134D01*
Y338583D01*
X44173D02*
X54134D01*
X305055Y251157D02*
X313055D01*
Y237158D02*
Y242158D01*
X305055Y237158D02*
X313055D01*
X305055Y246158D02*
Y251157D01*
X313055Y246158D02*
Y251157D01*
X305055Y237158D02*
Y242158D01*
X298118Y188913D02*
Y196913D01*
X307118D02*
X312118D01*
Y188913D02*
Y196913D01*
X298118Y188913D02*
X303118D01*
X298118Y196913D02*
X303118D01*
X307118Y188913D02*
X312118D01*
X298906Y135764D02*
Y143764D01*
X307906D02*
X312906D01*
Y135764D02*
Y143764D01*
X298906Y135764D02*
X303906D01*
X298906Y143764D02*
X303906D01*
X307906Y135764D02*
X312906D01*
X112397Y105430D02*
X120397D01*
X112397Y114430D02*
Y119430D01*
X120397D01*
Y105430D02*
Y110430D01*
X112397Y105430D02*
Y110430D01*
X120397Y114430D02*
Y119430D01*
X114110Y69772D02*
X122110D01*
X114110Y78772D02*
Y83772D01*
X122110D01*
Y69772D02*
Y74772D01*
X114110Y69772D02*
Y74772D01*
X122110Y78772D02*
Y83772D01*
X147157Y75134D02*
Y83134D01*
X133157Y75134D02*
X138157D01*
X133157D02*
Y83134D01*
X142157D02*
X147157D01*
X142157Y75134D02*
X147157D01*
X133157Y83134D02*
X138157D01*
X146764Y109780D02*
Y117780D01*
X132764Y109780D02*
X137764D01*
X132764D02*
Y117780D01*
X141764D02*
X146764D01*
X141764Y109780D02*
X146764D01*
X132764Y117780D02*
X137764D01*
X148756Y103126D02*
X156756D01*
Y89126D02*
Y94126D01*
X148756Y89126D02*
X156756D01*
X148756Y98126D02*
Y103126D01*
X156756Y98126D02*
Y103126D01*
X148756Y89126D02*
Y94126D01*
X70803Y133551D02*
X78803D01*
X70803Y142551D02*
Y147551D01*
X78803D01*
Y133551D02*
Y138551D01*
X70803Y133551D02*
Y138551D01*
X78803Y142551D02*
Y147551D01*
X310961Y335520D02*
X318961D01*
X310961Y344520D02*
Y349520D01*
X318961D01*
Y335520D02*
Y340520D01*
X310961Y335520D02*
Y340520D01*
X318961Y344520D02*
Y349520D01*
X213409Y59929D02*
X221409D01*
X213409Y68929D02*
Y73929D01*
X221409D01*
Y59929D02*
Y64929D01*
X213409Y59929D02*
Y64929D01*
X221409Y68929D02*
Y73929D01*
X221189Y103925D02*
X228189D01*
X221189Y93925D02*
Y103925D01*
Y92925D02*
X228189D01*
X221189D02*
Y93925D01*
X241189Y92925D02*
Y103925D01*
X234189D02*
X241189D01*
X234189Y92925D02*
X241189D01*
X204504Y92457D02*
Y100457D01*
X213504D02*
X218504D01*
Y92457D02*
Y100457D01*
X204504Y92457D02*
X209504D01*
X204504Y100457D02*
X209504D01*
X213504Y92457D02*
X218504D01*
X228346Y106236D02*
Y114236D01*
X214346Y106236D02*
X219346D01*
X214346D02*
Y114236D01*
X223346D02*
X228346D01*
X223346Y106236D02*
X228346D01*
X214346Y114236D02*
X219346D01*
X169228Y59929D02*
X177228D01*
X169228Y68929D02*
Y73929D01*
X177228D01*
Y59929D02*
Y64929D01*
X169228Y59929D02*
Y64929D01*
X177228Y68929D02*
Y73929D01*
X177008Y103925D02*
X184008D01*
X177008Y93925D02*
Y103925D01*
Y92925D02*
X184008D01*
X177008D02*
Y93925D01*
X197008Y92925D02*
Y103925D01*
X190008D02*
X197008D01*
X190008Y92925D02*
X197008D01*
X160323Y92457D02*
Y100457D01*
X169323D02*
X174323D01*
Y92457D02*
Y100457D01*
X160323Y92457D02*
X165323D01*
X160323Y100457D02*
X165323D01*
X169323Y92457D02*
X174323D01*
X184165Y106236D02*
Y114236D01*
X170165Y106236D02*
X175165D01*
X170165D02*
Y114236D01*
X179165D02*
X184165D01*
X179165Y106236D02*
X184165D01*
X170165Y114236D02*
X175165D01*
X170016Y151661D02*
X178016D01*
X170016Y160661D02*
Y165661D01*
X178016D01*
Y151661D02*
Y156661D01*
X170016Y151661D02*
Y156661D01*
X178016Y160661D02*
Y165661D01*
X141669Y250307D02*
X149669D01*
Y236307D02*
Y241307D01*
X141669Y236307D02*
X149669D01*
X141669Y245307D02*
Y250307D01*
X149669Y245307D02*
Y250307D01*
X141669Y236307D02*
Y241307D01*
X151945Y221984D02*
Y229984D01*
X137945Y221984D02*
X142945D01*
X137945D02*
Y229984D01*
X146945D02*
X151945D01*
X146945Y221984D02*
X151945D01*
X137945Y229984D02*
X142945D01*
X179858Y165661D02*
X187858D01*
Y151661D02*
Y156661D01*
X179858Y151661D02*
X187858D01*
X179858Y160661D02*
Y165661D01*
X187858Y160661D02*
Y165661D01*
X179858Y151661D02*
Y156661D01*
X207811Y169205D02*
X215811D01*
Y155205D02*
Y160205D01*
X207811Y155205D02*
X215811D01*
X207811Y164205D02*
Y169205D01*
X215811Y164205D02*
Y169205D01*
X207811Y155205D02*
Y160205D01*
X235764Y169992D02*
X243764D01*
Y155992D02*
Y160992D01*
X235764Y155992D02*
X243764D01*
X235764Y164992D02*
Y169992D01*
X243764Y164992D02*
Y169992D01*
X235764Y155992D02*
Y160992D01*
X254661Y228260D02*
X262661D01*
Y214260D02*
Y219260D01*
X254661Y214260D02*
X262661D01*
X254661Y223260D02*
Y228260D01*
X262661Y223260D02*
Y228260D01*
X254661Y214260D02*
Y219260D01*
X251661Y253283D02*
Y261283D01*
X260662D02*
X265662D01*
Y253283D02*
Y261283D01*
X251661Y253283D02*
X256662D01*
X251661Y261283D02*
X256662D01*
X260662Y253283D02*
X265662D01*
X203087Y274102D02*
X211087D01*
X203087Y283102D02*
Y288102D01*
X211087D01*
Y274102D02*
Y279102D01*
X203087Y274102D02*
Y279102D01*
X211087Y283102D02*
Y288102D01*
X184976Y276465D02*
X192976D01*
X184976Y285465D02*
Y290465D01*
X192976D01*
Y276465D02*
Y281465D01*
X184976Y276465D02*
Y281465D01*
X192976Y285465D02*
Y290465D01*
X148732Y189307D02*
Y197307D01*
X134732Y189307D02*
X139732D01*
X134732D02*
Y197307D01*
X143732D02*
X148732D01*
X143732Y189307D02*
X148732D01*
X134732Y197307D02*
X139732D01*
X134732Y179071D02*
Y187071D01*
X143732D02*
X148732D01*
Y179071D02*
Y187071D01*
X134732Y179071D02*
X139732D01*
X134732Y187071D02*
X139732D01*
X143732Y179071D02*
X148732D01*
X135370Y161047D02*
X143370D01*
X135370Y170047D02*
Y175047D01*
X143370D01*
Y161047D02*
Y166047D01*
X135370Y161047D02*
Y166047D01*
X143370Y170047D02*
Y175047D01*
X71721Y185465D02*
X78221D01*
X71721Y173965D02*
X78221D01*
Y177965D02*
Y181465D01*
X248681Y5417D02*
X253681D01*
X253181Y9917D02*
Y12917D01*
X249181Y9917D02*
Y12917D01*
X240807Y5417D02*
X245807D01*
X245307Y9917D02*
Y12917D01*
X241307Y9917D02*
Y12917D01*
X232933Y5417D02*
X237933D01*
X237433Y9917D02*
Y12917D01*
X233433Y9917D02*
Y12917D01*
X225059Y5417D02*
X230059D01*
X229559Y9917D02*
Y12917D01*
X225559Y9917D02*
Y12917D01*
X215216Y5417D02*
X220216D01*
X219717Y9917D02*
Y12917D01*
X215717Y9917D02*
Y12917D01*
X207343Y5417D02*
X212343D01*
X211842Y9917D02*
Y12917D01*
X207842Y9917D02*
Y12917D01*
X199469Y5417D02*
X204468D01*
X203969Y9917D02*
Y12917D01*
X199969Y9917D02*
Y12917D01*
X191595Y5417D02*
X196595D01*
X196095Y9917D02*
Y12917D01*
X192095Y9917D02*
Y12917D01*
X58524Y322740D02*
X63524D01*
X63024Y327240D02*
Y330240D01*
X59024Y327240D02*
Y330240D01*
X80709Y320177D02*
X88583D01*
X84646Y308425D02*
X88583D01*
Y321496D01*
X80709D02*
X88583D01*
X80709Y308425D02*
Y321496D01*
Y308425D02*
X84646D01*
X121850Y315551D02*
Y322244D01*
X120079Y324016D02*
X121850Y322244D01*
X120079Y313780D02*
X121850Y315551D01*
X91929Y324016D02*
X102559D01*
X91929Y313780D02*
X102559D01*
X91929D02*
Y324016D01*
X110039D02*
X120079D01*
X110039Y313780D02*
X120079D01*
X137795Y46555D02*
X145669D01*
X141732Y34803D02*
X145669D01*
Y47874D01*
X137795D02*
X145669D01*
X137795Y34803D02*
Y47874D01*
Y34803D02*
X141732D01*
X153543Y46555D02*
X161417D01*
X157480Y34803D02*
X161417D01*
Y47874D01*
X153543D02*
X161417D01*
X153543Y34803D02*
Y47874D01*
Y34803D02*
X157480D01*
X169291Y46555D02*
X177165D01*
X173228Y34803D02*
X177165D01*
Y47874D01*
X169291D02*
X177165D01*
X169291Y34803D02*
Y47874D01*
Y34803D02*
X173228D01*
X185039Y46555D02*
X192913D01*
X188976Y34803D02*
X192913D01*
Y47874D01*
X185039D02*
X192913D01*
X185039Y34803D02*
Y47874D01*
Y34803D02*
X188976D01*
X122047Y46555D02*
X129921D01*
X125984Y34803D02*
X129921D01*
Y47874D01*
X122047D02*
X129921D01*
X122047Y34803D02*
Y47874D01*
Y34803D02*
X125984D01*
X106299Y46555D02*
X114173D01*
X110236Y34803D02*
X114173D01*
Y47874D01*
X106299D02*
X114173D01*
X106299Y34803D02*
Y47874D01*
Y34803D02*
X110236D01*
X90551Y46555D02*
X98425D01*
X94488Y34803D02*
X98425D01*
Y47874D01*
X90551D02*
X98425D01*
X90551Y34803D02*
Y47874D01*
Y34803D02*
X94488D01*
X74803Y46555D02*
X82677D01*
X78740Y34803D02*
X82677D01*
Y47874D01*
X74803D02*
X82677D01*
X74803Y34803D02*
Y47874D01*
Y34803D02*
X78740D01*
X320866Y349705D02*
X328740D01*
X324803Y337953D02*
X328740D01*
Y351024D01*
X320866D02*
X328740D01*
X320866Y337953D02*
Y351024D01*
Y337953D02*
X324803D01*
X68838Y125028D02*
X108838D01*
X68838Y65028D02*
Y125028D01*
Y65028D02*
X108838D01*
Y125028D01*
X134732Y199150D02*
Y207150D01*
X143732D02*
X148732D01*
Y199150D02*
Y207150D01*
X134732Y199150D02*
X139732D01*
X134732Y207150D02*
X139732D01*
X143732Y199150D02*
X148732D01*
X62008Y256890D02*
Y270669D01*
X38386Y268701D02*
X62008D01*
X38386Y256890D02*
Y270669D01*
X62008D01*
X38386Y256890D02*
X62008D01*
X-591Y158661D02*
Y189370D01*
Y158661D02*
X6496D01*
X-591Y189370D02*
X6496D01*
X17126D02*
X27362D01*
X17126Y158661D02*
X27362D01*
X36811Y182283D02*
Y184646D01*
Y163386D02*
Y165748D01*
X62008Y241142D02*
Y254921D01*
X38386Y252953D02*
X62008D01*
X38386Y241142D02*
Y254921D01*
X62008D01*
X38386Y241142D02*
X62008D01*
X87756Y256890D02*
Y270669D01*
X64134Y268701D02*
X87756D01*
X64134Y256890D02*
Y270669D01*
X87756D01*
X64134Y256890D02*
X87756D01*
X87598Y241142D02*
Y254921D01*
X63976Y252953D02*
X87598D01*
X63976Y241142D02*
Y254921D01*
X87598D01*
X63976Y241142D02*
X87598D01*
X219488Y359252D02*
Y392717D01*
X217520Y359252D02*
X231299D01*
X217520D02*
Y392717D01*
X231299D01*
Y359252D02*
Y392717D01*
X235236Y359252D02*
Y392717D01*
X233268Y359252D02*
X247047D01*
X233268D02*
Y392717D01*
X247047D01*
Y359252D02*
Y392717D01*
X250984Y359252D02*
Y392717D01*
X249016Y359252D02*
X262795D01*
X249016D02*
Y392717D01*
X262795D01*
Y359252D02*
Y392717D01*
X266732Y359252D02*
Y392717D01*
X264764Y359252D02*
X278543D01*
X264764D02*
Y392717D01*
X278543D01*
Y359252D02*
Y392717D01*
X282355Y359409D02*
Y392874D01*
X280386Y359409D02*
X294166D01*
X280386D02*
Y392874D01*
X294166D01*
Y359409D02*
Y392874D01*
X298228Y359252D02*
Y392717D01*
X296260Y359252D02*
X310039D01*
X296260D02*
Y392717D01*
X310039D01*
Y359252D02*
Y392717D01*
X298693Y91890D02*
Y92539D01*
Y97539D02*
Y98189D01*
X289669Y92539D02*
X298555D01*
X289669Y97539D02*
X298693D01*
X289669Y92539D02*
Y97539D01*
X298693Y101929D02*
Y103110D01*
Y86968D02*
Y88150D01*
Y74173D02*
Y83228D01*
X276646Y74173D02*
X298693D01*
X276646D02*
Y83130D01*
X298693Y106850D02*
Y115905D01*
X276646D02*
X298693D01*
X276646Y106850D02*
Y115905D01*
Y101929D02*
Y103209D01*
Y96909D02*
Y98189D01*
Y91890D02*
Y93169D01*
Y86968D02*
Y88150D01*
X37087Y393307D02*
X77087D01*
X37087Y346063D02*
Y393307D01*
X77087Y346063D02*
Y393307D01*
X37087Y346063D02*
X77087D01*
X213583Y351378D02*
Y365157D01*
X189961Y363189D02*
X213583D01*
X189961Y351378D02*
Y365157D01*
X213583D01*
X189961Y351378D02*
X213583D01*
X81693Y288386D02*
Y302165D01*
X58071Y300197D02*
X81693D01*
X58071Y288386D02*
Y302165D01*
X81693D01*
X58071Y288386D02*
X81693D01*
X20276Y359803D02*
X34055D01*
X22244Y336181D02*
Y359803D01*
X20276Y336181D02*
X34055D01*
X20276D02*
Y359803D01*
X34055Y336181D02*
Y359803D01*
X375000Y201929D02*
Y235394D01*
X363189D02*
X376969D01*
Y201929D02*
Y235394D01*
X363189Y201929D02*
X376969D01*
X363189D02*
Y235394D01*
X359252Y201772D02*
Y235236D01*
X347441D02*
X361220D01*
Y201772D02*
Y235236D01*
X347441Y201772D02*
X361220D01*
X347441D02*
Y235236D01*
X390748Y201772D02*
Y235236D01*
X378937D02*
X392717D01*
Y201772D02*
Y235236D01*
X378937Y201772D02*
X392717D01*
X378937D02*
Y235236D01*
X375000Y166339D02*
Y199803D01*
X363189D02*
X376969D01*
Y166339D02*
Y199803D01*
X363189Y166339D02*
X376969D01*
X363189D02*
Y199803D01*
X359252Y166339D02*
Y199803D01*
X347441D02*
X361220D01*
Y166339D02*
Y199803D01*
X347441Y166339D02*
X361220D01*
X347441D02*
Y199803D01*
X390748Y166339D02*
Y199803D01*
X378937D02*
X392717D01*
Y166339D02*
Y199803D01*
X378937Y166339D02*
X392717D01*
X378937D02*
Y199803D01*
X375000Y131063D02*
Y164528D01*
X363189D02*
X376969D01*
Y131063D02*
Y164528D01*
X363189Y131063D02*
X376969D01*
X363189D02*
Y164528D01*
X359252Y130906D02*
Y164370D01*
X347441D02*
X361220D01*
Y130906D02*
Y164370D01*
X347441Y130906D02*
X361220D01*
X347441D02*
Y164370D01*
X390748Y130906D02*
Y164370D01*
X378937D02*
X392717D01*
Y130906D02*
Y164370D01*
X378937Y130906D02*
X392717D01*
X378937D02*
Y164370D01*
X375000Y95472D02*
Y128937D01*
X363189D02*
X376969D01*
Y95472D02*
Y128937D01*
X363189Y95472D02*
X376969D01*
X363189D02*
Y128937D01*
X359252Y95472D02*
Y128937D01*
X347441D02*
X361220D01*
Y95472D02*
Y128937D01*
X347441Y95472D02*
X361220D01*
X347441D02*
Y128937D01*
X390748Y95630D02*
Y129094D01*
X378937D02*
X392717D01*
Y95630D02*
Y129094D01*
X378937Y95630D02*
X392717D01*
X378937D02*
Y129094D01*
X138779Y-984D02*
Y32480D01*
X126969D02*
X140748D01*
Y-984D02*
Y32480D01*
X126969Y-984D02*
X140748D01*
X126969D02*
Y32480D01*
X123031Y-984D02*
Y32480D01*
X111221D02*
X125000D01*
Y-984D02*
Y32480D01*
X111221Y-984D02*
X125000D01*
X111221D02*
Y32480D01*
X154528Y-984D02*
Y32480D01*
X142717D02*
X156496D01*
Y-984D02*
Y32480D01*
X142717Y-984D02*
X156496D01*
X142717D02*
Y32480D01*
X107284Y-984D02*
Y32480D01*
X95472D02*
X109252D01*
Y-984D02*
Y32480D01*
X95472Y-984D02*
X109252D01*
X95472D02*
Y32480D01*
X170275Y-984D02*
Y32480D01*
X158465D02*
X172244D01*
Y-984D02*
Y32480D01*
X158465Y-984D02*
X172244D01*
X158465D02*
Y32480D01*
X91535Y-984D02*
Y32480D01*
X79724D02*
X93504D01*
Y-984D02*
Y32480D01*
X79724Y-984D02*
X93504D01*
X79724D02*
Y32480D01*
X186024Y-984D02*
Y32480D01*
X174213D02*
X187992D01*
Y-984D02*
Y32480D01*
X174213Y-984D02*
X187992D01*
X174213D02*
Y32480D01*
X75787Y-827D02*
Y32638D01*
X63976D02*
X77756D01*
Y-827D02*
Y32638D01*
X63976Y-827D02*
X77756D01*
X63976D02*
Y32638D01*
X312008Y392717D02*
X325787D01*
X313976Y369094D02*
Y392717D01*
X312008Y369094D02*
X325787D01*
X312008D02*
Y392717D01*
X325787Y369094D02*
Y392717D01*
X221327Y81535D02*
X222390D01*
Y85591D01*
X218335D02*
X222390D01*
X218335Y84528D02*
Y85591D01*
Y84528D02*
X221327Y81535D01*
X177146Y81732D02*
X178209D01*
Y85787D01*
X174154D02*
X178209D01*
X174154Y84724D02*
Y85787D01*
Y84724D02*
X177146Y81732D01*
X129075Y96575D02*
X132756Y100256D01*
X136673D01*
Y92658D02*
Y100256D01*
X129075Y92658D02*
X136673D01*
X129075D02*
Y96575D01*
X62992Y135630D02*
Y150394D01*
X53150D02*
X56102D01*
X53150Y135630D02*
X56102D01*
X46260D02*
Y150394D01*
X63976Y134646D02*
Y137598D01*
X62008Y134646D02*
X63976D01*
X62008Y137598D02*
X63976D01*
X62008Y134646D02*
Y137598D01*
X47913Y79193D02*
X47973Y79134D01*
X25473Y79193D02*
X47913D01*
X25473Y38701D02*
Y79193D01*
X47973Y38701D02*
Y79134D01*
X25473Y38701D02*
X47973D01*
X47913Y124941D02*
X47973Y124882D01*
X25473Y124941D02*
X47913D01*
X25473Y84449D02*
Y124941D01*
X47973Y84449D02*
Y124882D01*
X25473Y84449D02*
X47973D01*
X6496Y322441D02*
X32874D01*
X6496Y311417D02*
X32874D01*
Y322441D01*
X6496Y311417D02*
Y322441D01*
X8465Y287008D02*
X34843D01*
X8465Y275984D02*
X34843D01*
Y287008D01*
X8465Y275984D02*
Y287008D01*
X124409Y326772D02*
Y392402D01*
X81890Y326772D02*
Y327165D01*
Y392402D01*
X124409D01*
X81890Y326772D02*
X124409D01*
X317126Y219094D02*
Y223163D01*
Y227231D02*
Y231299D01*
X337205Y219094D02*
Y231299D01*
X317126Y219094D02*
X337205D01*
X317126Y231299D02*
X337205D01*
X316732Y171063D02*
Y175131D01*
Y179200D02*
Y183268D01*
X336811Y171063D02*
Y183268D01*
X316732Y171063D02*
X336811D01*
X316732Y183268D02*
X336811D01*
X317520Y117913D02*
Y121982D01*
Y126050D02*
Y130118D01*
X337598Y117913D02*
Y130118D01*
X317520Y117913D02*
X337598D01*
X317520Y130118D02*
X337598D01*
X160827Y165354D02*
X164567D01*
X149606D02*
X153346D01*
X160827D01*
X164567Y150394D02*
Y165354D01*
X149606Y150394D02*
Y165354D01*
Y142126D02*
Y143701D01*
Y142126D02*
X164567D01*
Y143701D01*
Y172047D02*
Y173622D01*
X149606D02*
X164567D01*
X149606Y172047D02*
Y173622D01*
X269685Y162992D02*
X270472Y163779D01*
X250787Y162992D02*
X269685D01*
X250000Y163779D02*
X250787Y162992D01*
X269685Y176378D02*
X270472Y175591D01*
X250787Y176378D02*
X269685D01*
X250000Y175591D02*
X250787Y176378D01*
X166634Y184350D02*
X240453D01*
X166634Y258169D02*
X240453D01*
Y184350D02*
Y258169D01*
X166634Y184350D02*
Y258169D01*
X118701Y306413D02*
X220039D01*
X118701Y294291D02*
Y309055D01*
Y294291D02*
X220039D01*
X118701Y309055D02*
X220039D01*
Y294291D02*
Y309055D01*
X157480Y270340D02*
Y268373D01*
X158136Y267717D01*
X160104D01*
Y270340D01*
X164040Y270996D02*
X163384Y271652D01*
X162072D01*
X161416Y270996D01*
Y268373D01*
X162072Y267717D01*
X163384D01*
X164040Y268373D01*
X169288Y269684D02*
X171911D01*
X177159Y271652D02*
Y267717D01*
Y269028D01*
X179783Y271652D01*
X177815Y269684D01*
X179783Y267717D01*
X183719Y271652D02*
X182407Y270996D01*
X181095Y269684D01*
Y268373D01*
X181751Y267717D01*
X183063D01*
X183719Y268373D01*
Y269028D01*
X183063Y269684D01*
X181095D01*
X186998Y267717D02*
Y271652D01*
X185030Y269684D01*
X187654D01*
X7874Y364173D02*
X3938D01*
X5250Y365485D01*
X3938Y366797D01*
X7874D01*
Y368109D02*
X5250D01*
X3938Y369421D01*
X5250Y370733D01*
X7874D01*
X5906D01*
Y368109D01*
X3938Y372045D02*
X7874Y374669D01*
X3938D02*
X7874Y372045D01*
Y382540D02*
Y379916D01*
X5250Y382540D01*
X4594D01*
X3938Y381884D01*
Y380572D01*
X4594Y379916D01*
Y383852D02*
X3938Y384508D01*
Y385820D01*
X4594Y386476D01*
X7218D01*
X7874Y385820D01*
Y384508D01*
X7218Y383852D01*
X4594D01*
X3938Y387788D02*
X6562D01*
X7874Y389100D01*
X6562Y390411D01*
X3938D01*
X73490Y284776D02*
X72834Y285432D01*
X71522D01*
X70866Y284776D01*
Y282152D01*
X71522Y281496D01*
X72834D01*
X73490Y282152D01*
Y283464D01*
X72178D01*
X74802Y281496D02*
Y285432D01*
X77426Y281496D01*
Y285432D01*
X78738D02*
Y281496D01*
X80705D01*
X81361Y282152D01*
Y284776D01*
X80705Y285432D01*
X78738D01*
X61679D02*
X59055D01*
Y283464D01*
X60367Y284120D01*
X61023D01*
X61679Y283464D01*
Y282152D01*
X61023Y281496D01*
X59711D01*
X59055Y282152D01*
X62991Y285432D02*
Y282808D01*
X64303Y281496D01*
X65615Y282808D01*
Y285432D01*
X106955Y154855D02*
X106299Y155510D01*
X104987D01*
X104331Y154855D01*
Y152231D01*
X104987Y151575D01*
X106299D01*
X106955Y152231D01*
X108266Y151575D02*
Y155510D01*
X110234D01*
X110890Y154855D01*
Y153543D01*
X110234Y152887D01*
X108266D01*
X114826Y151575D02*
X112202D01*
X114826Y154199D01*
Y154855D01*
X114170Y155510D01*
X112858D01*
X112202Y154855D01*
X116138Y151575D02*
X117450D01*
X116794D01*
Y155510D01*
X116138Y154855D01*
X119418D02*
X120074Y155510D01*
X121386D01*
X122041Y154855D01*
Y152231D01*
X121386Y151575D01*
X120074D01*
X119418Y152231D01*
Y154855D01*
X125977Y151575D02*
X123353D01*
X125977Y154199D01*
Y154855D01*
X125321Y155510D01*
X124009D01*
X123353Y154855D01*
X41339Y153543D02*
Y157479D01*
X43306D01*
X43962Y156823D01*
Y155511D01*
X43306Y154855D01*
X41339D01*
X45274Y153543D02*
Y157479D01*
X47242D01*
X47898Y156823D01*
Y155511D01*
X47242Y154855D01*
X45274D01*
X46586D02*
X47898Y153543D01*
X51834Y157479D02*
X49210D01*
Y153543D01*
X51834D01*
X49210Y155511D02*
X50522D01*
X55770Y156823D02*
X55114Y157479D01*
X53802D01*
X53146Y156823D01*
Y156167D01*
X53802Y155511D01*
X55114D01*
X55770Y154855D01*
Y154199D01*
X55114Y153543D01*
X53802D01*
X53146Y154199D01*
X59705Y156823D02*
X59049Y157479D01*
X57737D01*
X57082Y156823D01*
Y156167D01*
X57737Y155511D01*
X59049D01*
X59705Y154855D01*
Y154199D01*
X59049Y153543D01*
X57737D01*
X57082Y154199D01*
X61017Y157479D02*
X62329D01*
X61673D01*
Y153543D01*
X61017D01*
X62329D01*
X66265Y157479D02*
X64953D01*
X64297Y156823D01*
Y154199D01*
X64953Y153543D01*
X66265D01*
X66921Y154199D01*
Y156823D01*
X66265Y157479D01*
X68233Y153543D02*
Y157479D01*
X70857Y153543D01*
Y157479D01*
X277559Y118110D02*
Y122046D01*
X279527D01*
X280183Y121390D01*
Y120078D01*
X279527Y119422D01*
X277559D01*
X281495Y118110D02*
Y122046D01*
X283463D01*
X284119Y121390D01*
Y120078D01*
X283463Y119422D01*
X281495D01*
X282807D02*
X284119Y118110D01*
X287398Y122046D02*
X286087D01*
X285431Y121390D01*
Y118766D01*
X286087Y118110D01*
X287398D01*
X288054Y118766D01*
Y121390D01*
X287398Y122046D01*
X291990Y121390D02*
X291334Y122046D01*
X290022D01*
X289366Y121390D01*
Y118766D01*
X290022Y118110D01*
X291334D01*
X291990Y118766D01*
Y120078D01*
X290678D01*
X330052Y366142D02*
X328740Y367454D01*
Y368765D01*
X330052Y370077D01*
X332020Y369422D02*
X332676Y370077D01*
X333988D01*
X334644Y369422D01*
Y368765D01*
X333988Y368110D01*
X333332D01*
X333988D01*
X334644Y367454D01*
Y366798D01*
X333988Y366142D01*
X332676D01*
X332020Y366798D01*
X335956Y370077D02*
Y367454D01*
X337268Y366142D01*
X338580Y367454D01*
Y370077D01*
X339891Y369422D02*
X340547Y370077D01*
X341859D01*
X342515Y369422D01*
Y368765D01*
X341859Y368110D01*
X341203D01*
X341859D01*
X342515Y367454D01*
Y366798D01*
X341859Y366142D01*
X340547D01*
X339891Y366798D01*
X343827Y365486D02*
X346451D01*
X347763Y366142D02*
Y368765D01*
X349075Y370077D01*
X350387Y368765D01*
Y366142D01*
Y368110D01*
X347763D01*
X351699Y366142D02*
X353011Y367454D01*
Y368765D01*
X351699Y370077D01*
X328740Y375984D02*
Y378608D01*
X330052Y379920D01*
X331364Y378608D01*
Y375984D01*
Y377952D01*
X328740D01*
X332676Y379920D02*
Y375984D01*
X334644D01*
X335300Y376640D01*
Y379264D01*
X334644Y379920D01*
X332676D01*
X339235Y379264D02*
X338580Y379920D01*
X337268D01*
X336612Y379264D01*
Y376640D01*
X337268Y375984D01*
X338580D01*
X339235Y376640D01*
X331364Y389107D02*
X330708Y389762D01*
X329396D01*
X328740Y389107D01*
Y386483D01*
X329396Y385827D01*
X330708D01*
X331364Y386483D01*
Y387795D01*
X330052D01*
X332676Y385827D02*
Y389762D01*
X335300Y385827D01*
Y389762D01*
X336612D02*
Y385827D01*
X338580D01*
X339235Y386483D01*
Y389107D01*
X338580Y389762D01*
X336612D01*
X205382Y341207D02*
X204726Y340551D01*
Y339239D01*
X205382Y338583D01*
X208005D01*
X208661Y339239D01*
Y340551D01*
X208005Y341207D01*
X206694D01*
Y339895D01*
X208661Y342518D02*
X204726D01*
X208661Y345142D01*
X204726D01*
Y346454D02*
X208661D01*
Y348422D01*
X208005Y349078D01*
X205382D01*
X204726Y348422D01*
Y346454D01*
X195539Y338583D02*
X194883Y339239D01*
Y340551D01*
X195539Y341207D01*
X196195D01*
X196851Y340551D01*
Y339895D01*
Y340551D01*
X197507Y341207D01*
X198163D01*
X198819Y340551D01*
Y339239D01*
X198163Y338583D01*
X194883Y342518D02*
X197507D01*
X198819Y343830D01*
X197507Y345142D01*
X194883D01*
X195539Y346454D02*
X194883Y347110D01*
Y348422D01*
X195539Y349078D01*
X196195D01*
X196851Y348422D01*
Y347766D01*
Y348422D01*
X197507Y349078D01*
X198163D01*
X198819Y348422D01*
Y347110D01*
X198163Y346454D01*
X213256Y313647D02*
X212600Y312991D01*
Y311680D01*
X213256Y311024D01*
X215880D01*
X216535Y311680D01*
Y312991D01*
X215880Y313647D01*
X214568D01*
Y312335D01*
X216535Y314959D02*
X212600D01*
X216535Y317583D01*
X212600D01*
Y318895D02*
X216535D01*
Y320863D01*
X215880Y321519D01*
X213256D01*
X212600Y320863D01*
Y318895D01*
X132545Y284776D02*
X131889Y285432D01*
X130577D01*
X129921Y284776D01*
Y282152D01*
X130577Y281496D01*
X131889D01*
X132545Y282152D01*
Y283464D01*
X131233D01*
X133857Y281496D02*
Y285432D01*
X135825D01*
X136481Y284776D01*
Y283464D01*
X135825Y282808D01*
X133857D01*
X137793Y285432D02*
X139105D01*
X138449D01*
Y281496D01*
X137793D01*
X139105D01*
X143040Y285432D02*
X141728D01*
X141072Y284776D01*
Y282152D01*
X141728Y281496D01*
X143040D01*
X143696Y282152D01*
Y284776D01*
X143040Y285432D01*
X122705Y281496D02*
X122048Y282152D01*
Y283464D01*
X122705Y284120D01*
X123360D01*
X124016Y283464D01*
Y282808D01*
Y283464D01*
X124672Y284120D01*
X125328D01*
X125984Y283464D01*
Y282152D01*
X125328Y281496D01*
X122048Y285432D02*
X124672D01*
X125984Y286744D01*
X124672Y288056D01*
X122048D01*
X122705Y289368D02*
X122048Y290023D01*
Y291335D01*
X122705Y291991D01*
X123360D01*
X124016Y291335D01*
Y290679D01*
Y291335D01*
X124672Y291991D01*
X125328D01*
X125984Y291335D01*
Y290023D01*
X125328Y289368D01*
X76772Y238188D02*
X79396D01*
X78084D01*
Y234252D01*
X82675D02*
Y238188D01*
X80707Y236220D01*
X83331D01*
X53150Y238188D02*
X55773D01*
X54461D01*
Y234252D01*
X59709D02*
X57085D01*
X59709Y236876D01*
Y237532D01*
X59053Y238188D01*
X57741D01*
X57085Y237532D01*
X76772Y277558D02*
X79396D01*
X78084D01*
Y273622D01*
X80707Y276902D02*
X81363Y277558D01*
X82675D01*
X83331Y276902D01*
Y276246D01*
X82675Y275590D01*
X82019D01*
X82675D01*
X83331Y274934D01*
Y274278D01*
X82675Y273622D01*
X81363D01*
X80707Y274278D01*
X53150Y277558D02*
X55773D01*
X54461D01*
Y273622D01*
X57085D02*
X58397D01*
X57741D01*
Y277558D01*
X57085Y276902D01*
X232283Y80709D02*
Y84644D01*
X233595Y83333D01*
X234907Y84644D01*
Y80709D01*
X236219D02*
Y83333D01*
X237531Y84644D01*
X238843Y83333D01*
Y80709D01*
Y82677D01*
X236219D01*
X242779Y83988D02*
X242123Y84644D01*
X240811D01*
X240155Y83988D01*
Y81365D01*
X240811Y80709D01*
X242123D01*
X242779Y81365D01*
Y82677D01*
X241467D01*
X153543Y61024D02*
Y64959D01*
X154855Y63647D01*
X156167Y64959D01*
Y61024D01*
X157479D02*
Y63647D01*
X158791Y64959D01*
X160103Y63647D01*
Y61024D01*
Y62991D01*
X157479D01*
X164039Y64303D02*
X163383Y64959D01*
X162071D01*
X161415Y64303D01*
Y61680D01*
X162071Y61024D01*
X163383D01*
X164039Y61680D01*
Y62991D01*
X162727D01*
X124016Y66929D02*
Y70865D01*
X125328Y69553D01*
X126640Y70865D01*
Y66929D01*
X127952D02*
Y70865D01*
X129919D01*
X130575Y70209D01*
Y68897D01*
X129919Y68241D01*
X127952D01*
X131887Y70865D02*
Y67585D01*
X132543Y66929D01*
X133855D01*
X134511Y67585D01*
Y70865D01*
X71522Y62991D02*
X68898D01*
Y59055D01*
X71522D01*
X68898Y61023D02*
X70210D01*
X72833Y59055D02*
Y62991D01*
X74145Y61679D01*
X75457Y62991D01*
Y59055D01*
X76769Y62991D02*
X79393D01*
Y62335D01*
X76769Y59711D01*
Y59055D01*
X80705D02*
X82017D01*
X81361D01*
Y62991D01*
X80705Y62335D01*
X83985D02*
X84641Y62991D01*
X85953D01*
X86608Y62335D01*
Y61679D01*
X85953Y61023D01*
X86608Y60367D01*
Y59711D01*
X85953Y59055D01*
X84641D01*
X83985Y59711D01*
Y60367D01*
X84641Y61023D01*
X83985Y61679D01*
Y62335D01*
X84641Y61023D02*
X85953D01*
X87920Y62335D02*
X88576Y62991D01*
X89888D01*
X90544Y62335D01*
Y59711D01*
X89888Y59055D01*
X88576D01*
X87920Y59711D01*
Y62335D01*
X238189Y137795D02*
Y141731D01*
X240157D01*
X240813Y141075D01*
Y139763D01*
X240157Y139107D01*
X238189D01*
X239501D02*
X240813Y137795D01*
X244748Y141731D02*
X242125D01*
Y137795D01*
X244748D01*
X242125Y139763D02*
X243437D01*
X248684Y141075D02*
X248028Y141731D01*
X246716D01*
X246060Y141075D01*
Y140419D01*
X246716Y139763D01*
X248028D01*
X248684Y139107D01*
Y138451D01*
X248028Y137795D01*
X246716D01*
X246060Y138451D01*
X252620Y141731D02*
X249996D01*
Y137795D01*
X252620D01*
X249996Y139763D02*
X251308D01*
X253932Y141731D02*
X256556D01*
X255244D01*
Y137795D01*
X1969Y129920D02*
X3280D01*
X2624D01*
Y125984D01*
X1969D01*
X3280D01*
X7872D02*
X5248D01*
X7872Y128608D01*
Y129264D01*
X7216Y129920D01*
X5904D01*
X5248Y129264D01*
X11808D02*
X11152Y129920D01*
X9840D01*
X9184Y129264D01*
Y126640D01*
X9840Y125984D01*
X11152D01*
X11808Y126640D01*
X13120Y129264D02*
X13776Y129920D01*
X15088D01*
X15744Y129264D01*
Y126640D01*
X15088Y125984D01*
X13776D01*
X13120Y126640D01*
Y129264D01*
X21654Y82677D02*
X17718D01*
X19686Y80709D01*
Y83333D01*
X41340Y27558D02*
Y26247D01*
X41996Y25591D01*
X44620D01*
X45276Y26247D01*
Y27558D01*
X44620Y28214D01*
X41996D01*
X41340Y27558D01*
Y32150D02*
Y29526D01*
X43308D01*
Y30838D01*
Y29526D01*
X45276D01*
X41340Y36086D02*
Y33462D01*
X43308D01*
Y34774D01*
Y33462D01*
X45276D01*
X18374Y35433D02*
X17718Y36089D01*
Y37401D01*
X18374Y38057D01*
X20998D01*
X21654Y37401D01*
Y36089D01*
X20998Y35433D01*
X18374D01*
X61024Y3937D02*
X57088D01*
Y5905D01*
X57744Y6561D01*
X59056D01*
X59712Y5905D01*
Y3937D01*
X57088Y7873D02*
X61024D01*
X59712Y9185D01*
X61024Y10497D01*
X57088D01*
X61024Y11808D02*
X57088D01*
X58400Y13120D01*
X57088Y14432D01*
X61024D01*
X57088Y19680D02*
Y20992D01*
Y20336D01*
X61024D01*
Y19680D01*
Y20992D01*
Y22960D02*
X57088D01*
X61024Y25584D01*
X57088D01*
X255907Y5906D02*
X259842D01*
Y8529D01*
X255907Y12465D02*
Y9841D01*
X259842D01*
Y12465D01*
X257875Y9841D02*
Y11153D01*
X255907Y13777D02*
X259842D01*
Y15745D01*
X259187Y16401D01*
X256563D01*
X255907Y15745D01*
Y13777D01*
X256563Y20336D02*
X255907Y19681D01*
Y18369D01*
X256563Y17713D01*
X257219D01*
X257875Y18369D01*
Y19681D01*
X258531Y20336D01*
X259187D01*
X259842Y19681D01*
Y18369D01*
X259187Y17713D01*
X250000Y34776D02*
X250656Y35432D01*
X251968D01*
X252624Y34776D01*
Y32152D01*
X251968Y31496D01*
X250656D01*
X250000Y32152D01*
Y34776D01*
X194882Y35432D02*
X197506D01*
Y34776D01*
X194882Y32152D01*
Y31496D01*
X284122Y41994D02*
X283466Y41338D01*
Y40026D01*
X284122Y39370D01*
X284778D01*
X285434Y40026D01*
Y41338D01*
X286090Y41994D01*
X286746D01*
X287402Y41338D01*
Y40026D01*
X286746Y39370D01*
X287402Y43306D02*
X283466D01*
Y45274D01*
X284122Y45930D01*
X285434D01*
X286090Y45274D01*
Y43306D01*
X283466Y47242D02*
Y48553D01*
Y47897D01*
X287402D01*
Y47242D01*
Y48553D01*
X284122Y50521D02*
X283466Y51177D01*
Y52489D01*
X284122Y53145D01*
X286746D01*
X287402Y52489D01*
Y51177D01*
X286746Y50521D01*
X284122D01*
X288057Y54457D02*
Y57081D01*
X287402Y58393D02*
Y59705D01*
Y59049D01*
X283466D01*
X284122Y58393D01*
X358925Y40025D02*
X358269Y39369D01*
Y38058D01*
X358925Y37402D01*
X359581D01*
X360237Y38058D01*
Y39369D01*
X360893Y40025D01*
X361549D01*
X362205Y39369D01*
Y38058D01*
X361549Y37402D01*
X362205Y41337D02*
X358269D01*
Y43305D01*
X358925Y43961D01*
X360237D01*
X360893Y43305D01*
Y41337D01*
X358269Y45273D02*
Y46585D01*
Y45929D01*
X362205D01*
Y45273D01*
Y46585D01*
X358925Y48553D02*
X358269Y49209D01*
Y50521D01*
X358925Y51177D01*
X361549D01*
X362205Y50521D01*
Y49209D01*
X361549Y48553D01*
X358925D01*
X362861Y52489D02*
Y55112D01*
X358925Y56424D02*
X358269Y57080D01*
Y58392D01*
X358925Y59048D01*
X361549D01*
X362205Y58392D01*
Y57080D01*
X361549Y56424D01*
X358925D01*
X374016Y66928D02*
Y63648D01*
X374672Y62992D01*
X375984D01*
X376640Y63648D01*
Y66928D01*
X377952Y62992D02*
Y65616D01*
X379263Y66928D01*
X380575Y65616D01*
Y62992D01*
Y64960D01*
X377952D01*
X381887Y62992D02*
Y66928D01*
X383855D01*
X384511Y66272D01*
Y64960D01*
X383855Y64304D01*
X381887D01*
X383199D02*
X384511Y62992D01*
X385823Y66928D02*
X388447D01*
X387135D01*
Y62992D01*
X389759Y66272D02*
X390415Y66928D01*
X391727D01*
X392383Y66272D01*
Y63648D01*
X391727Y62992D01*
X390415D01*
X389759Y63648D01*
Y66272D01*
X375984Y238189D02*
Y242125D01*
X377296Y240813D01*
X378608Y242125D01*
Y238189D01*
X379920Y241469D02*
X380576Y242125D01*
X381888D01*
X382544Y241469D01*
Y240813D01*
X381888Y240157D01*
X382544Y239501D01*
Y238845D01*
X381888Y238189D01*
X380576D01*
X379920Y238845D01*
Y239501D01*
X380576Y240157D01*
X379920Y240813D01*
Y241469D01*
X380576Y240157D02*
X381888D01*
X383856D02*
X386480D01*
X387791Y238189D02*
X389103D01*
X388447D01*
Y242125D01*
X387791Y241469D01*
X391071Y238189D02*
X392383D01*
X391727D01*
Y242125D01*
X391071Y241469D01*
X378608Y247374D02*
X377952Y248030D01*
X376640D01*
X375984Y247374D01*
Y246718D01*
X376640Y246062D01*
X377952D01*
X378608Y245406D01*
Y244750D01*
X377952Y244094D01*
X376640D01*
X375984Y244750D01*
X379920Y247374D02*
X380576Y248030D01*
X381888D01*
X382544Y247374D01*
Y244750D01*
X381888Y244094D01*
X380576D01*
X379920Y244750D01*
Y247374D01*
X383856Y246062D02*
X386480D01*
X387791Y247374D02*
X388447Y248030D01*
X389759D01*
X390415Y247374D01*
Y246718D01*
X389759Y246062D01*
X389103D01*
X389759D01*
X390415Y245406D01*
Y244750D01*
X389759Y244094D01*
X388447D01*
X387791Y244750D01*
X338583Y238189D02*
Y242125D01*
X339895Y240813D01*
X341207Y242125D01*
Y238189D01*
X344486D02*
Y242125D01*
X342518Y240157D01*
X345142D01*
X346454D02*
X349078D01*
X350390Y242125D02*
X353014D01*
Y241469D01*
X350390Y238845D01*
Y238189D01*
X358268D02*
Y242125D01*
X359580Y240813D01*
X360892Y242125D01*
Y238189D01*
X362204Y241469D02*
X362859Y242125D01*
X364171D01*
X364827Y241469D01*
Y238845D01*
X364171Y238189D01*
X362859D01*
X362204Y238845D01*
Y241469D01*
X366139Y240157D02*
X368763D01*
X370075Y241469D02*
X370731Y242125D01*
X372043D01*
X372699Y241469D01*
Y240813D01*
X372043Y240157D01*
X371387D01*
X372043D01*
X372699Y239501D01*
Y238845D01*
X372043Y238189D01*
X370731D01*
X370075Y238845D01*
X318898Y265747D02*
Y262467D01*
X319554Y261811D01*
X320866D01*
X321521Y262467D01*
Y265747D01*
X322833Y261811D02*
Y264435D01*
X324145Y265747D01*
X325457Y264435D01*
Y261811D01*
Y263779D01*
X322833D01*
X326769Y261811D02*
Y265747D01*
X328737D01*
X329393Y265091D01*
Y263779D01*
X328737Y263123D01*
X326769D01*
X328081D02*
X329393Y261811D01*
X330705Y265747D02*
X333329D01*
X332017D01*
Y261811D01*
X336609D02*
Y265747D01*
X334641Y263779D01*
X337264D01*
X336614Y283463D02*
X337926D01*
X337270D01*
Y279528D01*
X336614D01*
X337926D01*
X342518D02*
X339894D01*
X342518Y282151D01*
Y282807D01*
X341862Y283463D01*
X340550D01*
X339894Y282807D01*
X346453D02*
X345798Y283463D01*
X344486D01*
X343830Y282807D01*
Y280184D01*
X344486Y279528D01*
X345798D01*
X346453Y280184D01*
X347765Y279528D02*
X349077D01*
X348421D01*
Y283463D01*
X347765Y282807D01*
X335301Y308398D02*
X334645Y309054D01*
X333333D01*
X332677Y308398D01*
Y307742D01*
X333333Y307086D01*
X334645D01*
X335301Y306430D01*
Y305774D01*
X334645Y305118D01*
X333333D01*
X332677Y305774D01*
X336613Y305118D02*
Y309054D01*
X338581D01*
X339237Y308398D01*
Y307086D01*
X338581Y306430D01*
X336613D01*
X340549Y309054D02*
X341861D01*
X341205D01*
Y305118D01*
X340549D01*
X341861D01*
X343828Y308398D02*
X344484Y309054D01*
X345796D01*
X346452Y308398D01*
Y305774D01*
X345796Y305118D01*
X344484D01*
X343828Y305774D01*
Y308398D01*
X347764Y304462D02*
X350388D01*
X353668Y305118D02*
Y309054D01*
X351700Y307086D01*
X354324D01*
X335301Y339894D02*
X334645Y340550D01*
X333333D01*
X332677Y339894D01*
Y339238D01*
X333333Y338582D01*
X334645D01*
X335301Y337926D01*
Y337270D01*
X334645Y336614D01*
X333333D01*
X332677Y337270D01*
X336613Y336614D02*
Y340550D01*
X338581D01*
X339237Y339894D01*
Y338582D01*
X338581Y337926D01*
X336613D01*
X340549Y340550D02*
X341861D01*
X341205D01*
Y336614D01*
X340549D01*
X341861D01*
X343828Y339894D02*
X344484Y340550D01*
X345796D01*
X346452Y339894D01*
Y337270D01*
X345796Y336614D01*
X344484D01*
X343828Y337270D01*
Y339894D01*
X347764Y335958D02*
X350388D01*
X354324Y336614D02*
X351700D01*
X354324Y339238D01*
Y339894D01*
X353668Y340550D01*
X352356D01*
X351700Y339894D01*
X29528Y7873D02*
X32151D01*
Y7217D01*
X29528Y4593D01*
Y3937D01*
X32151D01*
X49213Y7873D02*
X51836Y3937D01*
Y7873D02*
X49213Y3937D01*
X41339Y19684D02*
Y19028D01*
X42650Y17716D01*
X43962Y19028D01*
Y19684D01*
X42650Y17716D02*
Y15748D01*
X301181Y6561D02*
Y3937D01*
X298557Y6561D01*
X297901D01*
X297245Y5905D01*
Y4593D01*
X297901Y3937D01*
X301181Y10497D02*
Y7873D01*
X298557Y10497D01*
X297901D01*
X297245Y9841D01*
Y8529D01*
X297901Y7873D01*
X301181Y11808D02*
X300525D01*
Y12464D01*
X301181D01*
Y11808D01*
X297901Y15088D02*
X297245Y15744D01*
Y17056D01*
X297901Y17712D01*
X300525D01*
X301181Y17056D01*
Y15744D01*
X300525Y15088D01*
X297901D01*
X297245Y21648D02*
X297901Y20336D01*
X299213Y19024D01*
X300525D01*
X301181Y19680D01*
Y20992D01*
X300525Y21648D01*
X299869D01*
X299213Y20992D01*
Y19024D01*
X301181Y22960D02*
X300525D01*
Y23616D01*
X301181D01*
Y22960D01*
Y26239D02*
Y27551D01*
Y26895D01*
X297245D01*
X297901Y26239D01*
X297245Y32143D02*
Y29519D01*
X299213D01*
X298557Y30831D01*
Y31487D01*
X299213Y32143D01*
X300525D01*
X301181Y31487D01*
Y30175D01*
X300525Y29519D01*
X307087Y3937D02*
X304463D01*
X303151Y5249D01*
X304463Y6561D01*
X307087D01*
X305119D01*
Y3937D01*
X307087Y9841D02*
Y8529D01*
X306431Y7873D01*
X305119D01*
X304463Y8529D01*
Y9841D01*
X305119Y10497D01*
X305775D01*
Y7873D01*
X304463Y11808D02*
X307087D01*
X305775D01*
X305119Y12464D01*
X304463Y13120D01*
Y13776D01*
X307087Y16400D02*
Y17712D01*
X306431Y18368D01*
X305119D01*
X304463Y17712D01*
Y16400D01*
X305119Y15744D01*
X306431D01*
X307087Y16400D01*
X304463Y19680D02*
X307087Y20992D01*
X304463Y22304D01*
Y24272D02*
Y25584D01*
X305119Y26239D01*
X307087D01*
Y24272D01*
X306431Y23616D01*
X305775Y24272D01*
Y26239D01*
X307087Y27551D02*
Y28863D01*
Y28207D01*
X303151D01*
Y27551D01*
X304463Y34767D02*
X307087Y36079D01*
X304463Y37391D01*
X307087Y38703D02*
Y40015D01*
Y39359D01*
X303151D01*
X303807Y38703D01*
X307087Y41982D02*
X306431D01*
Y42638D01*
X307087D01*
Y41982D01*
X303807Y45262D02*
X303151Y45918D01*
Y47230D01*
X303807Y47886D01*
X306431D01*
X307087Y47230D01*
Y45918D01*
X306431Y45262D01*
X303807D01*
X309056Y3937D02*
X311680D01*
X312992Y5249D01*
X311680Y6561D01*
X309056D01*
X310368Y8529D02*
Y9841D01*
X311024Y10497D01*
X312992D01*
Y8529D01*
X312336Y7873D01*
X311680Y8529D01*
Y10497D01*
X312992Y11808D02*
Y13120D01*
Y12464D01*
X309056D01*
Y11808D01*
X312992Y17056D02*
Y15744D01*
X312336Y15088D01*
X311024D01*
X310368Y15744D01*
Y17056D01*
X311024Y17712D01*
X311680D01*
Y15088D01*
X312992Y19024D02*
X310368D01*
Y20992D01*
X311024Y21648D01*
X312992D01*
X309712Y23616D02*
X310368D01*
Y22960D01*
Y24272D01*
Y23616D01*
X312336D01*
X312992Y24272D01*
Y26239D02*
Y27551D01*
Y26895D01*
X310368D01*
Y26239D01*
X312992Y29519D02*
X310368D01*
Y31487D01*
X311024Y32143D01*
X312992D01*
Y37391D02*
X309056D01*
Y39359D01*
X309712Y40015D01*
X311024D01*
X311680Y39359D01*
Y37391D01*
X310368Y41326D02*
X312336D01*
X312992Y41982D01*
Y43950D01*
X313648D01*
X314304Y43294D01*
Y42638D01*
X312992Y43950D02*
X310368D01*
X314962Y3937D02*
X318898D01*
X316930D01*
Y6561D01*
X314962D01*
X318898D01*
X314962Y10497D02*
Y7873D01*
X318898D01*
Y10497D01*
X316930Y7873D02*
Y9185D01*
Y11808D02*
Y14432D01*
X318898Y15744D02*
X316274D01*
X314962Y17056D01*
X316274Y18368D01*
X318898D01*
X316930D01*
Y15744D01*
X316274Y19680D02*
X318898D01*
X317586D01*
X316930Y20336D01*
X316274Y20992D01*
Y21648D01*
Y26239D02*
Y24272D01*
X316930Y23616D01*
X318242D01*
X318898Y24272D01*
Y26239D01*
X49213Y362205D02*
Y363517D01*
Y362861D01*
X45277D01*
X45933Y362205D01*
Y365484D02*
X45277Y366141D01*
Y367452D01*
X45933Y368108D01*
X48557D01*
X49213Y367452D01*
Y366141D01*
X48557Y365484D01*
X45933D01*
X47245Y369420D02*
Y372044D01*
X49213Y375980D02*
Y373356D01*
X46589Y375980D01*
X45933D01*
X45277Y375324D01*
Y374012D01*
X45933Y373356D01*
Y377292D02*
X45277Y377948D01*
Y379260D01*
X45933Y379915D01*
X48557D01*
X49213Y379260D01*
Y377948D01*
X48557Y377292D01*
X45933D01*
X45277Y381227D02*
X47901D01*
X49213Y382539D01*
X47901Y383851D01*
X45277D01*
X67586Y364828D02*
X66930Y364173D01*
Y362861D01*
X67586Y362205D01*
X70210D01*
X70866Y362861D01*
Y364173D01*
X70210Y364828D01*
X68898D01*
Y363517D01*
X70866Y366141D02*
X66930D01*
X70866Y368764D01*
X66930D01*
Y370076D02*
X70866D01*
Y372044D01*
X70210Y372700D01*
X67586D01*
X66930Y372044D01*
Y370076D01*
X53150Y389762D02*
Y385827D01*
X55117D01*
X55773Y386483D01*
Y387139D01*
X55117Y387795D01*
X53150D01*
X55117D01*
X55773Y388451D01*
Y389107D01*
X55117Y389762D01*
X53150D01*
X57085Y385827D02*
Y388451D01*
X58397Y389762D01*
X59709Y388451D01*
Y385827D01*
Y387795D01*
X57085D01*
X61021Y389762D02*
X63645D01*
X62333D01*
Y385827D01*
X31496Y389763D02*
X34120D01*
X32808Y391075D02*
Y388451D01*
X3937Y338581D02*
Y335958D01*
X5249Y334646D01*
X6561Y335958D01*
Y338581D01*
X7873D02*
Y334646D01*
X9841D01*
X10497Y335302D01*
Y335958D01*
X9841Y336613D01*
X7873D01*
X9841D01*
X10497Y337269D01*
Y337926D01*
X9841Y338581D01*
X7873D01*
X11808Y334646D02*
Y337269D01*
X13120Y338581D01*
X14432Y337269D01*
Y334646D01*
Y336613D01*
X11808D01*
X15744Y338581D02*
X18368D01*
X17056D01*
Y334646D01*
X8529Y355642D02*
X7873Y356298D01*
X6561D01*
X5906Y355642D01*
Y353018D01*
X6561Y352362D01*
X7873D01*
X8529Y353018D01*
Y354330D01*
X7217D01*
X9841Y352362D02*
Y356298D01*
X12465Y352362D01*
Y356298D01*
X13777D02*
Y352362D01*
X15745D01*
X16401Y353018D01*
Y355642D01*
X15745Y356298D01*
X13777D01*
X341208Y210630D02*
X340552Y211286D01*
Y212598D01*
X341208Y213254D01*
X343832D01*
X344488Y212598D01*
Y211286D01*
X343832Y210630D01*
X341208D01*
X342520Y214566D02*
Y217190D01*
X344488Y220469D02*
X340552D01*
X342520Y218501D01*
Y221125D01*
Y222437D02*
Y225061D01*
X341208Y226373D02*
X340552Y227029D01*
Y228341D01*
X341208Y228997D01*
X341864D01*
X342520Y228341D01*
X343176Y228997D01*
X343832D01*
X344488Y228341D01*
Y227029D01*
X343832Y226373D01*
X343176D01*
X342520Y227029D01*
X341864Y226373D01*
X341208D01*
X342520Y227029D02*
Y228341D01*
X344488Y175197D02*
Y176509D01*
Y175853D01*
X340552D01*
X341208Y175197D01*
X342520Y178477D02*
Y181100D01*
X340552Y185036D02*
Y182412D01*
X342520D01*
X341864Y183724D01*
Y184380D01*
X342520Y185036D01*
X343832D01*
X344488Y184380D01*
Y183068D01*
X343832Y182412D01*
X342520Y186348D02*
Y188972D01*
X343832Y190284D02*
X344488Y190940D01*
Y192252D01*
X343832Y192908D01*
X341208D01*
X340552Y192252D01*
Y190940D01*
X341208Y190284D01*
X341864D01*
X342520Y190940D01*
Y192908D01*
X344488Y140419D02*
Y137795D01*
X341864Y140419D01*
X341208D01*
X340552Y139763D01*
Y138451D01*
X341208Y137795D01*
X342520Y141731D02*
Y144355D01*
X340552Y148291D02*
X341208Y146979D01*
X342520Y145667D01*
X343832D01*
X344488Y146323D01*
Y147635D01*
X343832Y148291D01*
X343176D01*
X342520Y147635D01*
Y145667D01*
Y149602D02*
Y152226D01*
X344488Y153538D02*
Y154850D01*
Y154194D01*
X340552D01*
X341208Y153538D01*
Y156818D02*
X340552Y157474D01*
Y158786D01*
X341208Y159442D01*
X343832D01*
X344488Y158786D01*
Y157474D01*
X343832Y156818D01*
X341208D01*
Y102362D02*
X340552Y103018D01*
Y104330D01*
X341208Y104986D01*
X341864D01*
X342520Y104330D01*
Y103674D01*
Y104330D01*
X343176Y104986D01*
X343832D01*
X344488Y104330D01*
Y103018D01*
X343832Y102362D01*
X342520Y106298D02*
Y108922D01*
X340552Y110234D02*
Y112857D01*
X341208D01*
X343832Y110234D01*
X344488D01*
X342520Y114169D02*
Y116793D01*
X344488Y118105D02*
Y119417D01*
Y118761D01*
X340552D01*
X341208Y118105D01*
X344488Y121385D02*
Y122697D01*
Y122041D01*
X340552D01*
X341208Y121385D01*
X350394Y89894D02*
X351050Y90550D01*
X352362D01*
X353017Y89894D01*
Y89238D01*
X352362Y88582D01*
X351706D01*
X352362D01*
X353017Y87926D01*
Y87270D01*
X352362Y86614D01*
X351050D01*
X350394Y87270D01*
X354329Y90550D02*
Y87926D01*
X355641Y86614D01*
X356953Y87926D01*
Y90550D01*
X358265Y89894D02*
X358921Y90550D01*
X360233D01*
X360889Y89894D01*
Y89238D01*
X360233Y88582D01*
X359577D01*
X360233D01*
X360889Y87926D01*
Y87270D01*
X360233Y86614D01*
X358921D01*
X358265Y87270D01*
X384514Y89894D02*
X383858Y90550D01*
X382546D01*
X381890Y89894D01*
Y87270D01*
X382546Y86614D01*
X383858D01*
X384514Y87270D01*
Y88582D01*
X383202D01*
X385825Y86614D02*
Y90550D01*
X388449Y86614D01*
Y90550D01*
X389761D02*
Y86614D01*
X391729D01*
X392385Y87270D01*
Y89894D01*
X391729Y90550D01*
X389761D01*
X377953Y86614D02*
X374017D01*
Y88582D01*
X374673Y89238D01*
X375985D01*
X376641Y88582D01*
Y86614D01*
Y87926D02*
X377953Y89238D01*
X374017Y90550D02*
X377953Y93174D01*
X374017D02*
X377953Y90550D01*
X366143Y86614D02*
Y89238D01*
Y87926D01*
X370079D01*
X366143Y90550D02*
X370079Y93174D01*
X366143D02*
X370079Y90550D01*
X329396Y56429D02*
X328740Y57085D01*
X327428D01*
X326772Y56429D01*
Y53806D01*
X327428Y53150D01*
X328740D01*
X329396Y53806D01*
Y55117D01*
X328084D01*
X330707Y53150D02*
Y57085D01*
X333331Y53150D01*
Y57085D01*
X334643D02*
Y53150D01*
X336611D01*
X337267Y53806D01*
Y56429D01*
X336611Y57085D01*
X334643D01*
X329396Y46587D02*
X328740Y47243D01*
X327428D01*
X326772Y46587D01*
Y45931D01*
X327428Y45275D01*
X328740D01*
X329396Y44619D01*
Y43963D01*
X328740Y43307D01*
X327428D01*
X326772Y43963D01*
X330707Y47243D02*
X332019D01*
X331363D01*
Y43307D01*
X330707D01*
X332019D01*
X333987D02*
Y47243D01*
X336611Y43307D01*
Y47243D01*
X327427Y36744D02*
X326771Y37400D01*
X325459D01*
X324803Y36744D01*
Y36088D01*
X325459Y35432D01*
X326771D01*
X327427Y34776D01*
Y34121D01*
X326771Y33465D01*
X325459D01*
X324803Y34121D01*
X330707Y37400D02*
X329395D01*
X328739Y36744D01*
Y34121D01*
X329395Y33465D01*
X330707D01*
X331363Y34121D01*
Y36744D01*
X330707Y37400D01*
X332675D02*
Y34121D01*
X333331Y33465D01*
X334643D01*
X335298Y34121D01*
Y37400D01*
X336610D02*
X339234D01*
X337922D01*
Y33465D01*
X329396Y26902D02*
X328740Y27558D01*
X327428D01*
X326772Y26902D01*
Y26246D01*
X327428Y25590D01*
X328740D01*
X329396Y24934D01*
Y24278D01*
X328740Y23622D01*
X327428D01*
X326772Y24278D01*
X333331Y26902D02*
X332675Y27558D01*
X331363D01*
X330707Y26902D01*
Y24278D01*
X331363Y23622D01*
X332675D01*
X333331Y24278D01*
X334643Y27558D02*
Y23622D01*
Y24934D01*
X337267Y27558D01*
X335299Y25590D01*
X337267Y23622D01*
X326772Y7217D02*
X327428Y7873D01*
X328740D01*
X329396Y7217D01*
Y6561D01*
X328740Y5905D01*
X328084D01*
X328740D01*
X329396Y5249D01*
Y4593D01*
X328740Y3937D01*
X327428D01*
X326772Y4593D01*
X330707Y7873D02*
Y5249D01*
X332019Y3937D01*
X333331Y5249D01*
Y7873D01*
X334643Y7217D02*
X335299Y7873D01*
X336611D01*
X337267Y7217D01*
Y6561D01*
X336611Y5905D01*
X335955D01*
X336611D01*
X337267Y5249D01*
Y4593D01*
X336611Y3937D01*
X335299D01*
X334643Y4593D01*
X333332Y17059D02*
X332677Y17715D01*
X331365D01*
X330709Y17059D01*
Y14435D01*
X331365Y13780D01*
X332677D01*
X333332Y14435D01*
X337268Y17059D02*
X336612Y17715D01*
X335300D01*
X334644Y17059D01*
Y16403D01*
X335300Y15747D01*
X336612D01*
X337268Y15091D01*
Y14435D01*
X336612Y13780D01*
X335300D01*
X334644Y14435D01*
X226378Y34776D02*
X227034Y35432D01*
X228346D01*
X229002Y34776D01*
Y34120D01*
X228346Y33464D01*
X227690D01*
X228346D01*
X229002Y32808D01*
Y32152D01*
X228346Y31496D01*
X227034D01*
X226378Y32152D01*
X218503Y31496D02*
Y35432D01*
X216535Y33464D01*
X219159D01*
X211285Y35432D02*
X208661D01*
Y33464D01*
X209973Y34120D01*
X210629D01*
X211285Y33464D01*
Y32152D01*
X210629Y31496D01*
X209317D01*
X208661Y32152D01*
X203411Y35432D02*
X202099Y34776D01*
X200787Y33464D01*
Y32152D01*
X201443Y31496D01*
X202755D01*
X203411Y32152D01*
Y32808D01*
X202755Y33464D01*
X200787D01*
X236876Y31496D02*
X234252D01*
X236876Y34120D01*
Y34776D01*
X236220Y35432D01*
X234908D01*
X234252Y34776D01*
X242126Y31496D02*
X243438D01*
X242782D01*
Y35432D01*
X242126Y34776D01*
X70866Y53148D02*
X73490D01*
Y52492D01*
X70866Y49869D01*
Y49213D01*
X87270Y53148D02*
X85958Y52492D01*
X84646Y51180D01*
Y49869D01*
X85302Y49213D01*
X86614D01*
X87270Y49869D01*
Y50524D01*
X86614Y51180D01*
X84646D01*
X104986Y53148D02*
X102362D01*
Y51180D01*
X103674Y51836D01*
X104330D01*
X104986Y51180D01*
Y49869D01*
X104330Y49213D01*
X103018D01*
X102362Y49869D01*
X120078Y49213D02*
Y53148D01*
X118110Y51180D01*
X120734D01*
X131890Y52492D02*
X132546Y53148D01*
X133858D01*
X134514Y52492D01*
Y49869D01*
X133858Y49213D01*
X132546D01*
X131890Y49869D01*
Y52492D01*
X149606Y49213D02*
X150918D01*
X150262D01*
Y53148D01*
X149606Y52492D01*
X166010Y49213D02*
X163386D01*
X166010Y51836D01*
Y52492D01*
X165354Y53148D01*
X164042D01*
X163386Y52492D01*
X179134D02*
X179790Y53148D01*
X181102D01*
X181758Y52492D01*
Y51836D01*
X181102Y51180D01*
X180446D01*
X181102D01*
X181758Y50524D01*
Y49869D01*
X181102Y49213D01*
X179790D01*
X179134Y49869D01*
X90551Y265747D02*
Y263123D01*
X91863Y261811D01*
X93175Y263123D01*
Y265747D01*
X94487D02*
Y261811D01*
X96455D01*
X97111Y262467D01*
Y263123D01*
X96455Y263779D01*
X94487D01*
X96455D01*
X97111Y264435D01*
Y265091D01*
X96455Y265747D01*
X94487D01*
X98423Y261811D02*
Y264435D01*
X99735Y265747D01*
X101047Y264435D01*
Y261811D01*
Y263779D01*
X98423D01*
X102358Y265747D02*
X104982D01*
X103670D01*
Y261811D01*
X90551Y259841D02*
X93175D01*
X91863D01*
Y255906D01*
X94487Y258529D02*
Y255906D01*
Y257217D01*
X95143Y257873D01*
X95799Y258529D01*
X96455D01*
X99079D02*
X100391D01*
X101047Y257873D01*
Y255906D01*
X99079D01*
X98423Y256561D01*
X99079Y257217D01*
X101047D01*
X102358Y255906D02*
Y258529D01*
X104326D01*
X104982Y257873D01*
Y255906D01*
X106294D02*
X108262D01*
X108918Y256561D01*
X108262Y257217D01*
X106950D01*
X106294Y257873D01*
X106950Y258529D01*
X108918D01*
X110230Y255906D02*
Y256561D01*
X110886D01*
Y255906D01*
X110230D01*
X134516Y289370D02*
X133860Y290026D01*
Y291338D01*
X134516Y291994D01*
X137139D01*
X137795Y291338D01*
Y290026D01*
X137139Y289370D01*
X134516D01*
X147638D02*
Y290682D01*
Y290026D01*
X143702D01*
X144358Y289370D01*
X157480Y291994D02*
Y289370D01*
X154857Y291994D01*
X154200D01*
X153545Y291338D01*
Y290026D01*
X154200Y289370D01*
X164043D02*
X163387Y290026D01*
Y291338D01*
X164043Y291994D01*
X164699D01*
X165355Y291338D01*
Y290682D01*
Y291338D01*
X166011Y291994D01*
X166667D01*
X167323Y291338D01*
Y290026D01*
X166667Y289370D01*
X183072Y315616D02*
Y312992D01*
X185040D01*
X184384Y314304D01*
Y314960D01*
X185040Y315616D01*
X186352D01*
X187008Y314960D01*
Y313648D01*
X186352Y312992D01*
X192915Y315616D02*
X193571Y314304D01*
X194883Y312992D01*
X196194D01*
X196850Y313648D01*
Y314960D01*
X196194Y315616D01*
X195538D01*
X194883Y314960D01*
Y312992D01*
X202757D02*
Y315616D01*
X203413D01*
X206037Y312992D01*
X206693D01*
X177165Y314960D02*
X173230D01*
X175198Y312992D01*
Y315616D01*
X221130Y318898D02*
X220474Y319554D01*
Y320866D01*
X221130Y321521D01*
X223753D01*
X224410Y320866D01*
Y319554D01*
X223753Y318898D01*
X221130D01*
X236878D02*
X236222Y319554D01*
Y320866D01*
X236878Y321521D01*
X237534D01*
X238190Y320866D01*
Y320210D01*
Y320866D01*
X238846Y321521D01*
X239502D01*
X240158Y320866D01*
Y319554D01*
X239502Y318898D01*
X255906D02*
Y320210D01*
Y319554D01*
X251970D01*
X252626Y318898D01*
X271654Y320866D02*
X267718D01*
X269686Y318898D01*
Y321521D01*
X287402D02*
Y318898D01*
X284778Y321521D01*
X284122D01*
X283466Y320866D01*
Y319554D01*
X284122Y318898D01*
X299214Y321521D02*
Y318898D01*
X301182D01*
X300526Y320210D01*
Y320866D01*
X301182Y321521D01*
X302494D01*
X303150Y320866D01*
Y319554D01*
X302494Y318898D01*
X316929D02*
X314305D01*
X312993Y320210D01*
X314305Y321521D01*
X316929D01*
X314961D01*
Y318898D01*
X316929Y322833D02*
X312993D01*
X314305Y324145D01*
X312993Y325457D01*
X316929D01*
Y326769D02*
X312993D01*
Y328737D01*
X313649Y329393D01*
X314961D01*
X315617Y328737D01*
Y326769D01*
X67585Y341863D02*
X66928Y342518D01*
X65617D01*
X64961Y341863D01*
Y339239D01*
X65617Y338583D01*
X66928D01*
X67585Y339239D01*
Y340551D01*
X66272D01*
X68896Y338583D02*
Y342518D01*
X71520Y338583D01*
Y342518D01*
X72832D02*
Y338583D01*
X74800D01*
X75456Y339239D01*
Y341863D01*
X74800Y342518D01*
X72832D01*
X79922Y387795D02*
Y390419D01*
X366799Y293962D02*
X366143Y293306D01*
Y291995D01*
X366799Y291339D01*
X367455D01*
X368111Y291995D01*
Y293306D01*
X368767Y293962D01*
X369423D01*
X370079Y293306D01*
Y291995D01*
X369423Y291339D01*
X366143Y295274D02*
X370079D01*
Y297242D01*
X369423Y297898D01*
X366799D01*
X366143Y297242D01*
Y295274D01*
X370079Y299210D02*
X367455D01*
X366143Y300522D01*
X367455Y301834D01*
X370079D01*
X368111D01*
Y299210D01*
X376642Y293962D02*
X375986Y293306D01*
Y291995D01*
X376642Y291339D01*
X377297D01*
X377953Y291995D01*
Y293306D01*
X378609Y293962D01*
X379265D01*
X379921Y293306D01*
Y291995D01*
X379265Y291339D01*
X376642Y297898D02*
X375986Y297242D01*
Y295930D01*
X376642Y295274D01*
X379265D01*
X379921Y295930D01*
Y297242D01*
X379265Y297898D01*
X375986Y299210D02*
X379921D01*
Y301834D01*
X386484Y293962D02*
X385828Y293306D01*
Y291995D01*
X386484Y291339D01*
X389108D01*
X389764Y291995D01*
Y293306D01*
X389108Y293962D01*
X387796D01*
Y292651D01*
X389764Y295274D02*
X385828D01*
X389764Y297898D01*
X385828D01*
Y299210D02*
X389764D01*
Y301178D01*
X389108Y301834D01*
X386484D01*
X385828Y301178D01*
Y299210D01*
X354988Y291339D02*
X354332Y291995D01*
Y293306D01*
X354988Y293962D01*
X355644D01*
X356300Y293306D01*
Y292651D01*
Y293306D01*
X356956Y293962D01*
X357612D01*
X358268Y293306D01*
Y291995D01*
X357612Y291339D01*
X354332Y295274D02*
X356956D01*
X358268Y296586D01*
X356956Y297898D01*
X354332D01*
X354988Y299210D02*
X354332Y299866D01*
Y301178D01*
X354988Y301834D01*
X355644D01*
X356300Y301178D01*
Y300522D01*
Y301178D01*
X356956Y301834D01*
X357612D01*
X358268Y301178D01*
Y299866D01*
X357612Y299210D01*
X372047Y250000D02*
Y253936D01*
X374015D01*
X374671Y253280D01*
Y251968D01*
X374015Y251312D01*
X372047D01*
X373359D02*
X374671Y250000D01*
X375983Y253936D02*
X378607Y250000D01*
Y253936D02*
X375983Y250000D01*
X384514Y253280D02*
X383858Y253936D01*
X382546D01*
X381890Y253280D01*
Y250656D01*
X382546Y250000D01*
X383858D01*
X384514Y250656D01*
Y251968D01*
X383202D01*
X385825Y250000D02*
Y253936D01*
X388449Y250000D01*
Y253936D01*
X389761D02*
Y250000D01*
X391729D01*
X392385Y250656D01*
Y253280D01*
X391729Y253936D01*
X389761D01*
X362205D02*
X364828D01*
X363517D01*
Y250000D01*
X366141Y253936D02*
X368764Y250000D01*
Y253936D02*
X366141Y250000D01*
X348425Y253280D02*
X349081Y253936D01*
X350393D01*
X351049Y253280D01*
Y252624D01*
X350393Y251968D01*
X349737D01*
X350393D01*
X351049Y251312D01*
Y250656D01*
X350393Y250000D01*
X349081D01*
X348425Y250656D01*
X352361Y253936D02*
Y251312D01*
X353673Y250000D01*
X354985Y251312D01*
Y253936D01*
X356297Y253280D02*
X356953Y253936D01*
X358265D01*
X358921Y253280D01*
Y252624D01*
X358265Y251968D01*
X357609D01*
X358265D01*
X358921Y251312D01*
Y250656D01*
X358265Y250000D01*
X356953D01*
X356297Y250656D01*
X59712Y40025D02*
X59056Y39369D01*
Y38058D01*
X59712Y37402D01*
X62336D01*
X62992Y38058D01*
Y39369D01*
X62336Y40025D01*
X61024D01*
Y38713D01*
X62992Y43305D02*
Y41993D01*
X62336Y41337D01*
X61024D01*
X60368Y41993D01*
Y43305D01*
X61024Y43961D01*
X61680D01*
Y41337D01*
X62992Y45273D02*
X60368D01*
Y47241D01*
X61024Y47897D01*
X62992D01*
Y51177D02*
Y49865D01*
X62336Y49209D01*
X61024D01*
X60368Y49865D01*
Y51177D01*
X61024Y51833D01*
X61680D01*
Y49209D01*
X60368Y53145D02*
X62992D01*
X61680D01*
X61024Y53800D01*
X60368Y54456D01*
Y55112D01*
Y57736D02*
Y59048D01*
X61024Y59704D01*
X62992D01*
Y57736D01*
X62336Y57080D01*
X61680Y57736D01*
Y59704D01*
X62992Y61016D02*
Y62328D01*
Y61672D01*
X59056D01*
Y61016D01*
X64304Y68231D02*
X60368D01*
Y70199D01*
X61024Y70855D01*
X62336D01*
X62992Y70199D01*
Y68231D01*
X60368Y72167D02*
X62336D01*
X62992Y72823D01*
Y74791D01*
X60368D01*
Y76103D02*
X62992D01*
X61680D01*
X61024Y76759D01*
X60368Y77415D01*
Y78071D01*
X64304Y80039D02*
X60368D01*
Y82007D01*
X61024Y82663D01*
X62336D01*
X62992Y82007D01*
Y80039D01*
Y84630D02*
Y85942D01*
X62336Y86598D01*
X61024D01*
X60368Y85942D01*
Y84630D01*
X61024Y83974D01*
X62336D01*
X62992Y84630D01*
Y87910D02*
Y89878D01*
X62336Y90534D01*
X61680Y89878D01*
Y88566D01*
X61024Y87910D01*
X60368Y88566D01*
Y90534D01*
X62992Y93814D02*
Y92502D01*
X62336Y91846D01*
X61024D01*
X60368Y92502D01*
Y93814D01*
X61024Y94470D01*
X61680D01*
Y91846D01*
X62992Y99717D02*
Y101685D01*
X62336Y102341D01*
X61680Y101685D01*
Y100373D01*
X61024Y99717D01*
X60368Y100373D01*
Y102341D01*
Y103653D02*
X62336D01*
X62992Y104309D01*
X62336Y104965D01*
X62992Y105621D01*
X62336Y106277D01*
X60368D01*
X62992Y107589D02*
Y108901D01*
Y108245D01*
X60368D01*
Y107589D01*
X59712Y111525D02*
X60368D01*
Y110869D01*
Y112181D01*
Y111525D01*
X62336D01*
X62992Y112181D01*
X60368Y116772D02*
Y114804D01*
X61024Y114148D01*
X62336D01*
X62992Y114804D01*
Y116772D01*
X59056Y118084D02*
X62992D01*
X61024D01*
X60368Y118740D01*
Y120052D01*
X61024Y120708D01*
X62992D01*
Y123988D02*
Y122676D01*
X62336Y122020D01*
X61024D01*
X60368Y122676D01*
Y123988D01*
X61024Y124644D01*
X61680D01*
Y122020D01*
X62992Y125956D02*
Y127924D01*
X62336Y128579D01*
X61680Y127924D01*
Y126612D01*
X61024Y125956D01*
X60368Y126612D01*
Y128579D01*
X0Y0D02*
Y393701D01*
X393701D01*
Y0D02*
Y393701D01*
X0Y0D02*
X393701D01*
D114*
X40185Y7874D02*
G03*
X40185Y7874I-2784J0D01*
G01*
X350669Y69095D02*
X393976D01*
X350669D02*
Y83858D01*
Y81432D02*
X393976D01*
Y69095D02*
Y83858D01*
X350669D02*
X393976D01*
X351299Y256890D02*
X394606D01*
X351299D02*
Y271654D01*
Y269227D02*
X394606D01*
Y256890D02*
Y271654D01*
X351299D02*
X394606D01*
X333425Y311024D02*
X395000D01*
X333425D02*
Y325787D01*
X395000D01*
Y311024D02*
Y325787D01*
X333425Y313976D02*
X395000D01*
X333110Y342520D02*
X394685D01*
X333110D02*
Y357283D01*
X394685D01*
Y342520D02*
Y357283D01*
X333110Y345472D02*
X394685D01*
X265748Y-827D02*
Y60748D01*
X280512D01*
Y-827D02*
Y60748D01*
X265748Y-827D02*
X280512D01*
X268701D02*
Y60748D01*
X340551Y-984D02*
Y60590D01*
X355315D01*
Y-984D02*
Y60590D01*
X340551Y-984D02*
X355315D01*
X343504D02*
Y60590D01*
X351299Y274606D02*
X394606D01*
X351299D02*
Y289370D01*
Y286943D02*
X394606D01*
Y274606D02*
Y289370D01*
X351299D02*
X394606D01*
X-905Y146653D02*
X42402D01*
Y131890D02*
Y146653D01*
X-905Y134317D02*
X42402D01*
X-905Y131890D02*
Y146653D01*
Y131890D02*
X42402D01*
D115*
X302236Y81457D02*
G03*
X302236Y81457I-787J0D01*
G01*
X33169Y328150D02*
G03*
X33169Y328150I-492J0D01*
G01*
X35138Y292717D02*
G03*
X35138Y292717I-492J0D01*
G01*
X317224Y214272D02*
G03*
X317224Y214272I-492J0D01*
G01*
X316831Y166240D02*
G03*
X316831Y166240I-492J0D01*
G01*
X317618Y113091D02*
G03*
X317618Y113091I-492J0D01*
G01*
X162303Y258465D02*
G03*
X162303Y258465I-492J0D01*
G01*
D116*
X171752Y254232D02*
G03*
X171752Y254232I-1181J0D01*
G01*
D117*
X267742Y156462D02*
X271142D01*
X267742Y160862D02*
X271142D01*
X261142D02*
X264542D01*
X261142Y156462D02*
X264542D01*
X261142D02*
Y160862D01*
X271142Y156462D02*
Y160862D01*
X249331D02*
X252731D01*
X249331Y156462D02*
X252731D01*
X255931D02*
X259331D01*
X255931Y160862D02*
X259331D01*
Y156462D02*
Y160862D01*
X249331Y156462D02*
Y160862D01*
X87520Y301413D02*
X90920D01*
X87520Y297013D02*
X90920D01*
X94120D02*
X97520D01*
X94120Y301413D02*
X97520D01*
Y297013D02*
Y301413D01*
X87520Y297013D02*
Y301413D01*
X77397Y167742D02*
Y171142D01*
X72997Y167742D02*
Y171142D01*
Y161142D02*
Y164542D01*
X77397Y161142D02*
Y164542D01*
X72997Y161142D02*
X77397D01*
X72997Y171142D02*
X77397D01*
X95197Y249444D02*
X98597D01*
X95197Y245044D02*
X98597D01*
X101797D02*
X105197D01*
X101797Y249444D02*
X105197D01*
Y245044D02*
Y249444D01*
X95197Y245044D02*
Y249444D01*
X103268Y301413D02*
X106668D01*
X103268Y297013D02*
X106668D01*
X109868D02*
X113268D01*
X109868Y301413D02*
X113268D01*
Y297013D02*
Y301413D01*
X103268Y297013D02*
Y301413D01*
X114882Y275035D02*
X118282D01*
X114882Y270635D02*
X118282D01*
X121482D02*
X124882D01*
X121482Y275035D02*
X124882D01*
Y270635D02*
Y275035D01*
X114882Y270635D02*
Y275035D01*
X248981Y19016D02*
Y22416D01*
X253381Y19016D02*
Y22416D01*
Y25616D02*
Y29016D01*
X248981Y25616D02*
Y29016D01*
X253381D01*
X248981Y19016D02*
X253381D01*
X241107D02*
Y22416D01*
X245507Y19016D02*
Y22416D01*
Y25616D02*
Y29016D01*
X241107Y25616D02*
Y29016D01*
X245507D01*
X241107Y19016D02*
X245507D01*
X233233D02*
Y22416D01*
X237633Y19016D02*
Y22416D01*
Y25616D02*
Y29016D01*
X233233Y25616D02*
Y29016D01*
X237633D01*
X233233Y19016D02*
X237633D01*
X226146Y345394D02*
Y348794D01*
X230546Y345394D02*
Y348794D01*
Y351994D02*
Y355394D01*
X226146Y351994D02*
Y355394D01*
X230546D01*
X226146Y345394D02*
X230546D01*
X241894D02*
Y348794D01*
X246294Y345394D02*
Y348794D01*
Y351994D02*
Y355394D01*
X241894Y351994D02*
Y355394D01*
X246294D01*
X241894Y345394D02*
X246294D01*
X10261Y71028D02*
X13661D01*
X10261Y75428D02*
X13661D01*
X3661D02*
X7061D01*
X3661Y71028D02*
X7061D01*
X3661D02*
Y75428D01*
X13661Y71028D02*
Y75428D01*
X10261Y61186D02*
X13661D01*
X10261Y65586D02*
X13661D01*
X3661D02*
X7061D01*
X3661Y61186D02*
X7061D01*
X3661D02*
Y65586D01*
X13661Y61186D02*
Y65586D01*
X10261Y51343D02*
X13661D01*
X10261Y55743D02*
X13661D01*
X3661D02*
X7061D01*
X3661Y51343D02*
X7061D01*
X3661D02*
Y55743D01*
X13661Y51343D02*
Y55743D01*
X10261Y41501D02*
X13661D01*
X10261Y45901D02*
X13661D01*
X3661D02*
X7061D01*
X3661Y41501D02*
X7061D01*
X3661D02*
Y45901D01*
X13661Y41501D02*
Y45901D01*
X225359Y19016D02*
Y22416D01*
X229759Y19016D02*
Y22416D01*
Y25616D02*
Y29016D01*
X225359Y25616D02*
Y29016D01*
X229759D01*
X225359Y19016D02*
X229759D01*
X215516Y19260D02*
Y22660D01*
X219917Y19260D02*
Y22660D01*
Y25860D02*
Y29260D01*
X215516Y25860D02*
Y29260D01*
X219917D01*
X215516Y19260D02*
X219917D01*
X207643D02*
Y22660D01*
X212042Y19260D02*
Y22660D01*
Y25860D02*
Y29260D01*
X207643Y25860D02*
Y29260D01*
X212042D01*
X207643Y19260D02*
X212042D01*
X199768D02*
Y22660D01*
X204169Y19260D02*
Y22660D01*
Y25860D02*
Y29260D01*
X199768Y25860D02*
Y29260D01*
X204169D01*
X199768Y19260D02*
X204169D01*
X257643Y345394D02*
Y348794D01*
X262043Y345394D02*
Y348794D01*
Y351994D02*
Y355394D01*
X257643Y351994D02*
Y355394D01*
X262043D01*
X257643Y345394D02*
X262043D01*
X273391D02*
Y348794D01*
X277791Y345394D02*
Y348794D01*
Y351994D02*
Y355394D01*
X273391Y351994D02*
Y355394D01*
X277791D01*
X273391Y345394D02*
X277791D01*
X10261Y117091D02*
X13661D01*
X10261Y121491D02*
X13661D01*
X3661D02*
X7061D01*
X3661Y117091D02*
X7061D01*
X3661D02*
Y121491D01*
X13661Y117091D02*
Y121491D01*
X10261Y107249D02*
X13661D01*
X10261Y111649D02*
X13661D01*
X3661D02*
X7061D01*
X3661Y107249D02*
X7061D01*
X3661D02*
Y111649D01*
X13661Y107249D02*
Y111649D01*
X10261Y97406D02*
X13661D01*
X10261Y101806D02*
X13661D01*
X3661D02*
X7061D01*
X3661Y97406D02*
X7061D01*
X3661D02*
Y101806D01*
X13661Y97406D02*
Y101806D01*
X10261Y87564D02*
X13661D01*
X10261Y91964D02*
X13661D01*
X3661D02*
X7061D01*
X3661Y87564D02*
X7061D01*
X3661D02*
Y91964D01*
X13661Y87564D02*
Y91964D01*
X191894Y19260D02*
Y22660D01*
X196294Y19260D02*
Y22660D01*
Y25860D02*
Y29260D01*
X191894Y25860D02*
Y29260D01*
X196294D01*
X191894Y19260D02*
X196294D01*
X289139Y345394D02*
Y348794D01*
X293539Y345394D02*
Y348794D01*
Y351994D02*
Y355394D01*
X289139Y351994D02*
Y355394D01*
X293539D01*
X289139Y345394D02*
X293539D01*
X304887D02*
Y348794D01*
X309287Y345394D02*
Y348794D01*
Y351994D02*
Y355394D01*
X304887Y351994D02*
Y355394D01*
X309287D01*
X304887Y345394D02*
X309287D01*
X34614Y223853D02*
X38014D01*
X34614Y219454D02*
X38014D01*
X41214D02*
X44614D01*
X41214Y223853D02*
X44614D01*
Y219454D02*
Y223853D01*
X34614Y219454D02*
Y223853D01*
X259173Y106924D02*
X262573D01*
X259173Y102524D02*
X262573D01*
X265773D02*
X269173D01*
X265773Y106924D02*
X269173D01*
Y102524D02*
Y106924D01*
X259173Y102524D02*
Y106924D01*
X265773Y96619D02*
X269173D01*
X265773Y101019D02*
X269173D01*
X259173D02*
X262573D01*
X259173Y96619D02*
X262573D01*
X259173D02*
Y101019D01*
X269173Y96619D02*
Y101019D01*
X265773Y84808D02*
X269173D01*
X265773Y89208D02*
X269173D01*
X259173D02*
X262573D01*
X259173Y84808D02*
X262573D01*
X259173D02*
Y89208D01*
X269173Y84808D02*
Y89208D01*
X259173Y81334D02*
X262573D01*
X259173Y76934D02*
X262573D01*
X265773D02*
X269173D01*
X265773Y81334D02*
X269173D01*
Y76934D02*
Y81334D01*
X259173Y76934D02*
Y81334D01*
X71098Y330340D02*
Y333740D01*
X66698Y330340D02*
Y333740D01*
Y323740D02*
Y327140D01*
X71098Y323740D02*
Y327140D01*
X66698Y323740D02*
X71098D01*
X66698Y333740D02*
X71098D01*
X63224Y314592D02*
Y317992D01*
X58824Y314592D02*
Y317992D01*
Y307992D02*
Y311392D01*
X63224Y307992D02*
Y311392D01*
X58824Y307992D02*
X63224D01*
X58824Y317992D02*
X63224D01*
X64729Y307992D02*
Y311392D01*
X69129Y307992D02*
Y311392D01*
Y314592D02*
Y317992D01*
X64729Y314592D02*
Y317992D01*
X69129D01*
X64729Y307992D02*
X69129D01*
X126540Y317835D02*
Y321235D01*
X130940Y317835D02*
Y321235D01*
Y324435D02*
Y327835D01*
X126540Y324435D02*
Y327835D01*
X130940D01*
X126540Y317835D02*
X130940D01*
X138027Y324435D02*
Y327835D01*
X133627Y324435D02*
Y327835D01*
Y317835D02*
Y321235D01*
X138027Y317835D02*
Y321235D01*
X133627Y317835D02*
X138027D01*
X133627Y327835D02*
X138027D01*
X131658Y34370D02*
Y37770D01*
X136058Y34370D02*
Y37770D01*
Y40970D02*
Y44370D01*
X131658Y40970D02*
Y44370D01*
X136058D01*
X131658Y34370D02*
X136058D01*
X147406D02*
Y37770D01*
X151806Y34370D02*
Y37770D01*
Y40970D02*
Y44370D01*
X147406Y40970D02*
Y44370D01*
X151806D01*
X147406Y34370D02*
X151806D01*
X163154D02*
Y37770D01*
X167554Y34370D02*
Y37770D01*
Y40970D02*
Y44370D01*
X163154Y40970D02*
Y44370D01*
X167554D01*
X163154Y34370D02*
X167554D01*
X178902D02*
Y37770D01*
X183302Y34370D02*
Y37770D01*
Y40970D02*
Y44370D01*
X178902Y40970D02*
Y44370D01*
X183302D01*
X178902Y34370D02*
X183302D01*
X115910Y34370D02*
Y37770D01*
X120310Y34370D02*
Y37770D01*
Y40970D02*
Y44370D01*
X115910Y40970D02*
Y44370D01*
X120310D01*
X115910Y34370D02*
X120310D01*
X100162Y34370D02*
Y37770D01*
X104562Y34370D02*
Y37770D01*
Y40970D02*
Y44370D01*
X100162Y40970D02*
Y44370D01*
X104562D01*
X100162Y34370D02*
X104562D01*
X84414D02*
Y37770D01*
X88814Y34370D02*
Y37770D01*
Y40970D02*
Y44370D01*
X84414Y40970D02*
Y44370D01*
X88814D01*
X84414Y34370D02*
X88814D01*
X68666Y34370D02*
Y37770D01*
X73066Y34370D02*
Y37770D01*
Y40970D02*
Y44370D01*
X68666Y40970D02*
Y44370D01*
X73066D01*
X68666Y34370D02*
X73066D01*
X94975Y137652D02*
Y141052D01*
X90575Y137652D02*
Y141052D01*
Y131052D02*
Y134452D01*
X94975Y131052D02*
Y134452D01*
X90575Y131052D02*
X94975D01*
X90575Y141052D02*
X94975D01*
X86707Y137652D02*
Y141052D01*
X82307Y137652D02*
Y141052D01*
Y131052D02*
Y134452D01*
X86707Y131052D02*
Y134452D01*
X82307Y131052D02*
X86707D01*
X82307Y141052D02*
X86707D01*
X153312Y67835D02*
Y71235D01*
X157712Y67835D02*
Y71235D01*
Y74435D02*
Y77835D01*
X153312Y74435D02*
Y77835D01*
X157712D01*
X153312Y67835D02*
X157712D01*
X159217D02*
Y71235D01*
X163617Y67835D02*
Y71235D01*
Y74435D02*
Y77835D01*
X159217Y74435D02*
Y77835D01*
X163617D01*
X159217Y67835D02*
X163617D01*
X230546Y294907D02*
Y298307D01*
X226146Y294907D02*
Y298307D01*
Y288307D02*
Y291707D01*
X230546Y288307D02*
Y291707D01*
X226146Y288307D02*
X230546D01*
X226146Y298307D02*
X230546D01*
X238421Y294907D02*
Y298307D01*
X234020Y294907D02*
Y298307D01*
Y288307D02*
Y291707D01*
X238421Y288307D02*
Y291707D01*
X234020Y288307D02*
X238421D01*
X234020Y298307D02*
X238421D01*
X123784Y73740D02*
Y77140D01*
X128184Y73740D02*
Y77140D01*
Y80340D02*
Y83740D01*
X123784Y80340D02*
Y83740D01*
X128184D01*
X123784Y73740D02*
X128184D01*
X316698Y355236D02*
Y358636D01*
X321098Y355236D02*
Y358636D01*
Y361836D02*
Y365236D01*
X316698Y361836D02*
Y365236D01*
X321098D01*
X316698Y355236D02*
X321098D01*
X148057Y214335D02*
X151457D01*
X148057Y218735D02*
X151457D01*
X141457D02*
X144857D01*
X141457Y214335D02*
X144857D01*
X141457D02*
Y218735D01*
X151457Y214335D02*
Y218735D01*
X250512Y184090D02*
X253912D01*
X250512Y179690D02*
X253912D01*
X257112D02*
X260512D01*
X257112Y184090D02*
X260512D01*
Y179690D02*
Y184090D01*
X250512Y179690D02*
Y184090D01*
D118*
X24421Y200206D02*
Y206004D01*
Y240650D02*
Y246448D01*
X5611D02*
X15847D01*
X5611Y200206D02*
X15847D01*
X22933D02*
X24421D01*
X249909Y123862D02*
X254331Y119441D01*
X237598Y110630D02*
Y134252D01*
X271063D01*
Y110630D02*
Y134252D01*
X237598Y110630D02*
X271063D01*
X254331Y125252D02*
Y131441D01*
Y113441D02*
Y119441D01*
X244488Y113441D02*
X254331D01*
X254488D02*
X264331D01*
X244488Y131441D02*
X254331D01*
X254488D02*
X264331D01*
D119*
X287669Y93858D02*
Y96220D01*
X286488Y95039D02*
X288850D01*
D120*
X100000Y167519D02*
X102362D01*
Y164764D02*
Y167519D01*
Y147441D02*
Y150197D01*
X100000Y147441D02*
X102362D01*
X82677D02*
X85040D01*
X82677D02*
Y150197D01*
Y164764D02*
Y167519D01*
X85040D01*
D121*
X27335Y245384D02*
Y244098D01*
X27478Y243670D01*
X27620Y243527D01*
X27906Y243384D01*
X28335D01*
X28620Y243527D01*
X28763Y243670D01*
X28906Y244098D01*
Y245384D01*
X25907D01*
X28335Y242713D02*
X28477Y242427D01*
X28906Y241999D01*
X25907D01*
X27275Y205654D02*
Y204368D01*
X27418Y203940D01*
X27560Y203797D01*
X27846Y203654D01*
X28275D01*
X28560Y203797D01*
X28703Y203940D01*
X28846Y204368D01*
Y205654D01*
X25846D01*
X28846Y202269D02*
X28703Y202697D01*
X28417Y202840D01*
X28132D01*
X27846Y202697D01*
X27703Y202412D01*
X27560Y201840D01*
X27418Y201412D01*
X27132Y201126D01*
X26846Y200984D01*
X26418D01*
X26132Y201126D01*
X25989Y201269D01*
X25846Y201698D01*
Y202269D01*
X25989Y202697D01*
X26132Y202840D01*
X26418Y202983D01*
X26846D01*
X27132Y202840D01*
X27418Y202555D01*
X27560Y202126D01*
X27703Y201555D01*
X27846Y201269D01*
X28132Y201126D01*
X28417D01*
X28703Y201269D01*
X28846Y201698D01*
Y202269D01*
D122*
X45472Y41201D02*
Y42513D01*
Y41857D01*
X41537D01*
X42193Y41201D01*
X28367Y31889D02*
Y30577D01*
X29023Y29921D01*
X31647D01*
X32303Y30577D01*
Y31889D01*
X31647Y32545D01*
X29023D01*
X28367Y31889D01*
X32303Y33857D02*
X28367D01*
X32303Y36481D01*
X28367D01*
X45472Y53825D02*
Y51201D01*
X42849Y53825D01*
X42193D01*
X41537Y53169D01*
Y51857D01*
X42193Y51201D01*
Y61201D02*
X41537Y61857D01*
Y63169D01*
X42193Y63825D01*
X42849D01*
X43505Y63169D01*
Y62513D01*
Y63169D01*
X44161Y63825D01*
X44816D01*
X45472Y63169D01*
Y61857D01*
X44816Y61201D01*
X45472Y73169D02*
X41537D01*
X43505Y71201D01*
Y73825D01*
X45472Y86949D02*
Y88261D01*
Y87605D01*
X41537D01*
X42193Y86949D01*
X27560Y88582D02*
Y87270D01*
X28216Y86614D01*
X30840D01*
X31496Y87270D01*
Y88582D01*
X30840Y89238D01*
X28216D01*
X27560Y88582D01*
X31496Y90550D02*
X27560D01*
X31496Y93174D01*
X27560D01*
X45472Y99573D02*
Y96949D01*
X42849Y99573D01*
X42193D01*
X41537Y98917D01*
Y97605D01*
X42193Y96949D01*
Y106949D02*
X41537Y107605D01*
Y108917D01*
X42193Y109573D01*
X42849D01*
X43505Y108917D01*
Y108261D01*
Y108917D01*
X44161Y109573D01*
X44816D01*
X45472Y108917D01*
Y107605D01*
X44816Y106949D01*
X45472Y118917D02*
X41537D01*
X43505Y116949D01*
Y119573D01*
D123*
X62992Y136122D02*
D03*
M02*
