M48
;Layer_Color=9474304
;FILE_FORMAT=2:5
INCH,LZ
;TYPE=PLATED
T1F00S00C0.00984
T2F00S00C0.03000
T3F00S00C0.03543
T4F00S00C0.03937
T5F00S00C0.04000
T6F00S00C0.05118
T7F00S00C0.11811
%
T01
X0026772Y0043701
X0026929Y0053701
X0052973Y003876
X0075681Y0038543
X0091429Y0038543
X0107177
X0122925Y0038543
X0138673Y0038543
X0154421
X0170169
X0185917
X0203543Y0044094
X0201181Y004685
X0198819Y0049606
X0196063Y0052362
X0193701Y0054724
X0191339Y0057087
X0194095Y0004331
X0201969Y0004331
X0209842Y0004331
X0217717Y0004331
X0227559Y0004331
X0235433Y0004331
X0243307Y0004331
X0251181Y0003937
X0235827Y0067323
X0233465Y007126
X0227949Y0082579
X0219378Y0086016
X0215504Y0100937
X0237689Y0092744
X0261173Y0090289
X0258661Y0098425
X0261173Y0108006
X0272835Y0094882
X0279528Y0079528
X0295276Y0079921
X030315Y0089764
Y0094882
X0322441Y0103543
X0330118Y010689
X0327559Y0118504
X0319882Y0118701
X0322047Y0128347
X0329921
X0335039Y0119291
X0332677Y014252
X0329331Y0159252
X0321654Y0158661
X0318898Y0172047
X0326772
X0334646
X0329134Y0182283
X0321654Y018189
X0322441Y0198425
X03222Y0205
X0327165Y0209342
X033189Y0194488
X0309055Y0188583
X0301118Y0188232
X0306693Y0205512
X0276378Y020748
X0273Y02106
X02655Y0205
X02614Y02074
X0237008Y0198425
X0234251Y0195275
X0236614Y0192126
X0235039Y0188583
X0236024Y0184843
X022441Y0186614
X0220866
X0215354Y0190945
X0220472Y0201181
X0229134Y0172441
X0232283Y0170866
X0226772Y0168504
X0215291Y0166205
Y0158205
X0217717Y0152756
X0220571Y0143209
X023189Y0123228
X024337Y0158992
X0244488Y0166142
X0257331Y0155661
X0263142Y0155661
X0273228Y0137795
X0273228Y0133858
X0301906Y0135083
X0304331Y0127953
X0309906Y0144819
X0338583Y0082284
X033902Y0075858
X0258268Y0079134
X0212992Y0076378
X0212728Y0070929
X0207087Y0067716
X0212205Y0062205
X0208661Y0080315
X0212992Y0103937
X021063Y0125591
X0207874Y0127953
X0186221
X0183858Y0125591
X0181496Y0150394
X0174409
X0181102Y0159906
X0183858Y0168897
X018622Y0172048
X0182874Y0185236
X0177953Y0185433
X0175197Y0188583
X0170472Y0187795
X0170866Y0191732
X0168504Y0194095
X0155905Y0212598
X0129921
X0127559Y0209449
X0132677Y0201181
X0133465Y0193701
X0135307Y0164047
X0168504Y0161024
X0203543Y0164567
X0205906Y0167717
X0210433Y0173425
X02074Y0186
X02128Y01873
X018937Y0098425
X017126Y0100787
X0163323Y0091775
X0153543Y0086614
X0155118Y0080709
X0161811Y0078346
X0164699Y0069835
X0168173Y0070929
X0167386Y0062929
X0185433Y0061417
X0188583Y0059055
X0175197Y0086213
X0141339Y0085433
X0135827Y0091839
X0123228Y0087008
X0118504Y0091339
X0120669Y0101378
X0116397Y0103682
X0126378Y0109843
X0129921Y010741
X0143764Y0109098
X0144004Y0101378
X0153154Y0104331
X0141732Y0123228
X0129921Y0125591
X0126378Y0127953
X0101968Y0136614
X0098819Y0138976
X0092913Y014252
X0084646Y0142126
X0074803Y0148358
X0064961Y0150394
X0065354Y0145669
Y0140551
X0074803Y013189
X0078838Y0125493
X0092913Y0128346
X0095276Y017126
X0091929Y0175394
X0083662Y0166142
X0063736Y0162535
X0065148Y0179715
X0075Y0183661
X011063Y0202756
X0112992Y0205512
X0113429Y0072772
X0129266Y007574
X0144157Y0074453
X015223Y0069835
X002685Y0073701
X0027087Y0063701
X0026851Y0089449
X0026929Y0099449
X0027165Y0109449
X0027008Y0119449
X0005661Y0123772
X0011811Y0150878
X0032677Y0150787
X0045276Y0150394
X0053894Y0162535
X0039764Y0167717
X0040157Y0174016
X0040594Y0198882
X0032677Y0197154
X0052405Y0198882
X0022106Y020817
Y02125
X0015457Y0202756
X0006
X0011811Y0183949
X0005661Y0077803
X0022106Y0216831
X002126Y022126
Y0229921
X0022106Y0234154
Y0238484
X0027559Y0244094
Y0248032
Y0251969
X0029528Y0257874
X0027559Y0261811
X0033465
Y0267717
Y0273622
X0027559
Y0267717
Y0279528
X0033465
X0035433Y0285433
X0031496
X003937
X0043307
X0047244
X0051181
X0047244Y0275591
Y0269685
X003937
Y0275591
X0021654Y0279528
Y0285433
X0007874Y0291339
Y0295276
Y0299213
Y030315
Y0307087
Y0311024
Y0314961
X001378
X0019685
Y0320866
X0033465Y0318898
Y0314961
Y0311024
Y0307087
X0041339
Y0311024
Y0314961
Y0318898
X0049213
Y0314961
Y0311024
Y0307087
X005315Y032874
X0057087Y034252
Y0346457
Y0350394
Y0354331
Y0358268
X0057087Y0364173
Y036811
X0037402
Y0364173
X0037402Y0358268
Y0354331
Y0350394
Y0346457
Y034252
X0037402Y0338583
X0045276Y034252
Y0346457
X0017717Y0352362
Y0358268
X0011811
X0005906
X0003937Y0350394
Y0344488
X0011811Y0352362
X0023622Y0257874
X003937Y0253937
X0047244
X0047244Y0242126
X003937
X0040551Y0225984
X004685Y022441
X005Y0232677
X0036614Y0218503
X001378Y0244094
X0009843
X0005906
X0064961Y0242126
X0072835
X0072835Y0257874
X0064961
Y0269685
Y0275591
X0068898
X0072835
Y0269685
X0086221Y0268898
Y027559
X0094095
X0090945Y027126
X0105512Y0273622
Y0277559
X0112205
Y0273622
X0124016Y0257874
Y0253937
Y025
Y0246063
X0140945Y0246457
X0141669Y0239307
X0138582Y0236614
X0135827Y0232677
X0137008Y0225984
X0132677Y0221653
X0136221Y0217323
X0141732Y0216142
X0148945Y0221717
X0156102Y0222244
X0153543Y023189
X0156299Y0235433
X0153543Y0241732
X0152307Y0246456
X0156693Y0261417
X0165748Y0259055
X0161811Y0269685
X0157087Y0272835
X01908Y02729
X0194685Y0268985
X0203543Y0270695
X0198819Y0277165
X0194819Y0279465
X0194819Y0287465
X0202756Y0285433
X0207087Y0279528
X0213779Y0269685
X0204331Y0255118
X0197244Y0251968
X01934Y02558
X0186614Y0256693
X01835Y02551
X01934Y02478
X0168504Y0240158
X0168701Y0236024
X0170079Y0229528
X0168898Y022559
X0204331
X02128Y02289
X0114173Y0234252
X0110236
X0106299
X0102362
X0084646Y030315
X0080709
X0076772
X0072835
X0080709Y0309055
X0074803Y0330709
Y0338583
X0068898
X0061024
X0064961Y0346457
X0074803Y0346457
X0082677
Y0350394
Y0354331
Y0358268
X0090551
Y0354331
Y0350394
Y0346457
X010315Y0329528
X0107964Y0318898
X0122047Y0333858
Y0338976
X0161417Y0336614
X0167323
Y034252
X0161417
Y0348425
X0167323
Y0354331
Y0360236
X0161417
Y0354331
Y0366142
X0167323
Y0330709
Y0324803
X0161417
Y0330709
X0173228
X0179134
Y0324803
X0173228
X0170078Y0315354
X016063Y0317717
X0152362Y0318898
X0179921Y0318504
X0206693Y036811
X0212598
X0074803Y036811
Y0362205
X0064961
Y036811
X0220472Y0340551
X0236221
X0251969
X0267717
X0283465
X0299213
X0313779Y0335039
X0324803Y0338976
X0306693Y0326772
X0275591Y0326772
X0273228Y0311417
X0261614Y0311221
X028189Y030748
X0284252Y0304724
X0287402Y0302362
X0246063
X0242913Y0304724
X023937Y0307087
X0236221Y0299606
X0228346Y0299606
X0223622Y0287402
X0226378Y0283465
X0229134Y0275984
X02295Y02693
X0230315Y0255512
X02203Y02556
X0220472Y0251181
X0239173Y025374
X0239035Y0247835
X0237008Y0222047
X0232677Y0221654
X0265748Y0222441
X0266535Y0216535
X0264961Y0257874
X0255906Y0262008
X0292913Y0264173
X0301575Y0269291
X030433Y0275984
X0309055Y0251969
Y0236221
X0309358Y0228831
X0319488Y0219201
X0334843
X0331102Y022559
X0329724Y0241051
X0322047Y024252
X0339807Y0263717
X0338976Y0270866
X0290551Y0251969
X0236221Y0287402
X0218504Y0279134
X0216142Y0273228
X0212598Y0372047
Y0375984
X0206693
Y0372047
X0167323
X0161417
Y0377953
X0167323
Y0383858
X0161417
Y0389764
X0167323
X0074803Y0385827
Y0379921
Y0374016
X0064961
Y0379921
Y0385827
X0057087Y0372047
X0037402
T02
X0273622Y0055748
X0348425Y005559
X0098838Y0075028
X0088838
X0078838
X0215039Y0301181
X0338425Y0318898
X033811Y0350394
T03
X0024803Y0167126
Y0180906
T04
X0241535Y0113583
Y0131299
X0267126
Y0113583
T05
X0070866Y0005906
Y0015906
Y0025906
X0086614Y0025748
Y0015748
Y0005748
X0102362
Y0015748
Y0025748
X011811Y0025748
Y0015748
Y0005748
X0133858Y0005748
Y0015748
Y0025748
X0149606
Y0015748
Y0005748
X0165354
Y0015748
Y0025748
X0181102
Y0015748
Y0005748
X0273622Y0005748
Y0015748
Y0025748
Y0035748
Y0045748
X0348425Y0045591
Y0035591
Y0025591
Y001559
Y0005591
X0377323Y0075984
X0387323
X0385827Y0102362
Y0112362
Y0122362
Y0137638
Y0147638
Y0157638
Y0173071
Y0183071
Y0193071
Y0208504
X0370079Y0208661
Y0193071
Y0183071
Y0173071
Y0157795
Y0147795
Y0137795
Y0122205
Y0112205
Y0102205
X0354331
Y0112205
Y0122205
Y0137638
Y0147638
Y0157638
Y0173071
Y0183071
Y0193071
Y0208504
X0357323Y0075984
X0367323
X0098838Y0115028
X0088838
X0078838
X0035748Y0139764
X0025748
X0015748
X0005748
X0045118Y0248032
X0055118
Y026378
X0045118
X0027165Y0342913
Y0352913
X0064803Y0295276
X0074803
X0070866Y026378
X0080866
X0080709Y0248032
X0070709
X0125039Y0301181
X0135039
X0145039
X0155039
X0165039Y0301181
X0175039
X0185039
X0195039
X0205039
X0206693Y0358268
X0196693
X0224409Y0365984
X0240157
X0255906
X0271654
X0287276Y0366142
X030315Y0365984
X034811Y0350394
X035811
X036811
X0368425Y0318898
X0358425
X0348425
X0357953Y0281496
X0367953
X0367953Y026378
X0357953
X0354331Y0228504
Y0218504
X0370079Y0218661
Y0228661
X0385827Y0228504
Y0218504
X0387953Y026378
X0377953
X0377953Y0281496
X0387953
X0388425Y0318898
X0378425
X037811Y0350394
X038811
X0318898Y0375827
Y0385827
X030315Y0385984
Y0375984
X0287276Y0376142
Y0386142
X0271654Y0385984
Y0375984
X0255906
Y0385984
X0240157
Y0375984
X0224409
Y0385984
T06
X0047087Y0354331
X0067087
T07
X0019685Y0019685
X0374016Y0023622
Y0375984
X0019685Y0374016
M30
