M48
;Layer_Color=9474304
;FILE_FORMAT=2:5
INCH,LZ
;TYPE=PLATED
T1F00S00C0.03543
%
T01
X0189331Y0017795
X0199331
Y0027795
Y0037795
Y0047795
Y0057795
Y0067795
Y0077795
Y0087795
X0189331
Y0077795
Y0067795
Y0057795
Y0047795
Y0037795
Y0027795
Y010748
Y011748
X0199331
Y010748
X0019331
X0009331
Y011748
X0019331
Y009748
X0009331
Y008748
X0019331
Y012748
X0009331
Y013748
Y014748
Y015748
X0019331
Y014748
Y013748
X0189331
Y014748
Y015748
X0199331
Y014748
Y013748
Y012748
X0189331
X0174Y01675
X0164
M30
