%FSTAX25Y25*%
%MOIN*%
G70*
G01*
G75*
G04 Layer_Physical_Order=1*
G04 Layer_Color=255*
%ADD10R,0.05512X0.08268*%
%ADD11R,0.06000X0.04000*%
%ADD12R,0.05984X0.04134*%
%ADD13R,0.03937X0.04724*%
%ADD14R,0.04724X0.03937*%
%ADD15R,0.04000X0.06000*%
%ADD16C,0.01181*%
%ADD17C,0.01969*%
%ADD18C,0.01000*%
%ADD19C,0.06299*%
G36*
X0212598Y-0001969D02*
X-0003937D01*
Y0192913D01*
X0212598D01*
Y-0001969D01*
D02*
G37*
%LPC*%
G36*
X0199331Y0061981D02*
X0198248Y0061838D01*
X0197238Y006142D01*
X0196371Y0060755D01*
X0195706Y0059888D01*
X0195288Y0058878D01*
X0195145Y0057795D01*
X0195288Y0056712D01*
X0195706Y0055703D01*
X0196371Y0054836D01*
X0197238Y0054171D01*
X0198248Y0053752D01*
X0199331Y005361D01*
X0200414Y0053752D01*
X0201423Y0054171D01*
X020229Y0054836D01*
X0202955Y0055703D01*
X0203374Y0056712D01*
X0203516Y0057795D01*
X0203374Y0058878D01*
X0202955Y0059888D01*
X020229Y0060755D01*
X0201423Y006142D01*
X0200414Y0061838D01*
X0199331Y0061981D01*
D02*
G37*
G36*
X0189331D02*
X0188248Y0061838D01*
X0187238Y006142D01*
X0186371Y0060755D01*
X0185706Y0059888D01*
X0185288Y0058878D01*
X0185145Y0057795D01*
X0185288Y0056712D01*
X0185706Y0055703D01*
X0186371Y0054836D01*
X0187238Y0054171D01*
X0188248Y0053752D01*
X0189331Y005361D01*
X0190414Y0053752D01*
X0191423Y0054171D01*
X019229Y0054836D01*
X0192955Y0055703D01*
X0193374Y0056712D01*
X0193516Y0057795D01*
X0193374Y0058878D01*
X0192955Y0059888D01*
X019229Y0060755D01*
X0191423Y006142D01*
X0190414Y0061838D01*
X0189331Y0061981D01*
D02*
G37*
G36*
Y0071981D02*
X0188248Y0071838D01*
X0187238Y007142D01*
X0186371Y0070755D01*
X0185706Y0069888D01*
X0185288Y0068879D01*
X0185145Y0067795D01*
X0185288Y0066712D01*
X0185706Y0065703D01*
X0186371Y0064836D01*
X0187238Y0064171D01*
X0188248Y0063753D01*
X0189331Y006361D01*
X0190414Y0063753D01*
X0191423Y0064171D01*
X019229Y0064836D01*
X0192955Y0065703D01*
X0193374Y0066712D01*
X0193516Y0067795D01*
X0193374Y0068879D01*
X0192955Y0069888D01*
X019229Y0070755D01*
X0191423Y007142D01*
X0190414Y0071838D01*
X0189331Y0071981D01*
D02*
G37*
G36*
X020345Y0067295D02*
X0199831D01*
Y0063676D01*
X0200414Y0063753D01*
X0201423Y0064171D01*
X020229Y0064836D01*
X0202955Y0065703D01*
X0203374Y0066712D01*
X020345Y0067295D01*
D02*
G37*
G36*
X0198831D02*
X0195211D01*
X0195288Y0066712D01*
X0195706Y0065703D01*
X0196371Y0064836D01*
X0197238Y0064171D01*
X0198248Y0063753D01*
X0198831Y0063676D01*
Y0067295D01*
D02*
G37*
G36*
X0087Y0056D02*
X00835D01*
Y00535D01*
X0087D01*
Y0056D01*
D02*
G37*
G36*
X0106Y00525D02*
X01025D01*
Y005D01*
X0106D01*
Y00525D01*
D02*
G37*
G36*
X00915Y0056D02*
X0088D01*
Y00535D01*
X00915D01*
Y0056D01*
D02*
G37*
G36*
X0106D02*
X01025D01*
Y00535D01*
X0106D01*
Y0056D01*
D02*
G37*
G36*
X01015D02*
X0098D01*
Y00535D01*
X01015D01*
Y0056D01*
D02*
G37*
G36*
X0189331Y0081981D02*
X0188248Y0081838D01*
X0187238Y008142D01*
X0186371Y0080755D01*
X0185706Y0079888D01*
X0185288Y0078878D01*
X0185145Y0077795D01*
X0185288Y0076712D01*
X0185706Y0075703D01*
X0186371Y0074836D01*
X0187238Y0074171D01*
X0188248Y0073752D01*
X0189331Y007361D01*
X0190414Y0073752D01*
X0191423Y0074171D01*
X019229Y0074836D01*
X0192955Y0075703D01*
X0193374Y0076712D01*
X0193516Y0077795D01*
X0193374Y0078878D01*
X0192955Y0079888D01*
X019229Y0080755D01*
X0191423Y008142D01*
X0190414Y0081838D01*
X0189331Y0081981D01*
D02*
G37*
G36*
X0075799Y00755D02*
X0072299D01*
Y0073D01*
X0075799D01*
Y00755D01*
D02*
G37*
G36*
X0198831Y0077295D02*
X0195211D01*
X0195288Y0076712D01*
X0195706Y0075703D01*
X0196371Y0074836D01*
X0197238Y0074171D01*
X0198248Y0073752D01*
X0198831Y0073676D01*
Y0077295D01*
D02*
G37*
G36*
X0060299Y0079D02*
X0056799D01*
Y00765D01*
X0060299D01*
Y0079D01*
D02*
G37*
G36*
X020345Y0077295D02*
X0199831D01*
Y0073676D01*
X0200414Y0073752D01*
X0201423Y0074171D01*
X020229Y0074836D01*
X0202955Y0075703D01*
X0203374Y0076712D01*
X020345Y0077295D01*
D02*
G37*
G36*
X0199831Y0071915D02*
Y0068295D01*
X020345D01*
X0203374Y0068879D01*
X0202955Y0069888D01*
X020229Y0070755D01*
X0201423Y007142D01*
X0200414Y0071838D01*
X0199831Y0071915D01*
D02*
G37*
G36*
X0198831D02*
X0198248Y0071838D01*
X0197238Y007142D01*
X0196371Y0070755D01*
X0195706Y0069888D01*
X0195288Y0068879D01*
X0195211Y0068295D01*
X0198831D01*
Y0071915D01*
D02*
G37*
G36*
X0060299Y00755D02*
X0056799D01*
Y0073D01*
X0060299D01*
Y00755D01*
D02*
G37*
G36*
X0071299D02*
X0067799D01*
Y0073D01*
X0071299D01*
Y00755D01*
D02*
G37*
G36*
X0064799D02*
X0061299D01*
Y0073D01*
X0064799D01*
Y00755D01*
D02*
G37*
G36*
X0054776Y0017492D02*
X0051284D01*
Y0014925D01*
X0054776D01*
Y0017492D01*
D02*
G37*
G36*
X0050283D02*
X0046791D01*
Y0014925D01*
X0050283D01*
Y0017492D01*
D02*
G37*
G36*
X0060283D02*
X0056791D01*
Y0014925D01*
X0060283D01*
Y0017492D01*
D02*
G37*
G36*
X0189331Y0031981D02*
X0188248Y0031838D01*
X0187238Y003142D01*
X0186371Y0030755D01*
X0185706Y0029888D01*
X0185288Y0028879D01*
X0185145Y0027795D01*
X0185288Y0026712D01*
X0185706Y0025703D01*
X0186371Y0024836D01*
X0187238Y0024171D01*
X0188248Y0023753D01*
X0189331Y002361D01*
X0190414Y0023753D01*
X0191423Y0024171D01*
X019229Y0024836D01*
X0192955Y0025703D01*
X0193374Y0026712D01*
X0193516Y0027795D01*
X0193374Y0028879D01*
X0192955Y0029888D01*
X019229Y0030755D01*
X0191423Y003142D01*
X0190414Y0031838D01*
X0189331Y0031981D01*
D02*
G37*
G36*
X0064776Y0017492D02*
X0061283D01*
Y0014925D01*
X0064776D01*
Y0017492D01*
D02*
G37*
G36*
X0054776Y0013925D02*
X0051284D01*
Y0011358D01*
X0054776D01*
Y0013925D01*
D02*
G37*
G36*
X0050283D02*
X0046791D01*
Y0011358D01*
X0050283D01*
Y0013925D01*
D02*
G37*
G36*
X0060283D02*
X0056791D01*
Y0011358D01*
X0060283D01*
Y0013925D01*
D02*
G37*
G36*
X0189331Y0021981D02*
X0188248Y0021838D01*
X0187238Y002142D01*
X0186371Y0020755D01*
X0185706Y0019888D01*
X0185288Y0018879D01*
X0185145Y0017795D01*
X0185288Y0016712D01*
X0185706Y0015703D01*
X0186371Y0014836D01*
X0187238Y0014171D01*
X0188248Y0013753D01*
X0189331Y001361D01*
X0190414Y0013753D01*
X0191423Y0014171D01*
X019229Y0014836D01*
X0192955Y0015703D01*
X0193374Y0016712D01*
X0193516Y0017795D01*
X0193374Y0018879D01*
X0192955Y0019888D01*
X019229Y0020755D01*
X0191423Y002142D01*
X0190414Y0021838D01*
X0189331Y0021981D01*
D02*
G37*
G36*
X0064776Y0013925D02*
X0061283D01*
Y0011358D01*
X0064776D01*
Y0013925D01*
D02*
G37*
G36*
X0199331Y0051981D02*
X0198248Y0051838D01*
X0197238Y005142D01*
X0196371Y0050755D01*
X0195706Y0049888D01*
X0195288Y0048878D01*
X0195145Y0047795D01*
X0195288Y0046712D01*
X0195706Y0045703D01*
X0196371Y0044836D01*
X0197238Y0044171D01*
X0198248Y0043753D01*
X0199331Y004361D01*
X0200414Y0043753D01*
X0201423Y0044171D01*
X020229Y0044836D01*
X0202955Y0045703D01*
X0203374Y0046712D01*
X0203516Y0047795D01*
X0203374Y0048878D01*
X0202955Y0049888D01*
X020229Y0050755D01*
X0201423Y005142D01*
X0200414Y0051838D01*
X0199331Y0051981D01*
D02*
G37*
G36*
X0189331D02*
X0188248Y0051838D01*
X0187238Y005142D01*
X0186371Y0050755D01*
X0185706Y0049888D01*
X0185288Y0048878D01*
X0185145Y0047795D01*
X0185288Y0046712D01*
X0185706Y0045703D01*
X0186371Y0044836D01*
X0187238Y0044171D01*
X0188248Y0043753D01*
X0189331Y004361D01*
X0190414Y0043753D01*
X0191423Y0044171D01*
X019229Y0044836D01*
X0192955Y0045703D01*
X0193374Y0046712D01*
X0193516Y0047795D01*
X0193374Y0048878D01*
X0192955Y0049888D01*
X019229Y0050755D01*
X0191423Y005142D01*
X0190414Y0051838D01*
X0189331Y0051981D01*
D02*
G37*
G36*
X0087Y00525D02*
X00835D01*
Y005D01*
X0087D01*
Y00525D01*
D02*
G37*
G36*
X01015D02*
X0098D01*
Y005D01*
X01015D01*
Y00525D01*
D02*
G37*
G36*
X00915D02*
X0088D01*
Y005D01*
X00915D01*
Y00525D01*
D02*
G37*
G36*
Y0048D02*
X00835D01*
Y0042D01*
X0085971D01*
Y0038D01*
X00835D01*
Y0032D01*
X00915D01*
Y0038D01*
X0089029D01*
Y0042D01*
X00915D01*
Y0048D01*
D02*
G37*
G36*
X0121283Y007961D02*
X0114559D01*
Y0077142D01*
Y0071236D01*
Y0065331D01*
Y0059425D01*
Y005352D01*
Y0047614D01*
Y0041709D01*
Y0035803D01*
Y0029898D01*
Y0028622D01*
X0106D01*
Y003D01*
X0098D01*
Y0024D01*
X0106D01*
Y0025378D01*
X0114559D01*
Y0023992D01*
Y0022677D01*
X0089122D01*
Y0024D01*
X00915D01*
Y003D01*
X00835D01*
Y0024D01*
X0085878D01*
Y0022D01*
X0086002Y0021379D01*
X0086353Y0020853D01*
X0087298Y0019908D01*
X0087824Y0019557D01*
X0088445Y0019433D01*
X0114559D01*
Y0018087D01*
Y0012181D01*
Y0006276D01*
X0121283D01*
Y0012181D01*
Y0018087D01*
Y0023992D01*
Y0029898D01*
Y0035803D01*
Y0041709D01*
Y0047614D01*
Y005352D01*
Y0059425D01*
Y0065331D01*
Y0071236D01*
Y0077142D01*
Y007961D01*
D02*
G37*
G36*
X0106Y0048D02*
X0098D01*
Y0042D01*
X0100471D01*
Y0038D01*
X0098D01*
Y0032D01*
X0106D01*
Y0038D01*
X0103529D01*
Y0042D01*
X0106D01*
Y0048D01*
D02*
G37*
G36*
X0199331Y0041981D02*
X0198248Y0041838D01*
X0197238Y004142D01*
X0196371Y0040755D01*
X0195706Y0039888D01*
X0195288Y0038879D01*
X0195145Y0037795D01*
X0195288Y0036712D01*
X0195706Y0035703D01*
X0196371Y0034836D01*
X0197238Y0034171D01*
X0198248Y0033753D01*
X0199331Y003361D01*
X0200414Y0033753D01*
X0201423Y0034171D01*
X020229Y0034836D01*
X0202955Y0035703D01*
X0203374Y0036712D01*
X0203516Y0037795D01*
X0203374Y0038879D01*
X0202955Y0039888D01*
X020229Y0040755D01*
X0201423Y004142D01*
X0200414Y0041838D01*
X0199331Y0041981D01*
D02*
G37*
G36*
X0189331D02*
X0188248Y0041838D01*
X0187238Y004142D01*
X0186371Y0040755D01*
X0185706Y0039888D01*
X0185288Y0038879D01*
X0185145Y0037795D01*
X0185288Y0036712D01*
X0185706Y0035703D01*
X0186371Y0034836D01*
X0187238Y0034171D01*
X0188248Y0033753D01*
X0189331Y003361D01*
X0190414Y0033753D01*
X0191423Y0034171D01*
X019229Y0034836D01*
X0192955Y0035703D01*
X0193374Y0036712D01*
X0193516Y0037795D01*
X0193374Y0038879D01*
X0192955Y0039888D01*
X019229Y0040755D01*
X0191423Y004142D01*
X0190414Y0041838D01*
X0189331Y0041981D01*
D02*
G37*
G36*
Y0151666D02*
X0188248Y0151523D01*
X0187238Y0151105D01*
X0186371Y015044D01*
X0185706Y0149573D01*
X0185288Y0148564D01*
X0185145Y014748D01*
X0185288Y0146397D01*
X0185706Y0145388D01*
X0186371Y0144521D01*
X0187238Y0143856D01*
X0188248Y0143438D01*
X0189331Y0143295D01*
X0190414Y0143438D01*
X0191423Y0143856D01*
X019229Y0144521D01*
X0192955Y0145388D01*
X0193374Y0146397D01*
X0193516Y014748D01*
X0193374Y0148564D01*
X0192955Y0149573D01*
X019229Y015044D01*
X0191423Y0151105D01*
X0190414Y0151523D01*
X0189331Y0151666D01*
D02*
G37*
G36*
Y0141666D02*
X0188248Y0141523D01*
X0187238Y0141105D01*
X0186371Y014044D01*
X0185706Y0139573D01*
X0185288Y0138564D01*
X0185145Y013748D01*
X0185288Y0136397D01*
X0185706Y0135388D01*
X0186371Y0134521D01*
X0187238Y0133856D01*
X0188248Y0133438D01*
X0189331Y0133295D01*
X0190414Y0133438D01*
X0191423Y0133856D01*
X019229Y0134521D01*
X0192955Y0135388D01*
X0193374Y0136397D01*
X0193516Y013748D01*
X0193374Y0138564D01*
X0192955Y0139573D01*
X019229Y014044D01*
X0191423Y0141105D01*
X0190414Y0141523D01*
X0189331Y0141666D01*
D02*
G37*
G36*
Y0161666D02*
X0188248Y0161523D01*
X0187238Y0161105D01*
X0186371Y016044D01*
X0185706Y0159573D01*
X0185288Y0158564D01*
X0185145Y015748D01*
X0185288Y0156397D01*
X0185706Y0155388D01*
X0186371Y0154521D01*
X0187238Y0153856D01*
X0188248Y0153437D01*
X0189331Y0153295D01*
X0190414Y0153437D01*
X0191423Y0153856D01*
X019229Y0154521D01*
X0192955Y0155388D01*
X0193374Y0156397D01*
X0193516Y015748D01*
X0193374Y0158564D01*
X0192955Y0159573D01*
X019229Y016044D01*
X0191423Y0161105D01*
X0190414Y0161523D01*
X0189331Y0161666D01*
D02*
G37*
G36*
X016812Y0167D02*
X01645D01*
Y016338D01*
X0165083Y0163457D01*
X0166093Y0163875D01*
X016696Y0164541D01*
X0167625Y0165407D01*
X0168043Y0166417D01*
X016812Y0167D01*
D02*
G37*
G36*
X01635D02*
X015988D01*
X0159957Y0166417D01*
X0160375Y0165407D01*
X016104Y0164541D01*
X0161907Y0163875D01*
X0162917Y0163457D01*
X01635Y016338D01*
Y0167D01*
D02*
G37*
G36*
X0019331Y0121666D02*
X0018248Y0121523D01*
X0017238Y0121105D01*
X0016371Y012044D01*
X0015706Y0119573D01*
X0015288Y0118564D01*
X0015145Y011748D01*
X0015288Y0116397D01*
X0015706Y0115388D01*
X0016371Y0114521D01*
X0017238Y0113856D01*
X0018248Y0113437D01*
X0019331Y0113295D01*
X0020414Y0113437D01*
X0021423Y0113856D01*
X002229Y0114521D01*
X0022955Y0115388D01*
X0023373Y0116397D01*
X0023516Y011748D01*
X0023373Y0118564D01*
X0022955Y0119573D01*
X002229Y012044D01*
X0021423Y0121105D01*
X0020414Y0121523D01*
X0019331Y0121666D01*
D02*
G37*
G36*
X017Y01085D02*
X01665D01*
Y0106D01*
X017D01*
Y01085D01*
D02*
G37*
G36*
X00855Y0182622D02*
X004D01*
X0039379Y0182498D01*
X0038853Y0182147D01*
X0030853Y0174147D01*
X0030502Y0173621D01*
X0030378Y0173D01*
Y0158172D01*
X0026328Y0154122D01*
X0022549D01*
X0022328Y015457D01*
X0022955Y0155388D01*
X0023373Y0156397D01*
X0023516Y015748D01*
X0023373Y0158564D01*
X0022955Y0159573D01*
X002229Y016044D01*
X0021423Y0161105D01*
X0020414Y0161523D01*
X0019331Y0161666D01*
X0018248Y0161523D01*
X0017238Y0161105D01*
X0016371Y016044D01*
X0015706Y0159573D01*
X0015288Y0158564D01*
X0015145Y015748D01*
X0015288Y0156397D01*
X0015706Y0155388D01*
X0016333Y015457D01*
X0016112Y0154122D01*
X001435D01*
X001373Y0153998D01*
X0013204Y0153647D01*
X0010885Y0151328D01*
X0010414Y0151523D01*
X0009331Y0151666D01*
X0008247Y0151523D01*
X0007238Y0151105D01*
X0006478Y0150522D01*
X0006029Y0150743D01*
Y0154218D01*
X0006478Y0154439D01*
X0007238Y0153856D01*
X0008247Y0153437D01*
X0009331Y0153295D01*
X0010414Y0153437D01*
X0011423Y0153856D01*
X001229Y0154521D01*
X0012955Y0155388D01*
X0013374Y0156397D01*
X0013516Y015748D01*
X0013374Y0158564D01*
X0012955Y0159573D01*
X001229Y016044D01*
X0011423Y0161105D01*
X0010414Y0161523D01*
X0009331Y0161666D01*
X0008247Y0161523D01*
X0007238Y0161105D01*
X0006371Y016044D01*
X0005706Y0159573D01*
X0005479Y0159025D01*
X0004915Y0158913D01*
X0004419Y0158581D01*
X0003419Y0157581D01*
X0003087Y0157085D01*
X0002971Y01565D01*
Y0027D01*
X0003087Y0026415D01*
X0003419Y0025919D01*
X0015993Y0013344D01*
X0016489Y0013012D01*
X0017075Y0012896D01*
X0036791D01*
Y0011358D01*
X0044776D01*
Y0017492D01*
X0036791D01*
Y0015955D01*
X0017708D01*
X0006029Y0027634D01*
Y0084218D01*
X0006478Y0084439D01*
X0007238Y0083856D01*
X0007709Y0083661D01*
Y0059169D01*
X0007833Y0058549D01*
X0008184Y0058023D01*
X0011853Y0054353D01*
X0012379Y0054002D01*
X0013Y0053878D01*
X00165D01*
Y00525D01*
X0018878D01*
Y00475D01*
X0019002Y0046879D01*
X0019353Y0046353D01*
X0022353Y0043353D01*
X0022879Y0043002D01*
X00235Y0042878D01*
X00485D01*
X0049121Y0043002D01*
X0049647Y0043353D01*
X005193Y0045637D01*
X0052282Y0046163D01*
X0052405Y0046784D01*
Y0049508D01*
X0054776D01*
Y0055642D01*
X0046791D01*
Y0049508D01*
X0049162D01*
Y0047455D01*
X0047828Y0046122D01*
X0024172D01*
X0022122Y0048172D01*
Y00525D01*
X00245D01*
Y0057878D01*
X00305D01*
X0031121Y0058002D01*
X0031647Y0058353D01*
X0033172Y0059878D01*
X0036D01*
Y00585D01*
X0039254D01*
Y0055642D01*
X0036791D01*
Y0049508D01*
X0044776D01*
Y0055642D01*
X0042313D01*
Y00585D01*
X0044D01*
Y00645D01*
X0036D01*
Y0063122D01*
X00325D01*
X0031879Y0062998D01*
X0031353Y0062647D01*
X0029828Y0061122D01*
X00245D01*
Y0064639D01*
X0027338Y0067477D01*
X0036D01*
Y00665D01*
X0044D01*
Y0067477D01*
X0048662D01*
X0049569Y006657D01*
X0050226Y0066131D01*
X0051Y0065977D01*
X0056799D01*
Y0065D01*
X005927D01*
Y0055642D01*
X0056791D01*
Y0049508D01*
X0064776D01*
Y0055642D01*
X0062329D01*
Y0065D01*
X0064799D01*
Y0065977D01*
X0067799D01*
Y0065D01*
X0075799D01*
Y0065477D01*
X0076477D01*
Y0011D01*
X0076631Y0010226D01*
X0077069Y0009569D01*
X0085069Y0001569D01*
X0085726Y0001131D01*
X00865Y0000977D01*
X01975D01*
X0198274Y0001131D01*
X0198931Y0001569D01*
X0205931Y0008569D01*
X0206224Y0009008D01*
X0206369Y0009226D01*
X0206523Y001D01*
Y0022626D01*
X0206369Y00234D01*
X0205931Y0024057D01*
X0203345Y0026642D01*
X0203374Y0026712D01*
X0203516Y0027795D01*
X0203374Y0028879D01*
X0202955Y0029888D01*
X020229Y0030755D01*
X0201423Y003142D01*
X0200414Y0031838D01*
X0199331Y0031981D01*
X0198248Y0031838D01*
X0197238Y003142D01*
X0196371Y0030755D01*
X0195706Y0029888D01*
X0195288Y0028879D01*
X0195145Y0027795D01*
X0195288Y0026712D01*
X0195706Y0025703D01*
X0196371Y0024836D01*
X0197238Y0024171D01*
X0198248Y0023753D01*
X0199331Y002361D01*
X0200414Y0023753D01*
X0200484Y0023781D01*
X0202477Y0021788D01*
Y0021177D01*
X0202028Y0020956D01*
X0201423Y002142D01*
X0200414Y0021838D01*
X0199331Y0021981D01*
X0198248Y0021838D01*
X0197238Y002142D01*
X0196371Y0020755D01*
X0195706Y0019888D01*
X0195288Y0018879D01*
X0195145Y0017795D01*
X0195288Y0016712D01*
X0195706Y0015703D01*
X0196371Y0014836D01*
X0197238Y0014171D01*
X0198248Y0013753D01*
X0199331Y001361D01*
X0200414Y0013753D01*
X0201423Y0014171D01*
X0202028Y0014635D01*
X0202477Y0014414D01*
Y0010838D01*
X0196662Y0005023D01*
X0087338D01*
X0080523Y0011838D01*
Y0065477D01*
X00845D01*
X0085274Y0065631D01*
X0085931Y0066069D01*
X0088931Y0069069D01*
X0089369Y0069726D01*
X0089523Y00705D01*
Y0095477D01*
X01505D01*
Y00945D01*
X01585D01*
Y0095477D01*
X0162D01*
Y00945D01*
X017D01*
Y0095553D01*
X0170462Y0095745D01*
X0173878Y0092328D01*
Y0083079D01*
X0171177D01*
Y008011D01*
X0170677D01*
Y007961D01*
X0167315D01*
Y0077142D01*
Y0071236D01*
Y0065331D01*
Y0059425D01*
Y005352D01*
Y0047614D01*
Y0041709D01*
Y0035803D01*
Y0029898D01*
Y0023992D01*
Y0018087D01*
Y0012181D01*
Y0006276D01*
X0174039D01*
Y0007378D01*
X01805D01*
X0181121Y0007502D01*
X0181647Y0007853D01*
X0184147Y0010353D01*
X0184498Y0010879D01*
X0184622Y00115D01*
Y0091328D01*
X0195647Y0102353D01*
X0195998Y0102879D01*
X0196122Y01035D01*
Y0104147D01*
X019657Y0104368D01*
X0197238Y0103856D01*
X0198248Y0103437D01*
X0199331Y0103295D01*
X0200414Y0103437D01*
X0201423Y0103856D01*
X0202028Y010432D01*
X0202477Y0104099D01*
Y0098338D01*
X01979Y0093761D01*
X0197462Y0093105D01*
X0197308Y0092331D01*
Y0091449D01*
X0197238Y009142D01*
X0196371Y0090755D01*
X0195706Y0089888D01*
X0195288Y0088879D01*
X0195145Y0087795D01*
X0195288Y0086712D01*
X0195706Y0085703D01*
X0196371Y0084836D01*
X0197238Y0084171D01*
X0198248Y0083753D01*
X0199331Y008361D01*
X0200414Y0083753D01*
X0201423Y0084171D01*
X020229Y0084836D01*
X0202955Y0085703D01*
X0203374Y0086712D01*
X0203516Y0087795D01*
X0203374Y0088879D01*
X0202955Y0089888D01*
X020229Y0090755D01*
X0201644Y0091251D01*
X0201611Y009175D01*
X0205931Y0096069D01*
X0206369Y0096726D01*
X0206523Y00975D01*
Y0163D01*
X0206369Y0163774D01*
X0205931Y0164431D01*
X0201431Y0168931D01*
X0200774Y0169369D01*
X02Y0169523D01*
X0177654D01*
X0177625Y0169593D01*
X017696Y0170459D01*
X0176093Y0171125D01*
X0175083Y0171543D01*
X0174Y0171685D01*
X0172917Y0171543D01*
X0171907Y0171125D01*
X017104Y0170459D01*
X0170375Y0169593D01*
X0169957Y0168583D01*
X0169815Y01675D01*
X0169957Y0166417D01*
X0170375Y0165407D01*
X017104Y0164541D01*
X0171907Y0163875D01*
X0172917Y0163457D01*
X0174Y0163315D01*
X0175083Y0163457D01*
X0176093Y0163875D01*
X017696Y0164541D01*
X0177625Y0165407D01*
X0177654Y0165477D01*
X0199162D01*
X0202477Y0162162D01*
Y0160862D01*
X0202028Y0160641D01*
X0201423Y0161105D01*
X0200414Y0161523D01*
X0199331Y0161666D01*
X0198248Y0161523D01*
X0197238Y0161105D01*
X0196371Y016044D01*
X0195706Y0159573D01*
X0195288Y0158564D01*
X0195145Y015748D01*
X0195288Y0156397D01*
X0195706Y0155388D01*
X0196371Y0154521D01*
X0197238Y0153856D01*
X0198248Y0153437D01*
X0199331Y0153295D01*
X0200414Y0153437D01*
X0201423Y0153856D01*
X0202028Y015432D01*
X0202477Y0154099D01*
Y0150862D01*
X0202028Y0150641D01*
X0201423Y0151105D01*
X0200414Y0151523D01*
X0199331Y0151666D01*
X0198248Y0151523D01*
X0197238Y0151105D01*
X0196371Y015044D01*
X0195706Y0149573D01*
X0195288Y0148564D01*
X0195145Y014748D01*
X0195288Y0146397D01*
X0195706Y0145388D01*
X0196371Y0144521D01*
X0197238Y0143856D01*
X0198248Y0143438D01*
X0199331Y0143295D01*
X0200414Y0143438D01*
X0201423Y0143856D01*
X0202028Y014432D01*
X0202477Y0144099D01*
Y0140862D01*
X0202028Y0140641D01*
X0201423Y0141105D01*
X0200414Y0141523D01*
X0199331Y0141666D01*
X0198248Y0141523D01*
X0197238Y0141105D01*
X0196371Y014044D01*
X0195706Y0139573D01*
X0195288Y0138564D01*
X0195145Y013748D01*
X0195288Y0136397D01*
X0195706Y0135388D01*
X0196371Y0134521D01*
X0197238Y0133856D01*
X0198248Y0133438D01*
X0199331Y0133295D01*
X0200414Y0133438D01*
X0201423Y0133856D01*
X0202028Y013432D01*
X0202477Y0134099D01*
Y0130862D01*
X0202028Y0130641D01*
X0201423Y0131105D01*
X0200414Y0131523D01*
X0199331Y0131666D01*
X0198248Y0131523D01*
X0197238Y0131105D01*
X0196371Y013044D01*
X0195706Y0129573D01*
X0195288Y0128564D01*
X0195145Y012748D01*
X0195288Y0126397D01*
X0195706Y0125388D01*
X0196371Y0124521D01*
X0197238Y0123856D01*
X0198248Y0123438D01*
X0199331Y0123295D01*
X0200414Y0123438D01*
X0201423Y0123856D01*
X0202028Y012432D01*
X0202477Y0124099D01*
Y0120862D01*
X0202028Y0120641D01*
X0201423Y0121105D01*
X0200414Y0121523D01*
X0199331Y0121666D01*
X0198248Y0121523D01*
X0197238Y0121105D01*
X0196371Y012044D01*
X0195706Y0119573D01*
X0195288Y0118564D01*
X0195145Y011748D01*
X0195288Y0116397D01*
X0195706Y0115388D01*
X0196371Y0114521D01*
X0197238Y0113856D01*
X0198248Y0113437D01*
X0199331Y0113295D01*
X0200414Y0113437D01*
X0201423Y0113856D01*
X0202028Y011432D01*
X0202477Y0114099D01*
Y0110862D01*
X0202028Y0110641D01*
X0201423Y0111105D01*
X0200414Y0111523D01*
X0199331Y0111666D01*
X0198248Y0111523D01*
X0197238Y0111105D01*
X019657Y0110592D01*
X0196122Y0110814D01*
Y0112311D01*
X0195998Y0112932D01*
X0195647Y0113458D01*
X0193178Y0115926D01*
X0193374Y0116397D01*
X0193516Y011748D01*
X0193374Y0118564D01*
X0192955Y0119573D01*
X019229Y012044D01*
X0191423Y0121105D01*
X0190414Y0121523D01*
X0189331Y0121666D01*
X0188248Y0121523D01*
X0187238Y0121105D01*
X0186371Y012044D01*
X0185706Y0119573D01*
X0185288Y0118564D01*
X0185145Y011748D01*
X0185288Y0116397D01*
X0185706Y0115388D01*
X0186371Y0114521D01*
X0187238Y0113856D01*
X0188248Y0113437D01*
X0189331Y0113295D01*
X0190414Y0113437D01*
X0190885Y0113633D01*
X0192878Y0111639D01*
Y0110451D01*
X0192405Y0110291D01*
X019229Y011044D01*
X0191423Y0111105D01*
X0190414Y0111523D01*
X0189331Y0111666D01*
X0188248Y0111523D01*
X0187238Y0111105D01*
X0186371Y011044D01*
X0185706Y0109573D01*
X0185288Y0108564D01*
X0185145Y010748D01*
X0185288Y0106397D01*
X0185483Y0105926D01*
X0178353Y0098796D01*
X0178002Y009827D01*
X0177878Y009765D01*
Y0019172D01*
X0175328Y0016622D01*
X0174039D01*
Y0018087D01*
Y0023992D01*
Y0029898D01*
Y0035803D01*
Y0041709D01*
Y0047614D01*
Y005352D01*
Y0059425D01*
Y0065331D01*
Y0071236D01*
Y0072378D01*
X0175D01*
X0175621Y0072502D01*
X0176147Y0072853D01*
X0176647Y0073353D01*
X0176998Y0073879D01*
X0177122Y00745D01*
Y0093D01*
X0176998Y0093621D01*
X0176647Y0094147D01*
X0172147Y0098647D01*
X0171621Y0098998D01*
X0171Y0099122D01*
X017D01*
Y01005D01*
X0162D01*
Y0099523D01*
X01585D01*
Y01005D01*
X01505D01*
Y0099523D01*
X0104539D01*
Y0117866D01*
X0106272D01*
Y0128134D01*
X0104539D01*
Y0153693D01*
X0106272D01*
Y0163961D01*
X009876D01*
Y0153693D01*
X0100493D01*
Y0128134D01*
X009876D01*
Y0117866D01*
X0100493D01*
Y0099523D01*
X0069338D01*
X0064539Y0104322D01*
Y0116866D01*
X0066272D01*
Y0127134D01*
X0064539D01*
Y0152693D01*
X0066272D01*
Y0162961D01*
X005876D01*
Y0152693D01*
X0060493D01*
Y0127134D01*
X005876D01*
Y0116866D01*
X0060493D01*
Y0103484D01*
X0060647Y010271D01*
X0061085Y0102054D01*
X0067069Y0096069D01*
X0067726Y0095631D01*
X00685Y0095477D01*
X0085477D01*
Y0071338D01*
X0083662Y0069523D01*
X0075799D01*
Y0071D01*
X0067799D01*
Y0070023D01*
X0064799D01*
Y0071D01*
X0056799D01*
Y0070023D01*
X0051838D01*
X0050931Y0070931D01*
X0050274Y0071369D01*
X00495Y0071523D01*
X0044D01*
Y00725D01*
X0036D01*
Y0071523D01*
X00265D01*
X0025726Y0071369D01*
X0025069Y0070931D01*
X0020639Y00665D01*
X00165D01*
Y00665D01*
X0016475D01*
X0016122Y0066854D01*
Y0084147D01*
X001657Y0084368D01*
X0017238Y0083856D01*
X0018248Y0083438D01*
X0019331Y0083295D01*
X0020414Y0083438D01*
X0021423Y0083856D01*
X002229Y0084521D01*
X0022955Y0085388D01*
X0023373Y0086397D01*
X0023516Y008748D01*
X0023373Y0088564D01*
X0022955Y0089573D01*
X002229Y009044D01*
X0021423Y0091105D01*
X0020414Y0091523D01*
X0019331Y0091666D01*
X0018248Y0091523D01*
X0017238Y0091105D01*
X001657Y0090592D01*
X0016122Y0090814D01*
Y0092311D01*
X0015998Y0092932D01*
X0015647Y0093458D01*
X0013178Y0095926D01*
X0013374Y0096397D01*
X0013516Y009748D01*
X0013374Y0098564D01*
X0012955Y0099573D01*
X001229Y010044D01*
X0011423Y0101105D01*
X0010414Y0101523D01*
X0009331Y0101666D01*
X0008247Y0101523D01*
X0007238Y0101105D01*
X0006478Y0100522D01*
X0006029Y0100743D01*
Y0104218D01*
X0006478Y0104439D01*
X0007238Y0103856D01*
X0008247Y0103437D01*
X0009331Y0103295D01*
X0010414Y0103437D01*
X0011423Y0103856D01*
X001229Y0104521D01*
X0012955Y0105388D01*
X0013374Y0106397D01*
X0013516Y010748D01*
X0013374Y0108564D01*
X0012955Y0109573D01*
X001229Y011044D01*
X0011423Y0111105D01*
X0010414Y0111523D01*
X0009331Y0111666D01*
X0008247Y0111523D01*
X0007238Y0111105D01*
X0006478Y0110522D01*
X0006029Y0110743D01*
Y0114218D01*
X0006478Y0114439D01*
X0007238Y0113856D01*
X0008247Y0113437D01*
X0009331Y0113295D01*
X0010414Y0113437D01*
X0011423Y0113856D01*
X001229Y0114521D01*
X0012955Y0115388D01*
X0013374Y0116397D01*
X0013516Y011748D01*
X0013374Y0118564D01*
X0012955Y0119573D01*
X001229Y012044D01*
X0011423Y0121105D01*
X0010414Y0121523D01*
X0009331Y0121666D01*
X0008247Y0121523D01*
X0007238Y0121105D01*
X0006478Y0120522D01*
X0006029Y0120743D01*
Y0124218D01*
X0006478Y0124439D01*
X0007238Y0123856D01*
X0008247Y0123438D01*
X0009331Y0123295D01*
X0010414Y0123438D01*
X0011423Y0123856D01*
X001229Y0124521D01*
X0012955Y0125388D01*
X0013374Y0126397D01*
X0013516Y012748D01*
X0013374Y0128564D01*
X0012955Y0129573D01*
X001229Y013044D01*
X0011423Y0131105D01*
X0010414Y0131523D01*
X0009331Y0131666D01*
X0008247Y0131523D01*
X0007238Y0131105D01*
X0006478Y0130522D01*
X0006029Y0130743D01*
Y0134218D01*
X0006478Y0134439D01*
X0007238Y0133856D01*
X0008247Y0133438D01*
X0009331Y0133295D01*
X0010414Y0133438D01*
X0011423Y0133856D01*
X001229Y0134521D01*
X0012955Y0135388D01*
X0013374Y0136397D01*
X0013516Y013748D01*
X0013374Y0138564D01*
X0013178Y0139035D01*
X0015022Y0140878D01*
X0016142D01*
X0016364Y014043D01*
X0015706Y0139573D01*
X0015288Y0138564D01*
X0015145Y013748D01*
X0015288Y0136397D01*
X0015706Y0135388D01*
X0016371Y0134521D01*
X0017238Y0133856D01*
X0018248Y0133438D01*
X0019331Y0133295D01*
X0020414Y0133438D01*
X0021423Y0133856D01*
X002229Y0134521D01*
X0022955Y0135388D01*
X0023373Y0136397D01*
X0023516Y013748D01*
X0023373Y0138564D01*
X0022955Y0139573D01*
X0022298Y014043D01*
X0022519Y0140878D01*
X0033D01*
X0033621Y0141002D01*
X0034147Y0141353D01*
X0037647Y0144853D01*
X0037998Y0145379D01*
X0038122Y0146D01*
Y0151828D01*
X0040581Y0154288D01*
X0041043Y0154097D01*
Y0152693D01*
X0042776D01*
Y0127134D01*
X0041043D01*
Y0116866D01*
X0048555D01*
Y0127134D01*
X0046822D01*
Y0152693D01*
X0048555D01*
Y0162961D01*
X0046822D01*
Y0167662D01*
X004816Y0169D01*
X0052299D01*
Y0177D01*
X0046299D01*
Y0172861D01*
X0043369Y0169931D01*
X004293Y0169274D01*
X0042776Y01685D01*
Y0162961D01*
X0041043D01*
Y0159216D01*
X004068Y0158974D01*
X0035353Y0153647D01*
X0035002Y0153121D01*
X0034878Y01525D01*
Y0146672D01*
X0032328Y0144122D01*
X0022549D01*
X0022328Y014457D01*
X0022955Y0145388D01*
X0023373Y0146397D01*
X0023516Y014748D01*
X0023373Y0148564D01*
X0022955Y0149573D01*
X0022298Y015043D01*
X0022519Y0150878D01*
X0027D01*
X0027621Y0151002D01*
X0028147Y0151353D01*
X0033147Y0156353D01*
X0033498Y0156879D01*
X0033622Y01575D01*
Y0172328D01*
X0040672Y0179378D01*
X0084828D01*
X0087678Y0176529D01*
Y0176D01*
X0086299D01*
Y0171861D01*
X0083369Y0168931D01*
X008293Y0168274D01*
X0082776Y01675D01*
Y0163961D01*
X0081043D01*
Y0153693D01*
X0082776D01*
Y0128134D01*
X0081043D01*
Y0117866D01*
X0088555D01*
Y0128134D01*
X0086822D01*
Y0153693D01*
X0088555D01*
Y0163961D01*
X0086822D01*
Y0166662D01*
X008816Y0168D01*
X0092299D01*
Y0176D01*
X0090921D01*
Y0177201D01*
X0090798Y0177821D01*
X0090446Y0178348D01*
X0086647Y0182147D01*
X0086121Y0182498D01*
X00855Y0182622D01*
D02*
G37*
G36*
X0189331Y0131666D02*
X0188248Y0131523D01*
X0187238Y0131105D01*
X0186371Y013044D01*
X0185706Y0129573D01*
X0185288Y0128564D01*
X0185145Y012748D01*
X0185288Y0126397D01*
X0185706Y0125388D01*
X0186371Y0124521D01*
X0187238Y0123856D01*
X0188248Y0123438D01*
X0189331Y0123295D01*
X0190414Y0123438D01*
X0191423Y0123856D01*
X019229Y0124521D01*
X0192955Y0125388D01*
X0193374Y0126397D01*
X0193516Y012748D01*
X0193374Y0128564D01*
X0192955Y0129573D01*
X019229Y013044D01*
X0191423Y0131105D01*
X0190414Y0131523D01*
X0189331Y0131666D01*
D02*
G37*
G36*
X0019331D02*
X0018248Y0131523D01*
X0017238Y0131105D01*
X0016371Y013044D01*
X0015706Y0129573D01*
X0015288Y0128564D01*
X0015145Y012748D01*
X0015288Y0126397D01*
X0015706Y0125388D01*
X0016371Y0124521D01*
X0017238Y0123856D01*
X0018248Y0123438D01*
X0019331Y0123295D01*
X0020414Y0123438D01*
X0021423Y0123856D01*
X002229Y0124521D01*
X0022955Y0125388D01*
X0023373Y0126397D01*
X0023516Y012748D01*
X0023373Y0128564D01*
X0022955Y0129573D01*
X002229Y013044D01*
X0021423Y0131105D01*
X0020414Y0131523D01*
X0019331Y0131666D01*
D02*
G37*
G36*
X0096799Y0176D02*
X0094299D01*
Y01725D01*
X0096799D01*
Y0176D01*
D02*
G37*
G36*
X0060299Y01725D02*
X0057799D01*
Y0169D01*
X0060299D01*
Y01725D01*
D02*
G37*
G36*
X0100299Y0176D02*
X0097799D01*
Y01725D01*
X0100299D01*
Y0176D01*
D02*
G37*
G36*
X0060299Y0177D02*
X0057799D01*
Y01735D01*
X0060299D01*
Y0177D01*
D02*
G37*
G36*
X0056799D02*
X0054299D01*
Y01735D01*
X0056799D01*
Y0177D01*
D02*
G37*
G36*
X01645Y017162D02*
Y0168D01*
X016812D01*
X0168043Y0168583D01*
X0167625Y0169593D01*
X016696Y0170459D01*
X0166093Y0171125D01*
X0165083Y0171543D01*
X01645Y017162D01*
D02*
G37*
G36*
X01635D02*
X0162917Y0171543D01*
X0161907Y0171125D01*
X016104Y0170459D01*
X0160375Y0169593D01*
X0159957Y0168583D01*
X015988Y0168D01*
X01635D01*
Y017162D01*
D02*
G37*
G36*
X0096799Y01715D02*
X0094299D01*
Y0168D01*
X0096799D01*
Y01715D01*
D02*
G37*
G36*
X0056799Y01725D02*
X0054299D01*
Y0169D01*
X0056799D01*
Y01725D01*
D02*
G37*
G36*
X0100299Y01715D02*
X0097799D01*
Y0168D01*
X0100299D01*
Y01715D01*
D02*
G37*
G36*
X01655Y01085D02*
X0162D01*
Y0106D01*
X01655D01*
Y01085D01*
D02*
G37*
G36*
X0121283Y0083079D02*
X0118421D01*
Y008061D01*
X0121283D01*
Y0083079D01*
D02*
G37*
G36*
X0117421D02*
X0114559D01*
Y008061D01*
X0117421D01*
Y0083079D01*
D02*
G37*
G36*
X0170177Y0083079D02*
X0167315D01*
Y008061D01*
X0170177D01*
Y0083079D01*
D02*
G37*
G36*
X012313Y0087287D02*
X0120661D01*
Y0084425D01*
X012313D01*
Y0087287D01*
D02*
G37*
G36*
X0189331Y0091981D02*
X0188248Y0091838D01*
X0187238Y009142D01*
X0186371Y0090755D01*
X0185706Y0089888D01*
X0185288Y0088879D01*
X0185145Y0087795D01*
X0185288Y0086712D01*
X0185706Y0085703D01*
X0186371Y0084836D01*
X0187238Y0084171D01*
X0188248Y0083753D01*
X0189331Y008361D01*
X0190414Y0083753D01*
X0191423Y0084171D01*
X019229Y0084836D01*
X0192955Y0085703D01*
X0193374Y0086712D01*
X0193516Y0087795D01*
X0193374Y0088879D01*
X0192955Y0089888D01*
X019229Y0090755D01*
X0191423Y009142D01*
X0190414Y0091838D01*
X0189331Y0091981D01*
D02*
G37*
G36*
X0071299Y0079D02*
X0067799D01*
Y00765D01*
X0071299D01*
Y0079D01*
D02*
G37*
G36*
X0064799D02*
X0061299D01*
Y00765D01*
X0064799D01*
Y0079D01*
D02*
G37*
G36*
X0075799D02*
X0072299D01*
Y00765D01*
X0075799D01*
Y0079D01*
D02*
G37*
G36*
X0199831Y0081915D02*
Y0078295D01*
X020345D01*
X0203374Y0078878D01*
X0202955Y0079888D01*
X020229Y0080755D01*
X0201423Y008142D01*
X0200414Y0081838D01*
X0199831Y0081915D01*
D02*
G37*
G36*
X0198831D02*
X0198248Y0081838D01*
X0197238Y008142D01*
X0196371Y0080755D01*
X0195706Y0079888D01*
X0195288Y0078878D01*
X0195211Y0078295D01*
X0198831D01*
Y0081915D01*
D02*
G37*
G36*
X017Y0105D02*
X01665D01*
Y01025D01*
X017D01*
Y0105D01*
D02*
G37*
G36*
X01655D02*
X0162D01*
Y01025D01*
X01655D01*
Y0105D01*
D02*
G37*
G36*
X0019331Y0111666D02*
X0018248Y0111523D01*
X0017238Y0111105D01*
X0016371Y011044D01*
X0015706Y0109573D01*
X0015288Y0108564D01*
X0015145Y010748D01*
X0015288Y0106397D01*
X0015706Y0105388D01*
X0016371Y0104521D01*
X0017238Y0103856D01*
X0018248Y0103437D01*
X0019331Y0103295D01*
X0020414Y0103437D01*
X0021423Y0103856D01*
X002229Y0104521D01*
X0022955Y0105388D01*
X0023373Y0106397D01*
X0023516Y010748D01*
X0023373Y0108564D01*
X0022955Y0109573D01*
X002229Y011044D01*
X0021423Y0111105D01*
X0020414Y0111523D01*
X0019331Y0111666D01*
D02*
G37*
G36*
X01585Y01085D02*
X0155D01*
Y0106D01*
X01585D01*
Y01085D01*
D02*
G37*
G36*
X0154D02*
X01505D01*
Y0106D01*
X0154D01*
Y01085D01*
D02*
G37*
G36*
X012313Y009115D02*
X0120661D01*
Y0088288D01*
X012313D01*
Y009115D01*
D02*
G37*
G36*
X0167937D02*
X012413D01*
Y0087787D01*
Y0084425D01*
X0167937D01*
Y009115D01*
D02*
G37*
G36*
X0019331Y0101666D02*
X0018248Y0101523D01*
X0017238Y0101105D01*
X0016371Y010044D01*
X0015706Y0099573D01*
X0015288Y0098564D01*
X0015145Y009748D01*
X0015288Y0096397D01*
X0015706Y0095388D01*
X0016371Y0094521D01*
X0017238Y0093856D01*
X0018248Y0093437D01*
X0019331Y0093295D01*
X0020414Y0093437D01*
X0021423Y0093856D01*
X002229Y0094521D01*
X0022955Y0095388D01*
X0023373Y0096397D01*
X0023516Y009748D01*
X0023373Y0098564D01*
X0022955Y0099573D01*
X002229Y010044D01*
X0021423Y0101105D01*
X0020414Y0101523D01*
X0019331Y0101666D01*
D02*
G37*
G36*
X01585Y0105D02*
X0155D01*
Y01025D01*
X01585D01*
Y0105D01*
D02*
G37*
G36*
X0154D02*
X01505D01*
Y01025D01*
X0154D01*
Y0105D01*
D02*
G37*
%LPD*%
D10*
X0102516Y0123D02*
D03*
X0084799D02*
D03*
X0102516Y0158827D02*
D03*
X0084799D02*
D03*
X0044799Y0157827D02*
D03*
X0062516D02*
D03*
X0044799Y0122D02*
D03*
X0062516D02*
D03*
D11*
X0166Y00975D02*
D03*
Y01055D02*
D03*
X01545Y00975D02*
D03*
Y01055D02*
D03*
X0071799Y0068D02*
D03*
Y0076D02*
D03*
X0060799Y0068D02*
D03*
Y0076D02*
D03*
X00875Y0027D02*
D03*
Y0035D02*
D03*
Y0045D02*
D03*
Y0053D02*
D03*
X0102Y0027D02*
D03*
Y0035D02*
D03*
Y0045D02*
D03*
Y0053D02*
D03*
X004Y00695D02*
D03*
Y00615D02*
D03*
X00205Y00635D02*
D03*
Y00555D02*
D03*
D12*
X0060783Y0052575D02*
D03*
X0050783D02*
D03*
X0040784D02*
D03*
Y0014425D02*
D03*
X0050783D02*
D03*
X0060783D02*
D03*
D13*
X0164969Y0087787D02*
D03*
X0159063D02*
D03*
X0153157D02*
D03*
X0147252D02*
D03*
X0141347D02*
D03*
X0135441D02*
D03*
X0129535D02*
D03*
X012363D02*
D03*
D14*
X0117921Y0009244D02*
D03*
Y001515D02*
D03*
Y0021055D02*
D03*
Y0026961D02*
D03*
Y0032866D02*
D03*
Y0038772D02*
D03*
Y0044677D02*
D03*
Y0050583D02*
D03*
Y0056488D02*
D03*
Y0062394D02*
D03*
Y0068299D02*
D03*
Y0074205D02*
D03*
Y008011D02*
D03*
X0170677Y008011D02*
D03*
Y0074205D02*
D03*
Y0068299D02*
D03*
Y0062394D02*
D03*
Y0056488D02*
D03*
Y0050583D02*
D03*
Y0044677D02*
D03*
Y0038772D02*
D03*
Y0032866D02*
D03*
Y0026961D02*
D03*
Y0021055D02*
D03*
Y001515D02*
D03*
Y0009244D02*
D03*
D15*
X0089299Y0172D02*
D03*
X0097299D02*
D03*
X0049299Y0173D02*
D03*
X0057299D02*
D03*
D16*
X0033Y01425D02*
X00365Y0146D01*
X001435Y01425D02*
X0033D01*
X0009331Y013748D02*
X001435Y01425D01*
X0170677Y001515D02*
X0170827Y0015D01*
X0176D01*
X01795Y00185D01*
Y009765D01*
X0189331Y010748D01*
X0170677Y0009244D02*
X0170921Y0009D01*
X01805D01*
X0183Y00115D01*
Y0092D01*
X01945Y01035D01*
Y0112311D01*
X0189331Y011748D02*
X01945Y0112311D01*
X0170677Y0074205D02*
X0170882Y0074D01*
X0175D01*
X01755Y00745D01*
Y0093D01*
X0171Y00975D02*
X01755Y0093D01*
X0166Y00975D02*
X0171D01*
X00875Y0022D02*
Y0027D01*
Y0022D02*
X0088445Y0021055D01*
X0117921D01*
X0117882Y0027D02*
X0117921Y0026961D01*
X0102Y0027D02*
X0117882D01*
X00205Y00475D02*
Y00555D01*
Y00475D02*
X00235Y00445D01*
X00485D01*
X0050783Y0046784D01*
Y0052575D01*
X0009331Y0059169D02*
Y008748D01*
Y0059169D02*
X0013Y00555D01*
X00205D01*
X00325Y00615D02*
X004D01*
X00305Y00595D02*
X00325Y00615D01*
X0016Y00595D02*
X00305D01*
X00145Y0061D02*
X0016Y00595D01*
X00145Y0061D02*
Y0092311D01*
X0009331Y009748D02*
X00145Y0092311D01*
X0089299Y0172D02*
Y0177201D01*
X00855Y0181D02*
X0089299Y0177201D01*
X004Y0181D02*
X00855D01*
X0032Y0173D02*
X004Y0181D01*
X0032Y01575D02*
Y0173D01*
X0027Y01525D02*
X0032Y01575D01*
X001435Y01525D02*
X0027D01*
X0009331Y014748D02*
X001435Y01525D01*
X0041827Y0157827D02*
X0044799D01*
X00365Y01525D02*
X0041827Y0157827D01*
X00365Y0146D02*
Y01525D01*
D17*
X0009331Y014748D02*
X000998D01*
X0044799Y01685D02*
X0049299Y0173D01*
X0044799Y0157827D02*
Y01685D01*
Y0122D02*
Y0157827D01*
X0084799Y01675D02*
X0089299Y0172D01*
X0084799Y0158827D02*
Y01675D01*
Y0123D02*
Y0158827D01*
X00685Y00975D02*
X00875D01*
X0062516Y0103484D02*
X00685Y00975D01*
X0062516Y0103484D02*
Y0122D01*
Y0157827D01*
X01025Y00975D02*
X01545D01*
X00875D02*
X01025D01*
X0102516Y0097516D01*
Y0123D01*
Y0158827D01*
X00785Y0011D02*
X00865Y0003D01*
X01975D01*
X0174Y01675D02*
X02D01*
X02045Y0163D01*
Y00975D02*
Y0163D01*
X0199331Y0092331D02*
X02045Y00975D01*
X0199331Y0087795D02*
Y0092331D01*
X00785Y00675D02*
X00845D01*
X0072299D02*
X00785D01*
Y0011D02*
Y00675D01*
X01975Y0003D02*
X02045Y001D01*
Y0022626D01*
X0199331Y0027795D02*
X02045Y0022626D01*
X00205Y00635D02*
X00265Y00695D01*
X004D01*
X00495D01*
X0051Y0068D01*
X0060799D01*
X0071799D01*
X0072299Y00675D01*
X00845D02*
X00875Y00705D01*
Y00975D01*
X01545D02*
X0166D01*
D18*
X0189311Y01075D02*
X0189331Y010748D01*
X004Y00615D02*
X0040784Y0060716D01*
Y0052575D02*
Y0060716D01*
X0009311Y01575D02*
X0009331Y015748D01*
X00055Y01575D02*
X0009311D01*
X00045Y01565D02*
X00055Y01575D01*
X00045Y0027D02*
Y01565D01*
Y0027D02*
X0017075Y0014425D01*
X0040784D01*
X0009331Y009748D02*
X001052D01*
X0040299Y0053059D02*
X0040784Y0052575D01*
X0060783D02*
X0060799Y0052591D01*
Y0068D01*
X0102Y0035D02*
Y0045D01*
X00875Y0035D02*
Y0045D01*
X0102Y0027D02*
X0102039Y0026961D01*
D19*
X0009331Y015748D02*
D03*
Y014748D02*
D03*
Y013748D02*
D03*
Y012748D02*
D03*
Y011748D02*
D03*
Y008748D02*
D03*
Y009748D02*
D03*
Y010748D02*
D03*
X0019331Y015748D02*
D03*
Y010748D02*
D03*
Y009748D02*
D03*
Y008748D02*
D03*
Y011748D02*
D03*
Y012748D02*
D03*
Y013748D02*
D03*
Y014748D02*
D03*
X0199331Y0077795D02*
D03*
Y0067795D02*
D03*
Y0057795D02*
D03*
Y0047795D02*
D03*
Y0017795D02*
D03*
Y0027795D02*
D03*
Y0037795D02*
D03*
Y0087795D02*
D03*
X0189331Y0037795D02*
D03*
Y0027795D02*
D03*
Y0017795D02*
D03*
Y0047795D02*
D03*
Y0057795D02*
D03*
Y0067795D02*
D03*
Y0077795D02*
D03*
Y0087795D02*
D03*
Y015748D02*
D03*
Y014748D02*
D03*
Y013748D02*
D03*
Y012748D02*
D03*
Y011748D02*
D03*
Y010748D02*
D03*
X0199331Y015748D02*
D03*
Y010748D02*
D03*
Y011748D02*
D03*
Y012748D02*
D03*
Y013748D02*
D03*
Y014748D02*
D03*
X0174Y01675D02*
D03*
X0164D02*
D03*
M02*
