M48
;Layer_Color=9474304
;FILE_FORMAT=2:5
INCH,LZ
;TYPE=PLATED
T1F00S00C0.01181
T2F00S00C0.02756
T3F00S00C0.02800
T4F00S00C0.03150
T5F00S00C0.03543
T6F00S00C0.05906
T7F00S00C0.12205
%
T01
X0048811Y0037106
X006241Y0032106
Y0042106
Y0052106
Y0062106
X0085031Y0037106
X0108661Y0046653
X0131791Y0037303
X0146949Y00375
X0206594Y0041732
X0197933Y0060039
X0221457Y0108957
X0221063Y0153543
X0236187Y0141976
X0288634Y012426
X0290321Y011826
X0315158Y0130413
X0330854Y0119719
X0333823Y0122386
X0314764Y0093209
X0262894Y0094488
X0206496Y0103445
X0187276Y0101744
X0182283Y0107283
X0165094Y010587
X0167323Y0125591
X0172539Y014626
X0181102Y0153543
X0186122
X0185728Y0177165
X0189469Y0183858
X0177953Y0179921
X0183661Y0197441
X0183366Y0200886
X0185138Y0204823
X0189173Y0214272
X0170473Y0212008
X0135925Y0210827
X0125Y0188583
X0106595Y0187303
X0106988Y0172554
X0100497Y017363
X0108858Y0161319
X0111024Y0156988
X0121949Y0154429
X0119193Y0149508
X0119095Y0145571
X0128922Y0142126
X0124705Y0136811
X0139385Y0140157
Y0155905
X0128922Y0157874
X0097345Y0155807
X0086614Y0154035
X0084547Y015689
X0077858Y015798
X0081102Y0161713
X0080319Y0148432
X0083366Y0146358
X0085925Y0144095
X0087111Y0139377
X0095866Y0137106
X0095472Y0132776
X009311Y0128937
X0095177Y0113856
X0093209Y0099888
X010187Y0088976
X0104631Y0091048
X0104528Y0084055
X0124705Y0099888
X0126673Y0113856
X013918Y0092229
X0155315Y0069488
X0195374Y0093405
X0211122Y0153642
X0216142Y0153543
X0204626Y0182579
X0200492Y0179134
X0210728Y0193012
X0215748Y0195276
X0212598Y0200689
X0079429Y0176062
X0066718Y0134252
X0062303Y0135236
X0056102Y0139567
X0058172Y0143216
X0060188Y0159744
X0011516Y0130413
X0066142Y027687
X0084153Y0276969
X0087697Y0279626
Y028435
X0090551Y0286614
X0092272Y0292567
X0086693Y030126
X0067126Y0294882
X006752Y03125
X0066535Y0328642
X0084153Y0326476
X0122343Y0326083
X011525Y0282087
X0140827Y0286142
X0141181Y0276142
X0090551Y027687
X019685Y0225394
X0212161Y0227327
X0176614Y0356142
X0176476Y0366142
X0230183Y0316587
X0232677Y0226476
X0219094Y0231594
X0336254Y0259992
T02
X0245768Y0276378
Y0284252
Y0292126
Y03
Y0307874
Y0315748
Y0323622
Y0331496
Y033937
Y0347244
X0332382
Y033937
Y0331496
Y0323622
Y0315748
Y0307874
Y03
Y0292126
Y0284252
Y0276378
T03
X023563Y0061614
X0242421Y0061713
X0234252Y0068504
X0246555Y0084547
X0246654Y0097244
X0243406Y0103248
T04
X0133858Y0276142
Y0286142
Y0296142
Y0306142
Y0316142
Y0326142
Y0336142
Y0346142
Y0356142
Y0366142
X0183858Y0366142
Y0356142
Y0346142
Y0336142
Y0326142
Y0316142
Y0306142
Y0296142
Y0286142
Y0276142
T05
X0009685Y0054803
X0019685
Y0064803
X0009685
Y0074803
X0019685
Y0279213
X0009685
Y0289213
X0019685
Y0299213
X0009685
Y0318583
X0019685
Y0328583
X0009685
Y0338583
X0019685
X0374016Y0338898
Y0328898
Y0318898
X0384016
Y0328898
Y0338898
T06
X0236221Y0019685
X025
X0263779
X0277559
X0291339
X0305118
X0318898
X0332677
X0375Y0062008
Y0075788
Y0089567
Y0103347
T07
X0027559Y0027559
X0366142
X0027559Y0366142
X0366142
M30
