M48
;Layer_Color=9474304
;FILE_FORMAT=2:5
INCH,LZ
;TYPE=PLATED
T1F00S00C0.03937
%
T01
X0122047Y0374882
X0132047
Y0384882
X0122047
Y0394882
X0132047
Y0404882
X0122047
Y0414882
X0132047
Y0424882
X0122047
Y0434882
X0132047
Y0444882
X0122047
Y0454882
X0132047
Y0464882
X0122047
X0155512Y0435433
X0155118Y0394882
M30
