%FSTAX25Y25*%
%MOIN*%
G70*
G01*
G75*
G04 Layer_Color=65535*
%ADD10C,0.00984*%
%ADD11C,0.00787*%
%ADD12C,0.00394*%
%ADD13C,0.01000*%
D10*
X0191858Y0401614D02*
G03*
X0191858Y0401614I-0000787J0D01*
G01*
D11*
X0102047Y0364882D02*
X0152047D01*
X0102047D02*
Y0474882D01*
X0152047D01*
Y0364882D02*
Y0474882D01*
X0188315Y0412047D02*
Y0412697D01*
Y0417697D02*
Y0418347D01*
X0179291Y0412697D02*
X0188177D01*
X0179291Y0417697D02*
X0188315D01*
X0179291Y0412697D02*
Y0417697D01*
X0188315Y0422087D02*
Y0423268D01*
Y0407126D02*
Y0408307D01*
Y0394331D02*
Y0403386D01*
X0166268Y0394331D02*
X0188315D01*
X0166268D02*
Y0403287D01*
X0188315Y0427008D02*
Y0436063D01*
X0166268D02*
X0188315D01*
X0166268Y0427008D02*
Y0436063D01*
Y0422087D02*
Y0423366D01*
Y0417067D02*
Y0418347D01*
Y0412047D02*
Y0413327D01*
Y0407126D02*
Y0408307D01*
D12*
X0177291Y0414016D02*
Y0416378D01*
X017611Y0415197D02*
X0178472D01*
D13*
X0106677Y0484242D02*
X0104677D01*
X0105677D01*
Y0479244D01*
X0104677Y0478244D01*
X0103678D01*
X0102678Y0479244D01*
X0112675Y0478244D02*
X0108676D01*
X0112675Y0482243D01*
Y0483243D01*
X0111675Y0484242D01*
X0109676D01*
X0108676Y0483243D01*
X0168766Y0445409D02*
X0166766D01*
X0167766D01*
Y0440411D01*
X0166766Y0439411D01*
X0165767D01*
X0164767Y0440411D01*
X0170765Y0439411D02*
X0172764D01*
X0171765D01*
Y0445409D01*
X0170765Y0444409D01*
M02*
