%FSTAX25Y25*%
%MOIN*%
G70*
G01*
G75*
G04 Layer_Physical_Order=1*
G04 Layer_Color=255*
%ADD10R,0.11024X0.02953*%
%ADD11C,0.02756*%
%ADD12C,0.03937*%
%ADD13R,0.03937X0.41339*%
%ADD14R,0.80709X0.09843*%
%ADD15R,0.13780X0.23622*%
%ADD16R,0.35827X0.23622*%
%ADD17R,0.19685X0.48031*%
%ADD18R,0.03937X0.00787*%
%ADD19R,0.17716X0.07874*%
%ADD20R,0.03937X0.55118*%
%ADD21R,0.94488X0.05906*%
%ADD22R,0.23622X0.90551*%
%ADD23C,0.07087*%
D10*
X0185291Y0405197D02*
D03*
X0169291D02*
D03*
X0185291Y0410197D02*
D03*
X0169291D02*
D03*
X0185291Y0415197D02*
D03*
X0169291D02*
D03*
X0185291Y0420197D02*
D03*
X0169291D02*
D03*
X0185291Y0425197D02*
D03*
X0169291D02*
D03*
D11*
Y0437709D01*
X0162118Y0444882D02*
X0169291Y0437709D01*
X0132047Y0444882D02*
X0162118D01*
X0144303Y0410197D02*
X0169291D01*
X0139618Y0414882D02*
X0144303Y0410197D01*
X0132047Y0414882D02*
X0139618D01*
X0151803Y0415197D02*
X0169291D01*
X0146457Y0420543D02*
X0151803Y0415197D01*
X0146457Y0420543D02*
Y0431543D01*
X0143118Y0434882D02*
X0146457Y0431543D01*
X0132047Y0434882D02*
X0143118D01*
X0132047Y0394882D02*
X0155118D01*
X0155512Y0423622D02*
Y0435433D01*
Y0423622D02*
X0158937Y0420197D01*
X0169291D01*
X0185291Y0410197D02*
Y0415197D01*
Y0375842D02*
Y0405197D01*
X0184331Y0374882D02*
X0185291Y0375842D01*
X0132047Y0374882D02*
X0184331D01*
X0132047Y0404882D02*
X0132362Y0405197D01*
X0169291D01*
D12*
X0122047Y0454882D02*
Y0464882D01*
Y0444882D02*
Y0454882D01*
Y0434882D02*
Y0444882D01*
Y0424882D02*
Y0434882D01*
Y0414882D02*
Y0424882D01*
Y0404882D02*
Y0414882D01*
Y0394882D02*
Y0404882D01*
Y0384882D02*
Y0394882D01*
D13*
X0194882Y0388779D02*
D03*
D14*
X0156496Y0363189D02*
D03*
D15*
X0109252Y0370079D02*
D03*
D16*
X0156496Y046063D02*
D03*
D17*
X0183071Y045315D02*
D03*
D18*
X0194882Y0416929D02*
D03*
D19*
X0187992Y0412598D02*
D03*
D20*
X0194882Y0444882D02*
D03*
D21*
X0149606Y0475394D02*
D03*
D22*
X0113673Y0427165D02*
D03*
D23*
X0132047Y0374882D02*
D03*
X0122047D02*
D03*
X0132047Y0384882D02*
D03*
X0122047D02*
D03*
X0132047Y0394882D02*
D03*
X0122047D02*
D03*
X0132047Y0404882D02*
D03*
X0122047D02*
D03*
X0132047Y0414882D02*
D03*
X0122047D02*
D03*
X0132047Y0424882D02*
D03*
X0122047D02*
D03*
X0132047Y0434882D02*
D03*
X0122047D02*
D03*
X0132047Y0444882D02*
D03*
X0122047D02*
D03*
X0132047Y0454882D02*
D03*
X0122047D02*
D03*
X0132047Y0464882D02*
D03*
X0122047D02*
D03*
X0155118Y0394882D02*
D03*
X0155512Y0435433D02*
D03*
M02*
